**ABCDEFGHIJKLMNOPQRSTUVWXYZabcdefghijklmnopqrstuvwxyz**************************
**PARASOLID !"#$%&'()*+,-./:;<=>?@[\]^_`{|}~0123456789**************************
**PART1;
MC=AMD64;
MC_MODEL=AMD64 Family 23 Model 96 Stepping 1, AuthenticAMD;
MC_ID=unknown;
OS=Windows_NT;
OS_RELEASE=unknown;
FRU=Parasolid Version 31.1, build 290,  3- 9-2020;
APPL=SOLIDWORKS 2020-2020196;
SITE=;
USER=unknown;
FORMAT=text;
GUISE=transmit;
KEY=1812;
FILE=1812.x_t;
DATE=Mon Jun 27 17:12:04 2022;
**PART2;
SCH=SCH_3101290_31100;
USFLD_SIZE=0;
**PART3;
**END_OF_HEADER*****************************************************************
T51 : TRANSMIT FILE created by modeller version 310129023 SCH_3101290_31100_1300
6222 0 12 34 CCCCCCI4 mesh1006 0 I8 polyline1008 0 CCCCCCCDI5 owner1040 0 CCCCCC
I13 boundary_mesh1006 0 I17 boundary_polyline1008 0 CCCA16 index_map_offset0 0 1
 dA9 index_map82 0 A17 node_id_index_map82 0 A20 schema_embedding_map82 0 A5 chi
ld12 0 A14 lowest_node_id0 0 1 dA16 mesh_offset_data206 0 Z1 1099 2 3 0 0 0 0 0
 0 1e3 1e-8 0 4 0 1 0 1 1 5 6 7 8 0 0 9 10 11 0 0 0 0 0 0 0 81 255 2 2 1075 12 1
 13 0 0 0 0 14 70 11 CI9 list_type0 0 1 uI10 notransmit0 0 1 lCCCDCCDI12 finger_
index0 0 1 dI12 finger_block1012 0 CZ3 0 4 T1 0 0 12 20 1 15 15 13 255 5 183 0 1
 0 16 0 0 17 0 50 255 6 350 18 19 20 0 0 --520417042793042e-33 .0027 .0016 13629
27481496334e-31 -.707106781186549 -.707106781186546 -1 -192747052886312e-30 0 30
 255 7 304 0 10 21 0 0 +-520417042793042e-33 .0027 .0016 -1 -192747052886312e-30
 0 29 255 8 572 0 11 22 0 .00225 .0016 6e-4 19 8 CCCCCCCA5 owner12 0 Z9 61 0 1 1
7 0 23 V0 16 255 10 302 24 ?25 0 26 7 0 0 1 18 255 11 570 0 27 0 28 8 ?1 17 255
 27 0 29 30 31 11 32 33 0 34 +18 28 566 0 30 11 35 22 ?1 17 30 0 29 36 27 28 34
 37 0 38 +18 35 557 0 39 28 40 41 ?1 29 22 568 0 28 41 8 .00225 .0016 -6e-4 29 4
1 559 0 35 42 22 .00145 2e-4 6e-4 29 42 555 0 40 43 41 .00145 2e-4 -6e-4 18 40 5
53 0 44 35 45 42 ?1 29 43 549 0 45 46 42 .00225 2e-4 6e-4 18 45 547 0 47 40 48 4
3 ?1 29 46 395 0 48 49 43 -.00225 .0016 6e-4 18 48 393 0 50 45 51 46 ?1 29 49 39
1 0 51 52 46 -.00225 .0016 -6e-4 18 51 389 0 53 48 54 49 ?1 29 52 382 0 54 55 49
 -.00145 2e-4 6e-4 18 54 380 0 56 51 57 52 ?1 29 55 375 0 57 58 52 -.00225 2e-4
 -6e-4 18 57 373 0 59 54 60 55 ?1 29 58 372 0 60 61 55 -.00225 2e-4 6e-4 18 60 3
70 0 62 57 63 58 ?1 29 61 291 0 63 64 58 .00225 .0027 .0016 18 63 289 0 65 60 66
 61 ?1 29 64 283 0 66 67 61 .00225 .0027 -.0016 18 66 281 0 68 63 69 64 ?1 29 67
 270 0 69 70 64 -.00225 .0027 .0016 18 69 268 0 71 66 72 67 ?1 29 70 267 0 72 73
 67 -.00225 .0027 -.0016 18 72 265 0 74 69 75 70 ?1 29 73 254 0 75 76 70 .00225
 .0032 -.0011 18 75 252 0 77 72 78 73 ?1 29 76 251 0 78 79 73 .00225 .0032 .0011
 18 78 249 0 80 75 81 76 ?1 29 79 248 0 81 82 76 -.00225 .0032 -.0011 18 81 246
 0 83 78 84 79 ?1 29 82 245 0 84 85 79 -.00225 .0032 .0011 18 84 243 0 86 81 87
 82 ?1 29 85 135 0 88 89 82 .00225 2e-4 -.0016 18 88 118 0 90 91 92 85 ?1 29 89
 136 0 92 93 85 .00115 2e-4 -.0016 18 92 119 0 94 88 95 89 ?1 29 93 137 0 95 96
 89 .00115 0 -.0016 18 95 120 0 97 92 98 93 ?1 29 96 138 0 98 99 93 -.00115 0 -.
0016 18 98 121 0 100 95 101 96 ?1 29 99 139 0 101 102 96 -.00115 2e-4 -.0016 18
 101 122 0 103 98 104 99 ?1 29 102 140 0 104 105 99 -.00225 2e-4 -.0016 18 104 1
23 0 106 101 107 102 ?1 29 105 60 0 87 108 102 .00225 2e-4 .0016 18 87 58 0 109
 84 110 105 ?1 29 108 57 0 110 111 105 .00115 2e-4 .0016 18 110 55 0 112 87 113
 108 ?1 29 111 54 0 113 114 108 .00115 0 .0016 18 113 52 0 115 110 116 111 ?1 29
 114 51 0 116 117 111 -.00115 0 .0016 18 116 49 0 118 113 119 114 ?1 29 117 48 0
 119 120 114 -.00115 2e-4 .0016 18 119 46 0 121 116 91 117 ?1 29 120 45 0 91 122
 117 -.00225 2e-4 .0016 18 91 43 0 123 119 88 120 ?1 29 122 516 0 124 125 120 -.
00145 2e-4 -6e-4 18 124 449 0 126 127 128 122 ?1 29 125 517 0 128 129 122 -.0014
5 0 -6e-4 18 128 448 0 130 124 131 125 ?1 29 129 518 0 131 132 125 -.00245 0 -6e
-4 18 131 447 0 133 128 134 129 ?1 29 132 519 0 134 135 129 -.00245 .0016 -6e-4
 18 134 445 0 136 131 137 132 ?1 29 135 523 0 107 138 132 -.00145 0 6e-4 18 107
 453 0 139 104 140 135 ?1 29 138 524 0 140 141 135 -.00245 0 6e-4 18 140 452 0 1
42 107 127 138 ?1 29 141 525 0 127 143 138 -.00245 .0016 6e-4 18 127 451 0 144 1
40 124 141 ?1 29 143 693 0 145 146 141 .00245 .0016 -6e-4 18 145 633 0 147 148 1
49 143 ?1 29 146 694 0 149 150 143 .00245 0 -6e-4 18 149 631 0 151 145 152 146 ?
1 29 150 695 0 152 153 146 .00145 0 -6e-4 18 152 629 0 154 149 155 150 ?1 29 153
 697 0 155 156 150 .00225 2e-4 -6e-4 18 155 625 0 157 152 0 153 ?1 29 156 699 0
 137 158 153 .00245 .0016 6e-4 18 137 630 0 159 134 160 156 ?1 29 158 700 0 160
 161 156 .00245 0 6e-4 18 160 628 0 162 137 148 158 ?1 29 161 701 0 148 0 158 .0
0145 0 6e-4 18 148 626 0 163 160 145 161 ?1 17 163 0 164 165 166 148 154 167 0 1
68 -15 255 164 645 0 166 169 0 17 165 0 164 170 163 35 168 171 0 0 +17 166 0 164
 163 170 152 172 173 0 174 -17 154 0 175 176 177 152 163 167 0 166 +16 167 595 1
78 ?154 179 180 181 0 0 1 17 168 0 182 183 184 148 165 171 0 177 -15 182 660 0 3
2 185 0 17 183 0 182 186 168 160 177 187 0 188 -17 184 0 182 168 32 35 47 189 0
 165 -16 171 588 190 ?165 187 189 191 0 0 1 17 177 0 175 154 162 148 183 187 0 0
 +15 175 649 0 176 192 0 17 162 0 175 177 176 160 151 180 0 183 -16 187 592 193
 ?177 194 171 195 0 0 1 81 2 193 972 196 187 0 0 197 198 0 0 16 194 596 199 ?188
 200 187 201 0 0 1 30 195 688 0 187 191 201 0 +.00245 0 6e-4 -1 0 0 30 191 689 0
 171 202 195 0 +.00145 0 6e-4 0 1 0 30 201 687 0 194 195 203 0 +.00245 .0016 6e-
4 -271050543121376e-30 -1 0 30 203 686 0 200 201 204 0 +.00225 .0016 6e-4 1 0 0
 16 200 600 205 ?206 37 194 203 0 0 1 30 204 685 0 207 203 208 0 +.00225 2e-4 -6
e-4 123908819712629e-29 1 0 16 207 604 197 ?38 209 0 204 0 0 1 30 208 684 0 209
 204 210 0 +.00145 2e-4 -6e-4 1 0 0 16 209 619 211 ?212 173 207 208 0 0 1 30 210
 683 0 173 208 213 0 +.00145 0 -6e-4 0 1 0 16 173 616 214 ?172 215 209 210 0 0 1
 30 213 682 0 215 210 216 0 +.00245 0 -6e-4 -1 0 0 16 215 613 217 ?174 218 173 2
13 0 0 1 30 216 681 0 218 213 219 0 +.00245 .0016 -6e-4 -271050543121376e-30 -1
 0 16 218 610 220 ?221 222 215 216 0 0 1 30 219 680 0 222 216 223 0 +.00225 .001
6 -6e-4 1 0 0 16 222 607 224 ?225 33 218 219 0 0 1 30 223 679 0 37 219 226 0 +.0
0225 .0016 6e-4 0 0 -1 16 37 583 227 ?30 228 200 223 0 0 1 30 226 678 0 228 223
 229 0 +.00245 .0016 6e-4 0 0 -1 16 228 603 230 ?147 180 37 226 0 0 1 30 229 677
 0 180 226 181 0 +.00245 0 6e-4 0 0 -1 16 180 599 231 ?151 167 228 229 0 0 1 30
 181 676 0 167 229 232 0 +.00145 0 6e-4 0 0 -1 30 232 675 0 179 181 233 0 +.0014
5 2e-4 6e-4 0 0 -1 16 179 591 234 ?170 235 167 232 0 0 1 30 233 514 0 236 232 23
7 0 +-.00225 2e-4 6e-4 -123908819712629e-29 1 0 16 236 427 238 ?239 240 241 233
 0 0 1 30 237 513 0 240 233 242 0 +-.00225 .0016 6e-4 -1 0 0 16 240 430 243 ?144
 244 236 237 0 0 1 30 242 512 0 244 237 245 0 +-.00245 .0016 6e-4 27105054312137
6e-30 -1 0 16 244 433 246 ?142 247 240 242 0 0 1 30 245 511 0 247 242 248 0 +-.0
0245 0 6e-4 1 0 0 16 247 436 249 ?139 250 244 245 0 0 1 30 248 510 0 250 245 251
 0 +-.00145 0 6e-4 0 1 0 16 250 439 252 ?253 254 247 248 0 0 1 30 251 509 0 254
 248 255 0 +-.00145 2e-4 6e-4 -1 0 0 16 254 442 256 ?257 258 250 251 0 0 1 30 25
5 508 0 235 251 259 0 +-.00225 2e-4 -6e-4 -123908819712629e-29 1 0 16 235 403 26
0 ?53 261 179 255 0 0 1 30 259 507 0 261 255 262 0 +-.00225 .0016 -6e-4 -1 0 0 1
6 261 407 263 ?136 264 235 259 0 0 1 30 262 506 0 264 259 265 0 +-.00245 .0016 -
6e-4 271050543121376e-30 -1 0 16 264 411 266 ?133 267 261 262 0 0 1 30 265 505 0
 267 262 268 0 +-.00245 0 -6e-4 1 0 0 16 267 415 269 ?130 270 264 265 0 0 1 30 2
68 504 0 270 265 271 0 +-.00145 0 -6e-4 0 1 0 16 270 419 272 ?273 241 267 268 0
 0 1 30 271 503 0 241 268 274 0 +-.00145 2e-4 -6e-4 -1 0 0 16 241 423 275 ?59 23
6 270 271 0 0 1 30 274 501 0 258 271 276 0 +-.00145 2e-4 6e-4 0 0 -1 16 258 426
 277 ?126 278 254 274 0 0 1 30 276 500 0 278 274 279 0 +-.00145 0 6e-4 0 0 -1 16
 278 422 280 ?281 282 258 276 0 0 1 30 279 499 0 282 276 283 0 +-.00245 0 6e-4 0
 0 -1 16 282 418 284 ?285 286 278 279 0 0 1 30 283 498 0 286 279 287 0 +-.00245
 .0016 6e-4 0 0 -1 16 286 414 288 ?289 290 282 283 0 0 1 30 287 497 0 290 283 29
1 0 +-.00225 .0016 6e-4 0 0 -1 16 290 410 292 ?293 294 286 287 0 0 1 30 291 7 0
 295 287 296 0 +.00225 2e-4 .0016 144560289664734e-30 1 0 16 295 5 297 ?298 299
 300 291 0 0 1 30 296 15 0 299 291 301 0 +-.00225 2e-4 .0016 72280144832367e-29
 -1 0 16 299 269 302 ?123 303 295 296 0 0 1 30 301 19 0 303 296 304 0 +-.00115 2
e-4 .0016 1 1724867092590575e-31 0 16 303 17 305 ?121 306 299 301 0 0 1 30 304 2
3 0 306 301 307 0 +-.00115 0 .0016 0 -1 0 16 306 21 308 ?118 309 303 304 0 0 1 3
0 307 27 0 309 304 310 0 +-.00115 0 .0016 1 0 0 16 309 25 311 ?115 312 306 307 0
 0 1 30 310 31 0 312 307 313 0 +.00115 0 .0016 0 1 0 16 312 29 314 ?112 315 309
 310 0 0 1 30 313 35 0 315 310 316 0 +.00115 2e-4 .0016 1 -1724867092590575e-31
 0 16 315 33 198 ?109 317 312 313 0 0 1 30 316 134 0 294 313 318 0 +.00225 2e-4
 -.0016 144560289664734e-30 1 0 16 294 114 319 ?320 321 290 316 0 0 1 30 318 132
 0 321 316 322 0 +-.00225 2e-4 -.0016 72280144832367e-29 -1 0 16 321 266 323 ?32
4 325 294 318 0 0 1 30 322 131 0 325 318 326 0 +-.00115 2e-4 -.0016 1 1724867092
590575e-31 0 16 325 102 327 ?103 328 321 322 0 0 1 30 326 130 0 328 322 329 0 +-
.00115 0 -.0016 0 -1 0 16 328 98 330 ?100 331 325 326 0 0 1 30 329 129 0 331 326
 332 0 +-.00115 0 -.0016 1 0 0 16 331 94 333 ?97 334 328 329 0 0 1 30 332 128 0
 334 329 335 0 +.00115 0 -.0016 0 1 0 16 334 90 336 ?94 300 331 332 0 0 1 30 335
 127 0 300 332 337 0 +.00115 2e-4 -.0016 1 -1724867092590575e-31 0 16 300 86 338
 ?339 295 334 335 0 0 1 30 337 175 0 340 335 341 0 +.00225 2e-4 .0016 0 0 -1 16
 340 143 342 ?31 343 317 337 317 317 1 30 341 176 0 343 337 344 0 +.00115 2e-4 .
0016 0 0 -1 16 343 144 345 ?346 347 340 341 0 0 1 30 344 177 0 347 341 348 0 +.0
0115 0 .0016 0 0 -1 16 347 145 349 ?350 351 343 344 0 0 1 30 348 178 0 351 344 3
52 0 +-.00115 0 .0016 0 0 -1 16 351 146 353 ?354 355 347 348 0 0 1 30 352 179 0
 355 348 356 0 +-.00115 2e-4 .0016 0 0 -1 16 355 147 357 ?358 359 351 352 0 0 1
 30 356 180 0 360 352 361 0 +-.00225 2e-4 .0016 0 0 -1 16 360 148 362 ?363 364 3
59 356 359 359 1 30 361 181 0 364 356 365 0 +-.00225 .0032 .0016 0 0 -1 16 364 2
44 366 ?367 368 360 361 0 0 1 30 365 182 0 368 361 369 0 +.00225 .0032 .0016 0 0
 -1 16 368 250 370 ?371 372 364 365 0 0 1 30 369 257 0 372 365 373 0 +-.00225 .0
032 .0011 1 192747052886312e-30 0 16 372 255 374 ?80 375 368 369 0 0 1 30 373 26
2 0 375 369 376 0 +-.00225 .0032 -.0011 -1 -192747052886312e-30 0 16 375 260 377
 ?378 379 372 373 0 0 1 30 376 273 0 379 373 380 0 --.00225 .0027 .0016 51109780
5561124e-30 -.707106781186546 .707106781186549 16 379 271 381 ?86 382 375 376 0
 0 1 30 380 278 0 382 376 383 0 +-.00225 .0032 -.0011 511097805561126e-30 -.7071
06781186549 -.707106781186546 16 382 276 384 ?74 385 379 380 0 0 1 30 383 286 0
 385 380 386 0 +.00225 .0027 -.0016 1 192747052886312e-30 0 16 385 284 387 ?68 3
88 382 383 0 0 1 30 386 294 0 388 383 21 0 -.00225 .0027 .0016 1022195611122248e
-31 .707106781186547 -.707106781186549 16 388 292 389 ?65 26 385 386 0 0 1 30 21
 299 0 26 386 7 0 +.00225 .0032 -.0011 102219561112225e-30 .707106781186549 .707
106781186546 16 26 297 390 ?77 10 388 21 0 0 1 81 2 390 953 196 26 0 0 377 238 0
 0 17 77 0 29 391 320 75 392 26 0 371 +15 29 165 0 31 16 0 17 391 0 29 65 77 78
 371 368 0 393 -17 320 0 29 77 90 66 394 294 0 392 +17 392 0 395 396 397 66 77 2
6 0 0 -17 371 0 398 378 80 75 391 368 0 397 +15 398 163 0 371 399 0 17 378 0 398
 400 371 81 397 375 0 367 +17 80 0 398 371 400 78 401 372 0 391 +17 397 0 395 39
2 83 75 378 375 0 0 -15 395 317 0 392 402 0 17 83 0 395 397 396 81 74 382 0 378
 -17 396 0 395 83 392 72 68 385 0 0 -17 74 0 403 324 367 72 83 382 0 404 +15 403
 161 0 50 405 0 17 324 0 403 406 74 104 404 321 0 407 +17 367 0 403 74 86 81 400
 364 0 0 +17 404 0 408 68 407 72 324 321 0 396 -15 408 85 0 404 409 0 17 68 0 40
8 394 404 66 396 385 0 320 +17 407 0 408 404 410 104 103 325 0 0 -17 410 0 408 4
07 411 101 100 328 0 0 -17 103 0 412 413 106 101 407 325 0 358 +15 412 159 0 363
 414 0 17 413 0 412 415 103 119 358 355 0 416 -17 106 0 412 103 59 104 406 359 0
 324 +17 358 0 417 100 416 101 413 355 0 410 +15 417 157 0 100 418 0 17 100 0 41
7 419 358 98 410 328 0 354 +17 416 0 417 358 419 119 118 306 0 0 -17 419 0 417 4
16 100 116 354 351 0 420 -17 118 0 421 115 121 116 416 306 0 419 +15 421 4 0 298
 422 0 17 115 0 421 112 118 113 420 309 0 423 +17 121 0 421 118 123 119 415 303
 0 413 +17 123 0 421 121 25 91 424 299 0 425 +17 415 0 412 363 413 91 121 303 0
 0 -17 363 0 412 56 415 60 425 360 0 257 +17 56 0 412 126 363 54 257 254 0 253 -
17 425 0 403 424 62 91 363 360 0 415 -17 257 0 426 239 253 60 56 254 0 0 +15 426
 483 0 239 427 0 17 239 0 426 144 257 48 62 236 0 0 +17 253 0 426 257 139 54 428
 250 0 429 +17 139 0 426 253 142 107 430 247 0 431 +17 428 0 432 281 429 107 253
 250 0 0 -17 429 0 432 428 273 54 126 258 0 0 -15 432 476 0 273 433 0 17 273 0 4
32 429 281 124 434 270 0 435 +17 126 0 412 59 56 124 429 258 0 273 +17 59 0 412
 106 126 57 435 241 0 406 +17 435 0 436 434 437 124 59 241 0 0 -17 406 0 403 53
 324 57 106 359 0 437 -17 53 0 403 50 406 51 437 235 0 438 +16 359 374 439 ?106
 360 355 356 360 360 1 17 437 0 436 435 438 57 53 235 0 0 -15 436 486 0 437 440
 0 17 438 0 436 437 441 51 136 261 0 293 -17 441 0 436 438 442 134 133 264 0 0 -
17 136 0 443 444 293 134 438 261 0 289 +17 293 0 443 136 445 51 50 290 0 0 +15 4
43 464 0 136 446 0 17 445 0 443 293 444 48 144 240 0 239 -17 50 0 403 62 53 48 2
93 290 0 445 -17 62 0 403 425 50 60 239 236 0 363 -17 444 0 443 445 136 127 289
 286 0 447 -17 144 0 426 142 239 127 445 240 0 444 +17 142 0 426 139 144 140 447
 244 0 448 +17 447 0 449 289 448 127 142 244 0 0 -17 448 0 449 447 133 140 285 2
82 0 430 -15 449 468 0 133 450 0 17 133 0 449 448 289 131 441 264 0 285 +17 285
 0 451 130 430 131 448 282 0 442 +17 430 0 451 285 431 140 139 247 0 0 -15 451 4
72 0 130 452 0 17 431 0 451 430 130 107 281 278 0 428 -17 130 0 451 431 285 128
 442 267 0 281 +17 281 0 432 273 428 128 431 278 0 434 +17 434 0 436 442 435 128
 273 270 0 0 -17 442 0 436 441 434 131 130 267 0 0 -14 255 452 469 453 ?433 450
 451 5 454 -0 0 433 450 23 81 1 453 1076 455 452 456 0 0 457 458 14 433 473 457
 ?427 452 432 5 459 -0 0 427 452 23 14 450 465 460 ?452 446 449 5 461 -0 0 452 4
46 23 50 454 492 0 452 459 461 0 +-.00245 0 6e-4 0 1 0 0 0 1 13 23 62 0 0 0 0 0
 0 9 16 14 16 166 462 ?399 0 29 5 463 -0 0 399 0 23 81 1 462 1079 455 16 464 0 4
60 465 466 14 399 164 465 ?405 16 398 5 467 -0 0 405 16 23 50 463 174 0 16 467 2
0 0 +.00225 2e-4 .0016 -1 144560289664734e-30 0 -144560289664734e-30 -1 0 50 467
 173 0 399 468 463 0 +-.00225 .0032 .0016 192747052886312e-30 -1 0 1 19274705288
6312e-30 0 50 20 328 469 402 463 6 0 +-.00225 .0032 -.0011 -136292748149633e-30
 .707106781186546 -.707106781186549 1 192747052886312e-30 0 81 2 469 329 470 20
 0 0 0 18 471 472 14 402 316 473 ?19 409 395 5 20 +0 0 19 409 23 81 1 473 1081 4
55 402 474 0 465 475 476 14 19 338 475 ?446 402 477 5 6 +0 0 446 402 23 14 409 8
4 478 ?402 422 408 5 479 +0 0 402 422 23 81 1 478 1083 455 409 480 0 475 481 482
 14 422 1 481 ?409 483 421 5 484 -0 0 409 483 23 50 479 126 0 409 484 485 0 +0 0
 -.0016 0 0 -1 -1 0 0 50 484 3 0 422 486 479 0 +0 0 .0016 0 0 -1 -1 0 0 50 485 1
67 0 483 479 487 0 +.00115 2e-4 .0016 1724867092590575e-31 1 0 -1 17248670925905
75e-31 0 14 483 152 488 ?422 489 490 5 485 -0 0 422 489 23 50 487 168 0 489 485
 491 0 +.00115 0 .0016 -1 0 0 0 0 1 14 489 154 492 ?483 493 494 5 487 -0 0 483 4
93 23 50 491 169 0 493 487 495 0 +-.00115 0 .0016 0 1 0 0 0 1 14 493 156 496 ?48
9 418 497 5 491 -0 0 489 418 23 50 495 170 0 418 491 498 0 +-.00115 0 .0016 1 0
 0 0 0 -1 14 418 158 499 ?493 414 417 5 495 -0 0 493 414 23 50 498 171 0 414 495
 468 0 +-.00115 2e-4 .0016 -1724867092590575e-31 1 0 -1 -1724867092590575e-31 0
 14 414 160 500 ?418 405 412 5 498 -0 0 418 405 23 50 468 172 0 405 498 467 0 +-
.00225 2e-4 .0016 1 72280144832367e-29 0 -72280144832367e-29 1 0 14 405 162 501
 ?414 399 403 5 468 -0 0 414 399 23 81 1 501 1090 455 405 502 0 500 503 504 80 2
55 1 455 505 506 9000 1 1 1 1 1 1 1 1 0 FFFFTFTFFFFFFF1 81 1 502 1004 507 405 50
8 501 509 510 511 81 1 500 1089 455 414 510 0 499 501 512 81 1 503 1091 455 446
 513 0 501 514 515 82 255 1 504 1456603286 14 446 461 503 ?450 19 443 5 486 -0 0
 450 19 23 81 1 513 1014 507 446 516 503 517 518 519 81 1 514 1092 455 427 520 0
 503 521 522 82 1 515 438239382 14 427 481 514 ?440 433 426 5 523 +0 0 440 433 2
3 81 1 520 1018 507 427 524 514 525 526 527 81 1 521 1093 455 440 526 0 514 528
 529 82 1 522 427884694 14 440 484 521 ?169 427 436 5 530 -0 0 169 427 23 81 1 5
26 1019 507 440 531 521 520 532 533 81 1 528 1094 455 169 532 0 521 534 535 82 1
 529 435880086 14 169 642 528 ?192 440 164 5 536 +0 0 192 440 23 81 1 532 1020 5
07 169 537 528 526 538 539 81 1 534 1095 455 192 538 0 528 540 541 82 1 535 5854
33240 14 192 646 534 ?542 169 175 5 543 +0 0 542 169 23 81 1 538 1021 507 192 54
4 534 532 545 546 81 1 540 1096 455 542 545 0 534 547 548 82 1 541 585302168 14
 542 650 540 ?549 192 550 5 551 +0 0 549 192 23 81 1 545 1022 507 542 552 540 53
8 553 554 81 1 547 1097 455 549 553 0 540 555 556 82 1 548 585171096 14 549 654
 547 ?185 542 557 5 558 +0 0 185 542 23 81 1 553 1023 507 549 559 547 545 560 56
1 81 1 555 1098 455 185 560 0 547 562 563 82 1 556 585040024 14 185 658 555 ?564
 549 182 5 565 +0 0 564 549 23 81 1 560 1024 507 185 566 555 553 567 568 81 1 56
2 1099 455 564 567 0 555 0 569 82 1 563 575733912 14 564 661 562 ?0 185 570 5 57
1 -0 0 0 185 23 81 1 567 1025 507 564 572 562 560 0 573 82 1 569 583729304 80 1
 507 0 574 8001 0 0 0 0 3 5 0 0 0 FFFFTFTFFFFFFF2 81 2 572 911 575 564 0 567 566
 0 0 0 83 255 3 573 1 1 1 80 2 575 576 577 9000 0 0 0 0 3 6 0 0 0 FFFFTFFFFFFFFF
9 1 81 2 566 909 575 185 0 560 559 572 0 0 81 2 559 907 575 549 0 553 552 566 0
 0 81 2 552 905 575 542 0 545 544 559 0 0 81 2 544 903 575 192 0 538 537 552 0 0
 81 2 537 901 575 169 0 532 531 544 0 0 81 2 531 899 575 440 0 526 524 537 0 0 8
1 2 524 897 575 427 0 520 578 531 0 0 81 2 578 895 575 433 0 525 579 524 0 0 81
 1 525 1017 507 433 578 457 456 520 580 81 2 579 893 575 452 0 456 581 578 0 0 8
1 1 456 1016 507 452 579 453 518 525 582 81 2 581 891 575 450 0 518 516 579 0 0
 81 1 518 1015 507 450 581 460 513 456 583 81 2 516 889 575 446 0 513 584 581 0
 0 81 2 584 887 575 19 0 517 585 516 0 0 81 1 517 1013 507 19 584 475 474 513 58
6 81 2 585 885 575 402 0 474 587 584 0 0 81 1 474 1012 507 402 585 473 480 517 5
88 81 2 587 883 575 409 0 480 589 585 0 0 81 1 480 1011 507 409 587 478 590 474
 591 81 2 589 881 575 422 0 590 592 587 0 0 81 1 590 1010 507 422 589 481 593 48
0 594 81 2 592 879 575 483 0 593 595 589 0 0 81 1 593 1009 507 483 592 488 596 5
90 597 81 2 595 877 575 489 0 596 598 592 0 0 81 1 596 1008 507 489 595 492 599
 593 600 81 2 598 875 575 493 0 599 601 595 0 0 81 1 599 1007 507 493 598 496 60
2 596 603 81 2 601 873 575 418 0 602 604 598 0 0 81 1 602 1006 507 418 601 499 5
10 599 605 81 2 604 871 575 414 0 510 508 601 0 0 81 1 510 1005 507 414 604 500
 502 602 606 81 2 508 869 575 405 0 502 607 604 0 0 81 2 607 867 575 399 0 509 6
08 508 0 0 81 1 509 1003 507 399 607 465 464 502 609 81 2 608 865 575 16 0 464 0
 607 0 0 81 1 464 1002 507 16 608 462 0 509 610 83 3 610 .203921568627451 .20392
1568627451 .203921568627451 81 1 465 1080 455 399 509 0 462 473 611 83 3 609 .20
3921568627451 .203921568627451 .203921568627451 82 1 611 1456865427 83 3 606 .20
3921568627451 .203921568627451 .203921568627451 81 1 499 1088 455 418 602 0 496
 500 612 83 3 605 .203921568627451 .203921568627451 .203921568627451 81 1 496 10
87 455 493 599 0 492 499 613 82 1 612 1456078993 81 1 492 1086 455 489 596 0 488
 496 614 82 1 613 1455816849 81 1 488 1085 455 483 593 0 481 492 615 82 1 614 14
55554705 81 1 481 1084 455 422 590 0 478 488 616 82 1 615 1455292568 82 1 616 14
43233939 83 3 603 .203921568627451 .203921568627451 .203921568627451 83 3 600 .2
03921568627451 .203921568627451 .203921568627451 83 3 597 .203921568627451 .2039
21568627451 .203921568627451 83 3 594 .203921568627451 .203921568627451 .2039215
68627451 83 3 591 .203921568627451 .203921568627451 .203921568627451 83 3 588 .2
03921568627451 .203921568627451 .203921568627451 81 1 475 1082 455 19 517 0 473
 478 617 83 3 586 .203921568627451 .203921568627451 .203921568627451 82 1 617 17
83431315 81 1 460 1078 455 450 518 0 457 462 618 83 3 583 1 1 1 81 1 457 1077 45
5 433 525 0 453 460 619 82 1 618 437977238 82 1 619 437452950 83 3 582 1 1 1 83
 3 580 1 1 1 79 255 14 577 FACE_ID_2_200179 15 574 SDL/TYSA_COLOUR15 570 663 0 3
8 564 0 50 571 672 0 564 565 558 0 +0 0 -6e-4 0 0 1 -1 0 0 50 565 673 0 185 0 57
1 0 +0 0 6e-4 0 0 1 -1 0 0 50 558 671 0 549 571 551 0 +.00225 .0016 6e-4 0 1 0 0
 0 1 50 551 670 0 542 558 543 0 +.00245 .0016 6e-4 1 -271050543121376e-30 0 2710
50543121376e-30 1 0 50 543 669 0 192 551 536 0 +.00245 0 6e-4 0 -1 0 0 0 -1 50 5
36 668 0 169 543 523 0 +.00145 0 6e-4 -1 0 0 0 0 1 50 523 496 0 427 536 530 0 +0
 0 6e-4 0 0 1 1 0 0 50 530 495 0 440 523 459 0 +0 0 -6e-4 0 0 1 1 0 0 50 459 493
 0 433 530 454 0 +-.00145 0 6e-4 -1 0 0 0 0 1 17 38 0 570 225 212 28 36 207 0 62
0 +17 225 0 570 221 38 145 620 222 0 0 +17 212 0 570 38 172 155 44 209 0 0 +17 3
6 0 29 90 30 155 38 207 0 212 -17 620 0 557 34 147 28 225 222 0 0 -15 557 657 0
 620 549 0 17 34 0 557 206 620 11 30 37 0 621 -17 147 0 557 620 206 145 159 228
 0 622 +17 206 0 557 147 34 137 621 200 0 0 +17 159 0 550 188 622 137 147 228 0
 186 -17 622 0 550 159 151 145 221 218 0 225 -15 550 653 0 622 542 0 17 151 0 55
0 622 188 149 162 180 0 176 +17 221 0 570 174 225 149 622 218 0 0 +17 174 0 570
 172 221 152 176 215 0 0 +17 172 0 570 212 174 40 166 173 0 0 +17 176 0 175 162
 154 149 174 215 0 221 -17 188 0 550 151 159 160 186 194 0 0 +17 186 0 182 621 1
83 137 188 194 0 206 -17 621 0 182 32 186 11 206 200 0 0 -17 32 0 182 184 621 45
 27 33 0 0 -16 33 580 623 ?27 189 222 624 0 0 1 81 2 623 995 196 33 0 0 362 249
 0 0 16 189 584 625 ?47 171 33 202 0 0 1 30 624 691 0 33 0 202 0 +.00225 2e-4 6e
-4 123908819712629e-29 1 0 30 202 690 0 189 624 191 0 +.00145 2e-4 6e-4 1 0 0 81
 2 625 998 196 189 0 0 280 305 0 0 17 47 0 490 626 39 45 184 189 0 31 +15 490 15
1 0 39 483 0 17 626 0 490 627 47 87 31 340 0 628 -17 39 0 490 47 44 35 170 179 0
 184 -17 31 0 29 27 628 45 626 340 0 32 +17 628 0 29 31 65 87 298 295 0 0 -17 65
 0 29 628 391 63 393 388 0 298 +17 298 0 421 25 109 63 628 295 0 629 +17 25 0 42
1 123 298 69 629 10 0 424 +17 109 0 421 298 112 87 627 315 0 626 +17 629 0 477 3
93 71 63 25 10 0 0 -15 477 339 0 393 19 0 17 393 0 477 401 629 78 65 388 0 0 -17
 71 0 477 629 401 69 86 379 0 25 -17 401 0 477 71 393 84 80 372 0 0 -17 86 0 403
 367 424 84 71 379 0 400 +17 424 0 403 86 425 69 123 299 0 0 -17 400 0 398 80 37
8 84 367 364 0 401 -17 112 0 421 109 115 110 630 312 0 631 +17 627 0 490 346 626
 110 109 315 0 0 -17 346 0 490 339 627 92 631 343 0 632 +17 339 0 490 157 346 88
 632 300 0 394 +17 631 0 494 630 94 110 346 343 0 627 -17 632 0 408 633 394 92 3
39 300 0 0 -17 633 0 408 411 632 95 94 334 0 0 -17 394 0 408 632 68 88 320 294 0
 0 -17 411 0 408 410 633 98 97 331 0 0 -17 94 0 494 631 350 92 633 334 0 346 +15
 494 153 0 94 489 0 17 350 0 494 94 630 95 423 347 0 633 +17 630 0 494 350 631 1
13 112 312 0 0 -17 423 0 497 420 97 113 350 347 0 630 -15 497 155 0 97 493 0 17
 420 0 497 354 423 116 115 309 0 0 -17 97 0 497 423 354 95 411 331 0 350 +17 354
 0 497 97 420 98 419 351 0 411 +17 157 0 490 44 339 155 90 317 0 36 -17 44 0 490
 39 157 40 212 209 0 170 -17 90 0 29 320 36 88 157 317 0 339 +16 317 551 634 ?90
 340 315 337 340 340 1 81 2 634 970 196 317 0 0 353 197 0 0 80 2 196 635 636 900
0 0 0 0 0 3 6 0 0 0 FFFFFFTFFFFFFF9 1 81 2 353 969 196 351 0 0 333 634 0 0 81 2
 197 971 196 207 0 0 634 193 0 0 81 2 333 968 196 331 0 0 266 353 0 0 81 2 266 9
67 196 264 0 0 284 333 0 0 81 2 284 966 196 282 0 0 217 266 0 0 81 2 217 965 196
 215 0 0 256 284 0 0 81 2 256 964 196 254 0 0 327 217 0 0 81 2 327 963 196 325 0
 0 330 256 0 0 81 2 330 962 196 328 0 0 345 327 0 0 81 2 345 961 196 343 0 0 387
 330 0 0 81 2 387 960 196 385 0 0 230 345 0 0 81 2 230 959 196 228 0 0 311 387 0
 0 81 2 311 958 196 309 0 0 214 230 0 0 81 2 214 957 196 173 0 0 319 311 0 0 81
 2 319 956 196 294 0 0 366 214 0 0 81 2 366 955 196 364 0 0 238 319 0 0 81 2 238
 954 196 236 0 0 390 366 0 0 79 19 636 EDGE_PERM_ID_2_200317 170 0 164 166 165 4
0 39 179 0 172 +81 2 280 997 196 278 0 0 249 625 0 0 81 2 305 999 196 303 0 0 62
5 357 0 0 81 2 357 1000 196 355 0 0 305 323 0 0 81 2 323 1001 196 321 0 0 357 0
 0 0 81 2 249 996 196 247 0 0 623 280 0 0 81 2 362 994 196 360 0 0 277 623 0 0 8
1 2 277 993 196 258 0 0 342 362 0 0 81 2 342 992 196 340 0 0 374 277 0 0 81 2 37
4 991 196 372 0 0 314 342 0 0 81 2 314 990 196 312 0 0 252 374 0 0 81 2 252 989
 196 250 0 0 231 314 0 0 81 2 231 988 196 180 0 0 199 252 0 0 81 2 199 987 196 1
94 0 0 227 231 0 0 81 2 227 986 196 37 0 0 275 199 0 0 81 2 275 985 196 241 0 0
 288 227 0 0 81 2 288 984 196 286 0 0 243 275 0 0 81 2 243 983 196 240 0 0 178 2
88 0 0 81 2 178 982 196 167 0 0 297 243 0 0 81 2 297 981 196 295 0 0 292 178 0 0
 81 2 292 980 196 290 0 0 381 297 0 0 81 2 381 979 196 379 0 0 439 292 0 0 81 2
 439 978 196 359 0 0 349 381 0 0 81 2 349 977 196 347 0 0 336 439 0 0 81 2 336 9
76 196 334 0 0 269 349 0 0 81 2 269 975 196 267 0 0 370 336 0 0 81 2 370 974 196
 368 0 0 198 269 0 0 81 2 198 973 196 315 0 0 193 370 0 0 83 3 568 1 1 1 83 3 56
1 1 1 1 83 3 554 1 1 1 83 3 546 1 1 1 83 3 539 1 1 1 83 3 533 1 1 1 83 3 527 1 1
 1 83 3 519 1 1 1 50 486 490 0 446 461 484 0 +-.00225 .0016 6e-4 0 -1 0 0 0 -1 5
0 461 491 0 450 454 486 0 +-.00245 .0016 6e-4 1 271050543121376e-30 0 -271050543
121376e-30 1 0 82 1 512 1456341142 83 3 511 .203921568627451 .203921568627451 .2
03921568627451 79 14 506 SWEntUnchanged82 1 482 1453588627 82 1 476 1781334163 8
0 2 470 637 638 8044 0 0 0 0 3 5 0 0 0 FFFFTFFFTTFFFF3 2 81 2 18 351 470 6 0 0 4
69 0 639 640 84 255 6 471 BAAAAB83 3 472 -681463740374887e-34 .00070710678118655
 5e-4 84 6 639 BAAAAB83 3 640 -681463740501105e-34 .000707106781186548 5e-4 79 1
7 638 SDL/TYSA_BLEND_ID82 1 466 1457127576 82 1 458 437715094 17 289 0 449 133 4
47 134 444 286 0 441 +81 2 377 952 196 375 0 0 263 390 0 0 81 2 263 951 196 261
 0 0 246 377 0 0 81 2 246 950 196 244 0 0 338 263 0 0 81 2 338 949 196 300 0 0 2
11 246 0 0 81 2 211 948 196 209 0 0 308 338 0 0 81 2 308 947 196 306 0 0 234 211
 0 0 81 2 234 946 196 179 0 0 224 308 0 0 81 2 224 945 196 222 0 0 302 234 0 0 8
1 2 302 944 196 299 0 0 260 224 0 0 81 2 260 943 196 235 0 0 24 302 0 0 81 2 24
 942 196 10 0 0 272 260 0 0 81 2 272 941 196 270 0 0 205 24 0 0 81 2 205 940 196
 200 0 0 389 272 0 0 81 2 389 939 196 388 0 0 384 205 0 0 81 2 384 938 196 382 0
 0 190 389 0 0 81 2 190 937 196 171 0 0 220 384 0 0 81 2 220 936 196 218 0 0 0 1
90 0 0 19 17 184 0 1 0 9 5 S0 74 4 CI16 index_map_offset0 0 1 dCCZ20 15 12 0 0 5
62 18 641 642 643 644 645 13 572 323 567 2 0 0 0 0 0 0 0 0 81 2 641 705 646 1 0
 642 0 0 0 647 81 2 642 706 648 1 641 643 0 0 0 0 81 2 643 707 649 1 642 644 0 0
 0 650 81 1 644 722 651 1 643 645 0 0 652 81 2 645 748 653 1 644 13 0 0 654 0 81
 2 13 863 655 1 645 2 0 0 0 656 80 2 655 657 658 9000 0 0 0 0 3 5 0 0 0 FFTFFFFF
FFFFFF9 1 82 1 656 1 79 24 658 BODY_IN_LIGHTWEIGHT_PERM80 2 653 659 660 8004 0 0
 0 0 3 5 0 0 0 FFTFFFFFFFFFFF2 3 83 1 654 78e2 79 16 660 SDL/TYSA_DENSITY80 1 65
1 661 662 9000 1 1 1 1 1 1 1 1 0 FFTFFFFFFFFFFF1 82 1 652 87556 79 10 662 BODY_M
ATCH80 2 649 663 664 9000 0 0 0 0 3 5 0 0 0 FFTFFFFFFFFFFF9 1 82 1 650 82 79 30
 664 LAST_BODY_MODIFYING_FEATURE_ID80 2 648 665 666 9000 0 0 0 0 3 5 0 0 0 FFTFF
FFFFFFFFF9 1 79 16 666 BODY_RECIPE_200180 2 646 667 668 9000 0 0 0 0 3 5 0 0 0 F
FTFFFFFFFFFFF9 1 82 1 647 117 79 19 668 ENT_TIME_STAMP_200180 2 12 196 669 9000
 0 0 0 0 3 5 0 0 0 FFTFFFFFFFFFFF9 1 82 1 14 105 79 12 669 ATOM_ID_20011 0 
