**ABCDEFGHIJKLMNOPQRSTUVWXYZabcdefghijklmnopqrstuvwxyz**************************
**PARASOLID !"#$%&'()*+,-./:;<=>?@[\]^_`{|}~0123456789**************************
**PART1;
MC=AMD64;
MC_MODEL=AMD64 Family 23 Model 96 Stepping 1, AuthenticAMD;
MC_ID=unknown;
OS=Windows_NT;
OS_RELEASE=unknown;
FRU=Parasolid Version 31.1, build 290,  3- 9-2020;
APPL=SOLIDWORKS 2020-2020196;
SITE=;
USER=unknown;
FORMAT=text;
GUISE=transmit;
KEY=DO-41;
FILE=DO-41.x_t;
DATE=Thu Jul  7 20:37:08 2022;
**PART2;
SCH=SCH_3101290_31100;
USFLD_SIZE=0;
**PART3;
**END_OF_HEADER*****************************************************************
T51 : TRANSMIT FILE created by modeller version 310129023 SCH_3101290_31100_1300
6222 0 12 34 CCCCCCI4 mesh1006 0 I8 polyline1008 0 CCCCCCCDI5 owner1040 0 CCCCCC
I13 boundary_mesh1006 0 I17 boundary_polyline1008 0 CCCA16 index_map_offset0 0 1
 dA9 index_map82 0 A17 node_id_index_map82 0 A20 schema_embedding_map82 0 A5 chi
ld12 0 A14 lowest_node_id0 0 1 dA16 mesh_offset_data206 0 Z1 456 2 3 0 0 0 0 0 0
 1e3 1e-8 0 4 0 1 0 1 1 5 6 7 0 0 0 8 9 0 0 0 0 0 0 0 0 81 255 2 2 441 10 1 11 0
 0 0 0 12 70 11 CI9 list_type0 0 1 uI10 notransmit0 0 1 lCCCDCCDI12 finger_index
0 0 1 dI12 finger_block1012 0 CZ3 0 4 T1 0 0 11 20 1 13 13 13 255 5 48 0 1 0 14
 0 0 15 0 50 255 6 89 0 14 16 0 0 +-.0025 .0014 0 1 0 0 0 0 -1 31 255 7 93 0 17
 18 0 0 +-.0025 .0014 0 -1 0 0 0 0 1 .0013501 19 8 CCCCCCCA5 owner12 0 Z8 52 0 1
 15 0 19 V0 16 255 9 204 20 ?21 0 22 23 0 0 1 81 2 20 394 24 9 0 0 25 0 0 0 17 2
55 21 0 26 21 21 0 27 9 0 0 +16 22 137 28 ?29 9 17 30 0 0 1 31 23 252 0 9 0 31 0
 -.0025 .0014 0 -1 0 0 0 0 1 45e-5 31 31 251 0 32 23 33 0 -.00412471895819819 .0
014 0 -1 0 0 0 0 1 45e-5 16 32 215 34 ?35 36 0 31 0 0 1 31 33 250 0 36 31 37 0 -
.00595904600962829 .0001970221254091695 0 -.398511062704586 .91716352571505 0 0
 0 1 45e-5 16 36 216 38 ?39 40 32 33 0 0 1 31 37 249 0 40 33 41 0 -.006 0 0 -389
3913793330475e-31 1 0 0 0 1 45e-5 16 40 217 25 ?42 43 36 37 0 0 1 31 41 248 0 43
 37 30 0 -.006 -.002 0 -700607568412514e-30 1 0 0 0 1 45e-5 16 43 211 44 ?45 46
 40 41 0 0 1 31 30 185 0 22 41 47 0 +-.0025 .0014 0 -1 0 0 0 0 1 45e-5 31 47 184
 0 46 30 48 0 +-.00412471895819819 .0014 0 -1 0 0 0 0 1 45e-5 16 46 148 49 ?50 5
1 43 47 0 0 1 31 48 183 0 51 47 52 0 +-.00595904600962829 .0001970221254091695 0
 -.398511062704586 -.91716352571505 0 0 0 1 45e-5 16 51 149 53 ?54 55 46 48 0 0
 1 31 52 182 0 55 48 56 0 +-.006 0 0 -3893913793330475e-31 -1 0 0 0 1 45e-5 16 5
5 150 57 ?58 59 51 52 0 0 1 31 56 181 0 59 52 60 0 +-.006 -.002 0 -7006075684125
14e-30 -1 0 0 0 1 45e-5 16 59 144 61 ?62 63 55 56 0 0 1 31 60 90 0 63 56 64 0 +.
0025 .0014 0 -1 0 0 0 0 1 .00135 16 63 56 65 ?66 67 59 60 0 0 1 31 64 91 0 67 60
 18 0 +-.0015 .0014 0 -1 0 0 0 0 1 .00135 16 67 61 68 ?69 70 63 64 0 0 1 31 18 9
2 0 70 64 7 0 +-.0015 .0014 0 -1 0 0 0 0 1 .0013501 16 70 66 71 ?72 17 67 18 0 0
 1 81 2 71 383 24 70 0 0 28 57 0 0 17 72 0 73 72 72 0 74 70 0 0 +16 17 71 75 ?76
 22 70 7 0 0 1 81 2 75 389 24 17 0 0 49 61 0 0 17 76 0 77 76 76 0 78 17 0 0 +15
 255 77 78 0 76 14 0 17 78 0 79 78 78 0 76 17 0 0 -15 79 115 0 78 80 73 14 255 8
0 74 81 ?82 14 79 5 16 -0 0 82 14 19 15 73 73 0 72 80 0 81 1 81 442 83 80 84 0 0
 85 86 14 82 69 85 ?87 80 88 5 89 -0 0 87 80 19 14 14 79 90 ?80 0 91 5 6 -0 0 80
 0 19 51 255 16 88 0 80 89 6 0 --.0025 .0014 0 -1 0 0 .0013501 0 0 1 13 19 51 0
 0 0 0 0 0 8 14 50 89 87 0 82 92 16 0 +-.0015 .00275 0 -1 0 0 0 0 1 51 92 86 0 8
7 93 89 0 --.0025 .0014 0 -1 0 0 .00135 0 0 1 14 87 64 94 ?95 82 96 5 92 -0 0 95
 82 19 50 93 85 0 95 97 92 0 +.0025 .00275 0 -1 0 0 0 0 1 14 95 59 98 ?99 87 100
 5 93 -0 0 101 87 19 50 97 176 0 99 102 93 0 +-.006 -.002 0 -700607568412514e-30
 -1 0 0 0 1 14 99 154 103 ?104 95 105 5 97 +0 0 106 104 19 51 102 177 0 101 107
 97 0 +-.006 0 0 -433680868994202e-30 -1 0 45e-5 1 -433680868994202e-30 0 14 101
 169 108 ?109 110 111 5 102 +0 0 110 95 19 54 255 107 178 0 110 112 102 0 +-.005
50560437626992 0 0 0 0 1 .000494395623730077 45e-5 1 0 0 14 110 165 113 ?101 114
 115 5 107 +0 0 114 101 19 54 112 179 0 114 116 107 0 +-.00412471895819819 -6e-4
 0 0 0 1 .002 45e-5 1 0 0 14 114 161 117 ?110 104 118 5 112 +0 0 104 110 19 51 1
16 180 0 104 119 112 0 +-.0025 .0014 0 -1 -2669266994183125e-31 0 45e-5 26692669
94183125e-31 -1 0 14 104 157 120 ?114 99 121 5 116 +0 0 99 114 19 50 119 243 0 1
09 122 116 0 +.006 -.002 0 700607568412514e-30 -1 0 0 0 1 14 109 221 123 ?124 10
1 125 5 119 +0 0 0 124 19 51 122 244 0 106 126 119 0 +.006 0 0 433680868994202e-
30 -1 0 45e-5 1 433680868994202e-30 0 14 106 236 127 ?0 128 129 5 122 +0 0 128 9
9 19 54 126 245 0 128 130 122 0 +.00550560437626992 0 0 0 0 -1 .0004943956237300
77 45e-5 -1 0 0 14 128 232 131 ?106 132 133 5 126 +0 0 132 106 19 54 130 246 0 1
32 134 126 0 +.00412471895819819 -6e-4 0 0 0 -1 .002 45e-5 -1 0 0 14 132 228 135
 ?128 124 136 5 130 +0 0 124 128 19 51 134 247 0 124 0 130 0 +.0025 .0014 0 1 -2
669266994183125e-31 0 45e-5 2669266994183125e-31 1 0 14 124 224 137 ?132 109 138
 5 134 +0 0 109 132 19 81 1 137 456 83 124 139 0 135 0 140 15 138 226 0 141 124
 26 17 141 0 138 141 141 0 35 32 0 0 -15 26 227 0 21 124 0 17 35 0 142 35 35 0 1
41 32 0 0 +15 142 231 0 35 132 0 80 255 1 83 143 144 9000 1 1 1 1 1 1 1 1 0 FFFF
TFTFFFFFFF1 81 1 139 406 145 124 146 137 147 148 149 81 1 135 455 83 132 148 0 1
31 137 150 82 255 1 140 490799264 81 1 148 407 145 132 151 135 139 152 153 81 1
 131 454 83 128 152 0 127 135 154 82 1 150 491520160 81 1 152 408 145 128 155 13
1 148 156 157 81 1 127 453 83 106 156 0 123 131 158 82 1 154 491913376 81 1 156
 409 145 106 159 127 152 0 160 81 1 123 452 83 109 147 0 120 127 161 82 1 158 49
2306592 81 1 147 405 145 109 162 123 163 139 164 81 1 120 451 83 104 165 0 117 1
23 166 82 1 161 495386784 81 1 165 401 145 104 167 120 168 169 170 81 1 117 450
 83 114 169 0 113 120 171 82 1 166 229376158 81 1 169 402 145 114 172 117 165 17
3 174 81 1 113 449 83 110 173 0 108 117 175 82 1 171 230097054 81 1 173 403 145
 110 176 113 169 163 177 81 1 108 448 83 101 163 0 103 113 178 82 1 175 23049027
0 81 1 163 404 145 101 179 108 173 147 180 81 1 103 447 83 99 168 0 98 108 181 8
2 1 178 230883486 81 1 168 400 145 99 182 103 183 165 184 81 1 98 446 83 95 183
 0 94 103 185 82 1 181 233963678 81 1 183 399 145 95 186 98 187 168 188 81 1 94
 445 83 87 187 0 90 98 189 82 1 185 1398341792 81 1 187 398 145 87 190 94 191 18
3 192 81 1 90 444 83 14 193 0 85 94 194 82 1 189 1398931605 81 1 193 395 145 14
 195 90 0 84 196 81 1 85 443 83 82 191 0 81 90 197 82 1 194 1400701086 81 1 191
 397 145 82 198 85 84 187 199 82 1 197 1399521429 80 1 145 0 200 8001 0 0 0 0 3
 5 0 0 0 FFFFTFTFFFFFFF2 81 2 198 342 201 82 0 191 202 190 0 0 81 1 84 396 145 8
0 202 81 193 191 203 83 255 3 199 .203921568627451 .203921568627451 .20392156862
7451 81 2 202 340 201 80 0 84 195 198 0 0 83 3 203 1 1 1 80 2 201 204 205 9000 0
 0 0 0 3 6 0 0 0 FFFFTFFFFFFFFF9 1 81 2 195 339 201 14 0 193 0 202 0 0 79 255 14
 205 FACE_ID_2_200181 2 190 344 201 87 0 187 198 186 0 0 81 2 186 346 201 95 0 1
83 190 182 0 0 81 2 182 348 201 99 0 168 186 167 0 0 81 2 167 350 201 104 0 165
 182 172 0 0 81 2 172 352 201 114 0 169 167 176 0 0 81 2 176 354 201 110 0 173 1
72 179 0 0 81 2 179 356 201 101 0 163 176 162 0 0 81 2 162 358 201 109 0 147 179
 146 0 0 81 2 146 360 201 124 0 139 162 151 0 0 81 2 151 362 201 132 0 148 146 1
55 0 0 81 2 155 364 201 128 0 152 151 159 0 0 81 2 159 366 201 106 0 156 155 0 0
 0 79 15 200 SDL/TYSA_COLOUR83 3 196 .203921568627451 .203921568627451 .20392156
8627451 83 3 192 .203921568627451 .203921568627451 .203921568627451 83 3 188 .20
3921568627451 .203921568627451 .203921568627451 83 3 184 1 1 1 83 3 180 1 1 1 83
 3 177 1 1 1 83 3 174 1 1 1 83 3 170 1 1 1 83 3 164 1 1 1 83 3 160 1 1 1 83 3 15
7 1 1 1 83 3 153 1 1 1 83 3 149 1 1 1 79 14 144 SWEntUnchanged15 136 230 0 206 1
32 142 17 206 0 136 206 206 0 39 36 0 0 -17 39 0 207 39 39 0 206 36 0 0 +15 207
 235 0 39 128 0 15 133 234 0 208 128 207 17 208 0 133 208 208 0 42 40 0 0 -17 42
 0 209 42 42 0 208 40 0 0 +15 209 239 0 42 106 0 15 129 238 0 210 106 209 17 210
 0 129 210 210 0 45 43 0 0 -17 45 0 125 45 45 0 210 43 0 0 +15 125 223 0 45 109
 0 15 121 159 0 211 104 212 17 211 0 121 211 211 0 50 46 0 0 -15 212 160 0 29 10
4 0 17 29 0 212 29 29 0 213 22 0 0 +17 213 0 91 213 213 0 29 22 0 0 -15 91 139 0
 213 14 77 17 50 0 214 50 50 0 211 46 0 0 +15 214 164 0 50 114 0 15 118 163 0 21
5 114 214 17 215 0 118 215 215 0 54 51 0 0 -17 54 0 216 54 54 0 215 51 0 0 +15 2
16 168 0 54 110 0 15 115 167 0 217 110 216 17 217 0 115 217 217 0 58 55 0 0 -17
 58 0 218 58 58 0 217 55 0 0 +15 218 172 0 58 101 0 15 111 171 0 219 101 218 17
 219 0 111 219 219 0 62 59 0 0 -17 62 0 105 62 62 0 219 59 0 0 +15 105 156 0 62
 99 0 15 100 206 0 27 95 220 17 27 0 100 27 27 0 21 9 0 0 -15 220 118 0 221 95 0
 17 221 0 220 221 221 0 66 63 0 0 -17 66 0 222 66 66 0 221 63 0 0 +15 222 63 0 6
6 87 0 15 96 117 0 223 87 222 17 223 0 96 223 223 0 69 67 0 0 -17 69 0 224 69 69
 0 223 67 0 0 +15 224 68 0 69 82 0 15 88 116 0 74 82 224 17 74 0 88 74 74 0 72 7
0 0 0 -82 1 86 1400111253 80 2 24 225 226 9000 0 0 0 0 3 6 0 0 0 FFFFFFTFFFFFFF9
 1 81 2 49 388 24 46 0 0 44 75 0 0 81 2 61 390 24 59 0 0 75 65 0 0 81 2 65 391 2
4 63 0 0 61 53 0 0 81 2 53 392 24 51 0 0 65 25 0 0 81 2 25 393 24 40 0 0 53 20 0
 0 81 2 44 387 24 43 0 0 68 49 0 0 81 2 68 386 24 67 0 0 38 44 0 0 81 2 38 385 2
4 36 0 0 57 68 0 0 81 2 57 384 24 55 0 0 71 38 0 0 79 19 226 EDGE_PERM_ID_2_2003
81 2 28 382 24 22 0 0 34 71 0 0 81 2 34 381 24 32 0 0 0 28 0 0 19 15 47 0 1 0 8
 5 S0 74 4 CI16 index_map_offset0 0 1 dCCZ20 13 11 0 0 137 227 228 229 230 231 1
1 159 20 156 2 0 0 0 0 0 0 0 0 0 81 2 227 254 232 1 0 228 0 0 0 233 81 2 228 255
 234 1 227 229 0 0 0 0 81 2 229 261 235 1 228 230 0 0 0 236 81 1 230 273 237 1 2
29 231 0 0 238 81 2 231 290 239 1 230 11 0 0 240 0 81 2 11 336 241 1 231 2 0 0 0
 242 80 2 241 243 244 9000 0 0 0 0 3 5 0 0 0 FFTFFFFFFFFFFF9 1 82 1 242 1 79 24
 244 BODY_IN_LIGHTWEIGHT_PERM80 2 239 245 246 8004 0 0 0 0 3 5 0 0 0 FFTFFFFFFFF
FFF2 3 83 1 240 78e2 79 16 246 SDL/TYSA_DENSITY80 1 237 247 248 9000 1 1 1 1 1 1
 1 1 0 FFTFFFFFFFFFFF1 82 1 238 21273 79 10 248 BODY_MATCH80 2 235 249 250 9000
 0 0 0 0 3 5 0 0 0 FFTFFFFFFFFFFF9 1 82 1 236 81 79 30 250 LAST_BODY_MODIFYING_F
EATURE_ID80 2 234 251 252 9000 0 0 0 0 3 5 0 0 0 FFTFFFFFFFFFFF9 1 79 16 252 BOD
Y_RECIPE_200180 2 232 253 254 9000 0 0 0 0 3 5 0 0 0 FFTFFFFFFFFFFF9 1 82 1 233
 124 79 19 254 ENT_TIME_STAMP_200180 2 10 24 255 9000 0 0 0 0 3 5 0 0 0 FFTFFFFF
FFFFFF9 1 82 1 12 105 79 12 255 ATOM_ID_20011 0 
