**ABCDEFGHIJKLMNOPQRSTUVWXYZabcdefghijklmnopqrstuvwxyz**************************
**PARASOLID !"#$%&'()*+,-./:;<=>?@[\]^_`{|}~0123456789**************************
**PART1;
MC=AMD64;
MC_MODEL=Intel64 Family 6 Model 167 Stepping 1, GenuineIntel;
MC_ID=unknown;
OS=Windows_NT;
OS_RELEASE=unknown;
FRU=Parasolid Version 31.1, build 290,  3- 9-2020;
APPL=SOLIDWORKS 2020-2020196;
SITE=;
USER=unknown;
FORMAT=text;
GUISE=transmit;
KEY=L-424YDT Светодиод цилиндрический желтый;
FILE=L-424YDT Светодиод цилиндрический желтый.x_t;
DATE=Mon Jul  4 10:42:12 2022;
**PART2;
SCH=SCH_3101290_31100;
USFLD_SIZE=0;
**PART3;
**END_OF_HEADER*****************************************************************
T51 : TRANSMIT FILE created by modeller version 310129023 SCH_3101290_31100_1300
6222 0 12 34 CCCCCCI4 mesh1006 0 I8 polyline1008 0 CCCCCCCDI5 owner1040 0 CCCCCC
I13 boundary_mesh1006 0 I17 boundary_polyline1008 0 CCCA16 index_map_offset0 0 1
 dA9 index_map82 0 A17 node_id_index_map82 0 A20 schema_embedding_map82 0 A5 chi
ld12 0 A14 lowest_node_id0 0 1 dA16 mesh_offset_data206 0 Z1 1039 2 3 0 0 0 0 0
 0 1e3 1e-8 0 4 0 1 0 1 1 5 6 7 8 0 0 9 10 11 0 0 0 0 0 0 0 81 255 2 2 1020 12 1
 13 0 0 0 0 14 70 11 CI9 list_type0 0 1 uI10 notransmit0 0 1 lCCCDCCDI12 finger_
index0 0 1 dI12 finger_block1012 0 CZ3 0 4 T1 0 0 11 20 1 15 15 13 255 5 48 0 1
 0 16 0 0 17 0 50 255 6 89 0 16 18 0 0 +0 .006 0 0 -1 0 0 0 -1 30 255 7 437 0 10
 19 0 0 +-.0017 0 25e-5 1 0 0 29 255 8 433 0 11 20 0 35e-5 0 25e-5 19 8 CCCCCCCA
5 owner12 0 Z9 52 0 1 17 0 21 V0 16 255 10 435 22 ?23 0 24 7 0 0 1 18 255 11 431
 0 25 0 26 8 ?1 17 255 25 0 27 23 28 11 29 24 0 30 -18 26 427 0 23 11 31 20 ?1 1
7 23 0 27 32 25 26 30 10 0 33 +18 31 420 0 28 26 34 35 ?1 29 20 429 0 26 35 8 .0
015 0 25e-5 29 35 422 0 31 36 20 35e-5 0 -25e-5 29 36 148 0 34 37 35 -.0015 0 25
e-5 18 34 146 0 38 31 39 36 ?1 29 37 144 0 39 40 36 -35e-5 0 25e-5 18 39 142 0 4
1 34 42 37 ?1 29 40 137 0 42 43 37 -.0015 0 -25e-5 18 42 135 0 44 39 45 40 ?1 29
 43 373 0 45 46 40 -35e-5 0 -25e-5 18 45 254 0 47 42 48 43 ?1 29 46 379 0 49 50
 43 -35e-5 -2e-4 -25e-5 18 49 253 0 51 52 53 46 ?1 29 50 380 0 53 54 46 -.001 -.
0003146125374605045 -25e-5 18 53 252 0 55 49 56 50 ?1 29 54 381 0 56 57 50 -.001
 -.015 -25e-5 18 56 251 0 58 53 59 54 ?1 29 57 382 0 59 60 54 -.0015 -.015 -25e-
5 18 59 243 0 61 56 62 57 ?1 29 60 389 0 48 63 57 -35e-5 -2e-4 25e-5 18 48 248 0
 64 45 65 60 ?1 29 63 390 0 65 66 60 -.001 -.0003146125374605045 25e-5 18 65 247
 0 67 48 68 63 ?1 29 66 391 0 68 69 63 -.001 -.015 25e-5 18 68 246 0 70 65 52 66
 ?1 29 69 392 0 52 71 66 -.0015 -.015 25e-5 18 52 245 0 72 68 49 69 ?1 29 71 607
 0 62 73 69 .0015 0 -25e-5 18 62 519 0 32 59 74 71 ?1 29 73 609 0 75 76 71 .0015
 -.015 -25e-5 18 75 518 0 77 78 79 73 ?1 29 76 610 0 79 80 73 .001 -.015 -25e-5
 18 79 517 0 81 75 82 76 ?1 29 80 611 0 82 83 76 .001 -.0003146125374605045 -25e
-5 18 82 516 0 84 79 85 80 ?1 29 83 612 0 85 86 80 35e-5 -2e-4 -25e-5 18 85 507
 0 87 82 0 83 ?1 29 86 616 0 74 88 83 .0015 -.015 25e-5 18 74 512 0 89 62 90 86
 ?1 29 88 617 0 90 91 86 .001 -.015 25e-5 18 90 511 0 92 74 93 88 ?1 29 91 618 0
 93 94 88 .001 -.0003146125374605045 25e-5 18 93 510 0 95 90 78 91 ?1 29 94 619
 0 78 0 91 35e-5 -2e-4 25e-5 18 78 509 0 96 93 75 94 ?1 17 96 0 97 95 30 78 98 9
9 0 100 +15 255 97 534 0 30 101 0 17 95 0 97 92 96 93 102 103 0 104 +17 30 0 97
 96 105 11 23 10 0 98 -17 98 0 106 29 100 11 96 99 0 0 -16 99 450 107 ?96 103 10
8 109 0 0 1 17 100 0 106 98 87 78 110 111 0 102 -15 106 527 0 98 112 0 17 87 0 1
06 100 29 85 113 114 0 110 +17 110 0 115 84 102 85 100 111 0 116 +16 111 481 117
 ?110 118 119 120 0 0 1 17 102 0 115 110 104 78 95 103 0 0 -15 115 553 0 84 121
 0 17 104 0 115 102 84 93 122 119 0 123 -16 103 453 124 ?95 125 99 126 0 0 1 81
 2 124 976 127 103 0 0 128 129 0 0 16 125 456 130 ?92 131 103 132 0 0 1 30 126 6
00 0 103 109 132 0 +.001 -.0003146125374605045 25e-5 .984807753012207 -.17364817
7666934 0 30 109 601 0 99 0 126 0 +35e-5 -2e-4 25e-5 0 -1 0 30 132 599 0 125 126
 133 0 +.001 -.015 25e-5 0 -1 0 30 133 598 0 131 132 134 0 +.0015 -.015 25e-5 1
 0 0 16 131 459 135 ?89 136 125 133 0 0 1 30 134 597 0 136 133 137 0 +.0015 .000
89479618903037 25e-5 818533683294729e-31 1 0 16 136 462 138 ?105 139 131 134 0 0
 1 30 137 594 0 114 134 140 0 +35e-5 -2e-4 -25e-5 0 -1 0 16 114 442 141 ?87 142
 0 137 0 0 1 30 140 593 0 142 137 143 0 +.001 -.0003146125374605045 -25e-5 .9848
07753012207 -.173648177666934 0 16 142 478 144 ?84 145 114 140 0 0 1 30 143 592
 0 145 140 146 0 +.001 -.015 -25e-5 0 -1 0 16 145 482 147 ?81 148 142 143 0 0 1
 30 146 591 0 148 143 149 0 +.0015 -.015 -25e-5 1 0 0 16 148 486 150 ?77 108 145
 146 0 0 1 30 149 590 0 108 146 151 0 +.0015 .00089479618903037 -25e-5 818533683
294729e-31 1 0 16 108 445 152 ?153 99 148 149 0 0 1 30 151 588 0 139 149 154 0 +
.0015 -.015 25e-5 0 0 -1 16 139 449 155 ?156 157 136 151 0 0 1 30 154 587 0 157
 151 158 0 +.001 -.015 25e-5 0 0 -1 16 157 489 129 ?159 119 139 154 0 0 1 30 158
 586 0 119 154 120 0 +.001 -.0003146125374605045 25e-5 0 0 -1 16 119 485 160 ?12
2 111 157 158 0 0 1 30 120 585 0 111 158 161 0 +35e-5 -2e-4 25e-5 0 0 -1 30 161
 368 0 162 120 163 0 +-.0015 .00089479618903037 25e-5 1091378244392972e-31 -1 0
 16 162 165 164 ?72 165 166 161 0 0 1 30 163 367 0 165 161 167 0 +-.0015 -.015 2
5e-5 1 0 0 16 165 168 168 ?70 169 162 163 0 0 1 30 167 366 0 169 163 170 0 +-.00
1 -.015 25e-5 0 1 0 16 169 171 171 ?67 172 165 167 0 0 1 30 170 365 0 172 167 17
3 0 +-.001 -.0003146125374605045 25e-5 .984807753012207 .173648177666934 0 16 17
2 174 174 ?64 175 169 170 0 0 1 30 173 364 0 175 170 176 0 +-35e-5 -2e-4 25e-5 9
90323297933428e-31 1 0 16 175 177 177 ?178 179 172 173 0 0 1 30 176 358 0 118 17
3 180 0 +-.0015 .00089479618903037 -25e-5 1091378244392972e-31 -1 0 16 118 157 1
81 ?61 182 111 176 0 0 1 30 180 357 0 182 176 183 0 +-.0015 -.015 -25e-5 1 0 0 1
6 182 189 184 ?58 185 118 180 0 0 1 30 183 356 0 185 180 186 0 +-.001 -.015 -25e
-5 0 1 0 16 185 193 187 ?55 188 182 183 0 0 1 30 186 355 0 188 183 189 0 +-.001
 -.0003146125374605045 -25e-5 .984807753012207 .173648177666934 0 16 188 197 190
 ?51 166 185 186 0 0 1 30 189 354 0 166 186 191 0 +-35e-5 -2e-4 -25e-5 990323297
933428e-31 1 0 16 166 160 192 ?193 162 188 189 0 0 1 30 191 344 0 179 189 194 0
 +-35e-5 -2e-4 25e-5 0 0 -1 16 179 164 195 ?196 197 175 191 0 0 1 30 194 343 0 1
97 191 198 0 +-.001 -.0003146125374605045 25e-5 0 0 -1 16 197 200 199 ?200 201 1
79 194 0 0 1 30 198 342 0 201 194 202 0 +-.001 -.015 25e-5 0 0 -1 16 201 196 203
 ?204 205 197 198 0 0 1 30 202 341 0 205 198 206 0 +-.0015 -.015 25e-5 0 0 -1 16
 205 192 207 ?208 209 201 202 0 0 1 31 255 206 90 0 209 202 210 0 +0 0 0 0 -1 0
 0 0 -1 .0017 16 209 56 128 ?211 212 205 206 0 0 1 31 210 91 0 212 206 213 0 +0
 .0011 0 0 -1 0 0 0 -1 .0017 16 212 61 214 ?215 216 209 210 0 0 1 31 213 92 0 21
6 210 217 0 +0 .0011 0 0 -1 0 0 0 -1 .0015 16 216 66 218 ?219 220 212 213 0 0 1
 31 217 93 0 220 213 221 0 +0 .006 0 0 -1 0 0 0 -1 .0015 16 220 71 222 ?223 224
 216 217 0 0 1 30 221 141 0 224 217 225 0 +-.0017 0 -25e-5 1 0 0 16 224 139 226
 ?227 228 220 221 0 0 1 30 225 145 0 228 221 229 0 +-35e-5 0 0 0 0 1 16 228 143
 230 ?231 232 224 225 0 0 1 30 229 149 0 232 225 233 0 +-.0015 0 0 0 0 -1 16 232
 147 234 ?235 236 228 229 0 0 1 30 233 152 0 236 229 237 0 +-.0017 0 25e-5 1 0 0
 16 236 150 238 ?41 239 232 233 0 0 1 30 237 426 0 239 233 240 0 +-.0017 0 -25e-
5 1 0 0 16 239 424 241 ?242 243 236 237 0 0 1 30 240 430 0 243 237 19 0 +.0015 0
 0 0 0 1 16 243 428 244 ?33 24 239 240 0 0 1 30 19 434 0 24 240 7 0 +35e-5 0 0 0
 0 -1 16 24 432 245 ?29 10 243 19 0 0 1 81 2 245 959 127 24 0 0 190 181 0 0 17 2
9 0 106 87 98 31 25 24 0 113 +17 113 0 246 242 116 31 87 114 0 0 -15 246 537 0 1
13 247 0 17 242 0 246 248 113 62 28 239 0 153 +17 116 0 246 113 249 85 84 142 0
 0 -17 249 0 246 116 250 82 81 145 0 0 -17 84 0 115 104 110 82 116 142 0 122 +17
 122 0 251 81 123 82 104 119 0 249 +15 251 557 0 81 252 0 17 81 0 251 253 122 79
 249 145 0 159 +17 123 0 251 122 253 93 92 125 0 0 -17 253 0 251 123 81 90 159 1
57 0 254 -17 92 0 97 89 95 90 123 125 0 253 +17 89 0 97 105 92 74 254 131 0 255
 +17 105 0 97 30 89 26 256 136 0 0 +17 254 0 257 159 255 90 89 131 0 0 -17 255 0
 257 254 77 74 156 139 0 256 -15 257 561 0 77 258 0 17 77 0 257 255 159 75 250 1
48 0 156 +17 156 0 259 153 256 75 255 139 0 248 +17 256 0 259 156 33 74 105 136
 0 0 -15 259 531 0 153 260 0 17 33 0 259 256 153 26 32 243 0 105 +17 153 0 259 3
3 156 62 248 108 0 0 +17 32 0 27 28 23 62 33 243 0 242 -15 27 421 0 25 261 262 1
7 28 0 27 25 32 31 242 239 0 29 -14 255 261 59 263 ?264 265 27 5 266 -0 0 264 26
5 21 15 262 136 0 38 261 267 17 38 0 262 41 44 34 235 232 0 268 -15 267 58 0 211
 261 0 17 211 0 267 211 211 0 269 209 0 0 +17 269 0 270 269 269 0 211 209 0 0 -1
5 270 115 0 269 265 271 14 265 64 272 ?261 273 270 5 274 -0 0 261 273 21 15 271
 63 0 215 265 0 17 215 0 271 215 215 0 275 212 0 0 +17 275 0 276 275 275 0 215 2
12 0 0 -15 276 116 0 275 273 277 14 273 69 278 ?265 279 276 5 280 -0 0 265 279 2
1 15 277 68 0 219 273 0 17 219 0 277 219 219 0 281 216 0 0 +17 281 0 282 281 281
 0 219 216 0 0 -15 282 117 0 281 279 283 14 279 74 284 ?273 16 282 5 18 -0 0 273
 16 21 15 283 73 0 223 279 0 17 223 0 283 223 223 0 285 220 0 0 +17 285 0 286 28
5 285 0 223 220 0 0 -15 286 118 0 285 16 0 14 16 79 287 ?279 0 286 5 6 -0 0 279
 0 21 81 1 287 1025 288 16 289 0 284 290 291 13 21 51 0 0 0 0 0 0 9 16 80 255 1
 288 292 293 9000 1 1 1 1 1 1 1 1 0 FFFFTFTFFFFFFF1 81 2 289 885 294 16 295 287
 0 296 0 0 81 1 284 1024 288 279 296 0 278 287 297 81 1 290 1026 288 264 298 0 2
87 299 300 82 255 1 291 534904998 14 264 266 290 ?301 261 302 5 303 -0 0 301 261
 21 81 2 298 895 294 264 304 290 305 306 0 0 81 1 299 1027 288 301 306 0 290 307
 308 82 1 300 628490408 14 301 270 299 ?309 264 310 5 311 -0 0 309 264 21 81 2 3
06 897 294 301 312 299 298 313 0 0 81 1 307 1028 288 309 313 0 299 314 315 82 1
 308 628031656 14 309 274 307 ?316 301 317 5 318 +0 0 316 301 21 81 2 313 899 29
4 309 319 307 306 320 0 0 81 1 314 1029 288 316 320 0 307 321 322 82 1 315 62763
8440 14 316 277 314 ?323 309 324 5 325 -0 0 323 309 21 81 2 320 901 294 316 326
 314 313 327 0 0 81 1 321 1030 288 323 327 0 314 328 329 82 1 322 626327720 14 3
23 288 321 ?330 316 331 5 332 -0 0 330 316 21 81 2 327 903 294 323 333 321 320 3
34 0 0 81 1 328 1031 288 330 334 0 321 335 336 82 1 329 597229736 14 330 292 328
 ?337 323 338 5 339 -0 0 337 323 21 81 2 334 905 294 330 340 328 327 341 0 0 81
 1 335 1032 288 337 341 0 328 342 343 82 1 336 596967592 14 337 296 335 ?112 330
 344 5 345 -0 0 112 330 21 81 2 341 907 294 337 346 335 334 347 0 0 81 1 342 103
3 288 112 347 0 335 348 349 82 1 343 596705448 14 112 524 342 ?260 337 106 5 350
 -0 0 260 337 21 81 2 347 909 294 112 351 342 341 352 0 0 81 1 348 1034 288 260
 352 0 342 353 354 82 1 349 636747944 14 260 528 348 ?101 112 259 5 355 -0 0 101
 112 21 81 2 352 911 294 260 356 348 347 357 0 0 81 1 353 1035 288 101 357 0 348
 358 359 82 1 354 636289192 14 101 532 353 ?247 260 97 5 360 +0 0 247 260 21 81
 2 357 913 294 101 361 353 352 362 0 0 81 1 358 1036 288 247 362 0 353 363 364 8
2 1 359 635895976 14 247 535 358 ?121 101 246 5 365 -0 0 121 101 21 81 2 362 915
 294 247 366 358 357 367 0 0 81 1 363 1037 288 121 367 0 358 368 369 82 1 364 63
4585256 14 121 550 363 ?252 247 115 5 370 -0 0 252 247 21 81 2 367 917 294 121 3
71 363 362 372 0 0 81 1 368 1038 288 252 372 0 363 373 374 82 1 369 616562856 14
 252 554 368 ?258 121 251 5 375 -0 0 258 121 21 81 2 372 919 294 252 376 368 367
 377 0 0 81 1 373 1039 288 258 377 0 368 0 378 82 1 374 616300712 14 258 558 373
 ?0 252 257 5 379 -0 0 0 252 21 81 2 377 921 294 258 380 373 372 0 0 0 82 1 378
 616038568 80 2 294 381 382 9000 0 0 0 0 3 6 0 0 0 FFFFTFFFFFFFFF9 1 81 1 380 80
1 383 258 0 377 376 0 384 80 1 383 0 385 8001 0 0 0 0 3 5 0 0 0 FFFFTFTFFFFFFF2
 81 1 376 800 383 252 0 372 371 380 386 83 255 3 384 1 1 1 81 1 371 799 383 121
 0 367 366 376 387 83 3 386 1 1 1 81 1 366 798 383 247 0 362 361 371 388 83 3 38
7 1 1 1 81 1 361 797 383 101 0 357 356 366 389 83 3 388 1 1 1 81 1 356 796 383 2
60 0 352 351 361 390 83 3 389 1 1 1 81 1 351 795 383 112 0 347 346 356 391 83 3
 390 1 1 1 81 1 346 794 383 337 0 341 340 351 392 83 3 391 1 1 1 81 1 340 793 38
3 330 0 334 333 346 393 83 3 392 1 1 1 81 1 333 792 383 323 0 327 326 340 394 83
 3 393 1 1 1 81 1 326 791 383 316 0 320 319 333 395 83 3 394 1 1 1 81 1 319 790
 383 309 0 313 312 326 396 83 3 395 1 1 1 81 1 312 789 383 301 0 306 304 319 397
 83 3 396 1 1 1 81 1 304 788 383 264 0 298 398 312 399 83 3 397 1 1 1 81 1 398 7
87 383 261 0 305 400 304 401 83 3 399 1 1 1 81 2 305 893 294 261 398 263 402 298
 0 0 81 1 400 786 383 265 0 402 403 398 404 83 3 401 .247058823529412 1 .3058823
529411765 81 2 402 891 294 265 400 272 405 305 0 0 81 1 403 785 383 273 0 405 40
6 400 407 83 3 404 .247058823529412 1 .3058823529411765 81 2 405 889 294 273 403
 278 296 402 0 0 81 1 406 784 383 279 0 296 295 403 408 83 3 407 .24705882352941
2 1 .3058823529411765 81 2 296 887 294 279 406 284 289 405 0 0 81 1 295 783 383
 16 0 289 0 406 409 83 3 408 .247058823529412 1 .3058823529411765 83 3 409 .2470
58823529412 1 .3058823529411765 81 1 278 1023 288 273 405 0 272 284 410 81 1 272
 1022 288 265 402 0 263 278 411 82 1 410 533725350 81 1 263 1021 288 261 305 0 0
 272 412 82 1 411 533135526 82 1 412 532545704 79 255 15 385 SDL/TYSA_COLOUR79 1
4 382 FACE_ID_2_200150 379 579 0 258 355 375 0 +.0015 -.015 25e-5 0 1 0 0 0 1 50
 355 580 0 260 365 379 0 +.0015 .00089479618903037 25e-5 -1 818533683294729e-31
 0 -818533683294729e-31 -1 0 50 375 578 0 252 379 370 0 +.001 -.015 25e-5 1 0 0
 0 0 -1 50 370 577 0 121 375 350 0 +.001 -.0003146125374605045 25e-5 .1736481776
66934 .984807753012207 0 -.984807753012208 .173648177666934 0 50 350 576 0 112 3
70 318 0 +35e-5 -2e-4 25e-5 1 0 0 0 0 -1 50 318 339 0 309 350 325 0 +0 0 25e-5 0
 0 1 1 0 0 50 325 338 0 316 318 311 0 +0 0 -25e-5 0 0 1 1 0 0 50 311 333 0 301 3
25 345 0 +-35e-5 -2e-4 25e-5 -1 990323297933428e-31 0 -990323297933428e-31 -1 0
 50 345 332 0 337 311 339 0 +-.001 -.0003146125374605045 25e-5 -.173648177666934
 .984807753012207 0 -.984807753012208 -.173648177666934 0 50 339 331 0 330 345 3
32 0 +-.001 -.015 25e-5 -1 0 0 0 0 1 50 332 330 0 323 339 303 0 +-.0015 -.015 25
e-5 0 1 0 0 0 1 50 303 329 0 264 332 266 0 +-.0015 .00089479618903037 25e-5 1 10
91378244392972e-31 0 -1091378244392972e-31 1 0 50 266 85 0 261 303 274 0 +-.0017
 0 0 0 1 0 0 0 1 51 255 274 86 0 265 266 280 0 -0 0 0 0 -1 0 .0017 0 0 -1 50 280
 87 0 273 274 18 0 +-.0015 .0011 0 0 -1 0 0 0 -1 51 18 88 0 279 280 6 0 -0 0 0 0
 -1 0 .0015 0 0 -1 50 365 581 0 247 360 355 0 +0 0 -25e-5 0 0 1 1 0 0 50 360 582
 0 101 0 365 0 +0 0 25e-5 0 0 1 1 0 0 15 344 299 0 51 337 0 17 51 0 344 413 200
 49 414 188 0 196 +17 413 0 344 415 51 48 196 179 0 416 -17 200 0 344 51 415 53
 417 197 0 414 +17 414 0 324 418 419 53 51 188 0 0 -17 196 0 310 193 416 49 413
 179 0 419 +15 310 273 0 193 301 0 17 193 0 310 231 196 45 419 166 0 0 +17 416 0
 310 196 231 48 178 175 0 0 -17 419 0 324 414 227 49 193 166 0 0 -15 324 279 0 4
20 316 0 17 227 0 324 419 420 45 44 224 0 193 +17 420 0 324 227 421 42 61 118 0
 0 -17 44 0 262 38 47 42 227 224 0 235 -17 47 0 262 44 41 45 231 228 0 227 -17 2
35 0 302 61 422 42 38 232 0 420 +15 302 269 0 422 264 0 17 61 0 302 423 235 59 4
20 118 0 208 +17 422 0 302 235 423 34 72 162 0 0 -17 423 0 302 422 61 52 208 205
 0 424 -17 72 0 317 70 268 52 422 162 0 423 +15 317 276 0 268 309 0 17 70 0 317
 67 72 68 424 165 0 425 +17 268 0 317 72 178 34 41 236 0 422 -17 178 0 317 268 6
4 39 416 175 0 0 +17 41 0 262 47 38 39 268 236 0 231 +17 231 0 310 416 193 39 47
 228 0 178 +17 64 0 317 178 67 48 415 172 0 413 +17 67 0 317 64 70 65 426 169 0
 417 +17 415 0 344 200 413 65 64 172 0 0 -17 426 0 338 204 417 68 67 169 0 0 -17
 417 0 338 426 55 65 200 197 0 415 -15 338 295 0 55 330 0 17 55 0 338 417 204 53
 418 185 0 200 +17 204 0 338 55 426 56 425 201 0 418 +17 418 0 324 421 414 56 55
 185 0 0 -17 421 0 324 420 418 59 58 182 0 0 -17 58 0 331 425 208 56 421 182 0 2
04 +15 331 291 0 58 323 0 17 425 0 331 424 58 68 204 201 0 426 -17 208 0 331 58
 424 59 423 205 0 421 +17 424 0 331 208 425 52 70 165 0 0 -82 1 297 534315174 79
 14 293 SWEntUnchanged17 248 0 246 250 242 75 153 108 0 0 -17 250 0 246 249 248
 79 77 148 0 0 -17 159 0 257 77 254 79 253 157 0 250 +80 2 127 427 428 9000 0 0
 0 0 3 6 0 0 0 FFFFFFTFFFFFFF9 1 81 2 190 958 127 188 0 0 141 245 0 0 81 2 181 9
60 127 118 0 0 245 244 0 0 81 2 244 961 127 243 0 0 181 222 0 0 81 2 222 962 127
 220 0 0 244 184 0 0 81 2 184 963 127 182 0 0 222 207 0 0 81 2 207 964 127 205 0
 0 184 230 0 0 81 2 230 965 127 228 0 0 207 150 0 0 81 2 150 966 127 148 0 0 230
 152 0 0 81 2 152 967 127 108 0 0 150 203 0 0 81 2 203 968 127 201 0 0 152 171 0
 0 81 2 171 969 127 169 0 0 203 135 0 0 81 2 135 970 127 131 0 0 171 168 0 0 81
 2 168 971 127 165 0 0 135 144 0 0 81 2 144 972 127 142 0 0 168 164 0 0 81 2 164
 973 127 162 0 0 144 234 0 0 81 2 234 974 127 232 0 0 164 128 0 0 81 2 128 975 1
27 209 0 0 234 124 0 0 81 2 141 957 127 114 0 0 147 190 0 0 81 2 147 956 127 145
 0 0 107 141 0 0 81 2 107 955 127 99 0 0 226 147 0 0 81 2 226 954 127 224 0 0 11
7 107 0 0 81 2 117 953 127 111 0 0 218 226 0 0 81 2 218 952 127 216 0 0 241 117
 0 0 81 2 241 951 127 239 0 0 187 218 0 0 81 2 187 950 127 185 0 0 199 241 0 0 8
1 2 199 949 127 197 0 0 22 187 0 0 81 2 22 948 127 10 0 0 174 199 0 0 81 2 174 9
47 127 172 0 0 138 22 0 0 81 2 138 946 127 136 0 0 155 174 0 0 81 2 155 945 127
 139 0 0 214 138 0 0 81 2 214 944 127 212 0 0 238 155 0 0 81 2 238 943 127 236 0
 0 192 214 0 0 81 2 192 942 127 166 0 0 195 238 0 0 81 2 195 941 127 179 0 0 0 1
92 0 0 79 19 428 EDGE_PERM_ID_2_200381 2 177 980 127 175 0 0 160 0 0 0 81 2 160
 979 127 119 0 0 130 177 0 0 81 2 130 978 127 125 0 0 129 160 0 0 81 2 129 977 1
27 157 0 0 124 130 0 0 19 17 47 0 1 0 9 5 S0 74 4 CI16 index_map_offset0 0 1 dCC
Z20 15 11 0 0 373 429 430 431 432 433 380 13 377 177 2 0 0 0 0 0 0 0 0 0 81 2 42
9 648 434 1 0 430 0 0 0 435 81 2 430 664 436 1 429 431 0 0 0 437 81 1 431 680 43
8 1 430 432 0 0 439 81 2 432 703 440 1 431 433 0 0 441 0 81 2 433 782 442 1 432
 13 0 0 0 443 81 2 13 802 444 1 433 2 0 0 0 0 80 2 444 445 446 9000 0 0 0 0 3 5
 0 0 0 FFTFFFFFFFFFFF9 1 79 16 446 BODY_RECIPE_200180 2 442 447 448 9000 0 0 0 0
 3 5 0 0 0 FFTFFFFFFFFFFF9 1 82 1 443 1 79 24 448 BODY_IN_LIGHTWEIGHT_PERM80 2 4
40 449 450 8004 0 0 0 0 3 5 0 0 0 FFTFFFFFFFFFFF2 3 83 1 441 1 79 16 450 SDL/TYS
A_DENSITY80 1 438 451 452 9000 1 1 1 1 1 1 1 1 0 FFTFFFFFFFFFFF1 82 1 439 8062 7
9 10 452 BODY_MATCH80 2 436 453 454 9000 0 0 0 0 3 5 0 0 0 FFTFFFFFFFFFFF9 1 82
 1 437 84 79 30 454 LAST_BODY_MODIFYING_FEATURE_ID80 2 434 455 456 9000 0 0 0 0
 3 5 0 0 0 FFTFFFFFFFFFFF9 1 82 1 435 123 79 19 456 ENT_TIME_STAMP_200180 2 12 1
27 457 9000 0 0 0 0 3 5 0 0 0 FFTFFFFFFFFFFF9 1 82 1 14 104 79 12 457 ATOM_ID_20
011 0 
