**ABCDEFGHIJKLMNOPQRSTUVWXYZabcdefghijklmnopqrstuvwxyz**************************
**PARASOLID !"#$%&'()*+,-./:;<=>?@[\]^_`{|}~0123456789**************************
**PART1;
MC=AMD64;
MC_MODEL=Intel64 Family 6 Model 167 Stepping 1, GenuineIntel;
MC_ID=unknown;
OS=Windows_NT;
OS_RELEASE=unknown;
FRU=Parasolid Version 31.1, build 290,  3- 9-2020;
APPL=SOLIDWORKS 2020-2020196;
SITE=;
USER=unknown;
FORMAT=text;
GUISE=transmit;
KEY=L-424YDT Светодиод цилиндрический красный;
FILE=L-424YDT Светодиод цилиндрический красный.x_t;
DATE=Mon Jul  4 10:42:55 2022;
**PART2;
SCH=SCH_3101290_31100;
USFLD_SIZE=0;
**PART3;
**END_OF_HEADER*****************************************************************
T51 : TRANSMIT FILE created by modeller version 310129023 SCH_3101290_31100_1300
6222 0 12 34 CCCCCCI4 mesh1006 0 I8 polyline1008 0 CCCCCCCDI5 owner1040 0 CCCCCC
I13 boundary_mesh1006 0 I17 boundary_polyline1008 0 CCCA16 index_map_offset0 0 1
 dA9 index_map82 0 A17 node_id_index_map82 0 A20 schema_embedding_map82 0 A5 chi
ld12 0 A14 lowest_node_id0 0 1 dA16 mesh_offset_data206 0 Z1 1155 2 3 0 0 0 0 0
 0 1e3 1e-8 0 4 0 1 0 1 1 5 6 7 8 0 0 9 10 11 0 0 0 0 0 0 0 81 255 2 2 1136 12 1
 13 0 0 0 0 14 70 11 CI9 list_type0 0 1 uI10 notransmit0 0 1 lCCCDCCDI12 finger_
index0 0 1 dI12 finger_block1012 0 CZ3 0 4 T1 0 0 11 20 1 15 15 13 255 5 48 0 1
 0 16 0 0 17 0 50 255 6 89 0 16 18 0 0 +0 .006 0 0 -1 0 0 0 -1 30 255 7 437 0 10
 19 0 0 +-.0017 0 25e-5 1 0 0 29 255 8 433 0 11 20 0 35e-5 0 25e-5 19 8 CCCCCCCA
5 owner12 0 Z9 52 0 1 17 0 21 V0 16 255 10 435 22 ?23 0 24 7 0 0 1 18 255 11 431
 0 25 0 26 8 ?1 17 255 25 0 27 23 28 11 29 24 0 30 -18 26 427 0 23 11 31 20 ?1 1
7 23 0 27 32 25 26 30 10 0 33 +18 31 420 0 28 26 34 35 ?1 29 20 429 0 26 35 8 .0
015 0 25e-5 29 35 422 0 31 36 20 35e-5 0 -25e-5 29 36 148 0 34 37 35 -.0015 0 25
e-5 18 34 146 0 38 31 39 36 ?1 29 37 144 0 39 40 36 -35e-5 0 25e-5 18 39 142 0 4
1 34 42 37 ?1 29 40 137 0 42 43 37 -.0015 0 -25e-5 18 42 135 0 44 39 45 40 ?1 29
 43 373 0 45 46 40 -35e-5 0 -25e-5 18 45 254 0 47 42 48 43 ?1 29 46 379 0 49 50
 43 -35e-5 -2e-4 -25e-5 18 49 253 0 51 52 53 46 ?1 29 50 380 0 53 54 46 -.001 -.
0003146125374605045 -25e-5 18 53 252 0 55 49 56 50 ?1 29 54 381 0 56 57 50 -.001
 -.015 -25e-5 18 56 251 0 58 53 59 54 ?1 29 57 382 0 59 60 54 -.0015 -.015 -25e-
5 18 59 243 0 61 56 62 57 ?1 29 60 389 0 48 63 57 -35e-5 -2e-4 25e-5 18 48 248 0
 64 45 65 60 ?1 29 63 390 0 65 66 60 -.001 -.0003146125374605045 25e-5 18 65 247
 0 67 48 68 63 ?1 29 66 391 0 68 69 63 -.001 -.015 25e-5 18 68 246 0 70 65 52 66
 ?1 29 69 392 0 52 71 66 -.0015 -.015 25e-5 18 52 245 0 72 68 49 69 ?1 29 71 607
 0 62 73 69 .0015 0 -25e-5 18 62 519 0 32 59 74 71 ?1 29 73 609 0 75 76 71 .0015
 -.015 -25e-5 18 75 518 0 77 78 79 73 ?1 29 76 610 0 79 80 73 .001 -.015 -25e-5
 18 79 517 0 81 75 82 76 ?1 29 80 611 0 82 83 76 .001 -.0003146125374605045 -25e
-5 18 82 516 0 84 79 85 80 ?1 29 83 612 0 85 86 80 35e-5 -2e-4 -25e-5 18 85 507
 0 87 82 0 83 ?1 29 86 616 0 74 88 83 .0015 -.015 25e-5 18 74 512 0 89 62 90 86
 ?1 29 88 617 0 90 91 86 .001 -.015 25e-5 18 90 511 0 92 74 93 88 ?1 29 91 618 0
 93 94 88 .001 -.0003146125374605045 25e-5 18 93 510 0 95 90 78 91 ?1 29 94 619
 0 78 0 91 35e-5 -2e-4 25e-5 18 78 509 0 96 93 75 94 ?1 17 96 0 97 95 30 78 98 9
9 0 100 +15 255 97 534 0 30 101 0 17 95 0 97 92 96 93 102 103 0 104 +17 30 0 97
 96 105 11 23 10 0 98 -17 98 0 106 29 100 11 96 99 0 0 -16 99 450 107 ?96 103 10
8 109 0 0 1 17 100 0 106 98 87 78 110 111 0 102 -15 106 527 0 98 112 0 17 87 0 1
06 100 29 85 113 114 0 110 +17 110 0 115 84 102 85 100 111 0 116 +16 111 481 117
 ?110 118 119 120 0 0 1 17 102 0 115 110 104 78 95 103 0 0 -15 115 553 0 84 121
 0 17 104 0 115 102 84 93 122 119 0 123 -16 103 453 124 ?95 125 99 126 0 0 1 81
 2 124 1073 127 103 0 0 128 129 0 0 16 125 456 130 ?92 131 103 132 0 0 1 30 126
 600 0 103 109 132 0 +.001 -.0003146125374605045 25e-5 .984807753012207 -.173648
177666934 0 30 109 601 0 99 0 126 0 +35e-5 -2e-4 25e-5 0 -1 0 30 132 599 0 125 1
26 133 0 +.001 -.015 25e-5 0 -1 0 30 133 598 0 131 132 134 0 +.0015 -.015 25e-5
 1 0 0 16 131 459 135 ?89 136 125 133 0 0 1 30 134 597 0 136 133 137 0 +.0015 .0
0089479618903037 25e-5 818533683294729e-31 1 0 16 136 462 138 ?105 139 131 134 0
 0 1 30 137 594 0 114 134 140 0 +35e-5 -2e-4 -25e-5 0 -1 0 16 114 442 141 ?87 14
2 0 137 0 0 1 30 140 593 0 142 137 143 0 +.001 -.0003146125374605045 -25e-5 .984
807753012207 -.173648177666934 0 16 142 478 144 ?84 145 114 140 0 0 1 30 143 592
 0 145 140 146 0 +.001 -.015 -25e-5 0 -1 0 16 145 482 147 ?81 148 142 143 0 0 1
 30 146 591 0 148 143 149 0 +.0015 -.015 -25e-5 1 0 0 16 148 486 150 ?77 108 145
 146 0 0 1 30 149 590 0 108 146 151 0 +.0015 .00089479618903037 -25e-5 818533683
294729e-31 1 0 16 108 445 152 ?153 99 148 149 0 0 1 30 151 588 0 139 149 154 0 +
.0015 -.015 25e-5 0 0 -1 16 139 449 155 ?156 157 136 151 0 0 1 30 154 587 0 157
 151 158 0 +.001 -.015 25e-5 0 0 -1 16 157 489 129 ?159 119 139 154 0 0 1 30 158
 586 0 119 154 120 0 +.001 -.0003146125374605045 25e-5 0 0 -1 16 119 485 160 ?12
2 111 157 158 0 0 1 30 120 585 0 111 158 161 0 +35e-5 -2e-4 25e-5 0 0 -1 30 161
 368 0 162 120 163 0 +-.0015 .00089479618903037 25e-5 1091378244392972e-31 -1 0
 16 162 165 164 ?72 165 166 161 0 0 1 30 163 367 0 165 161 167 0 +-.0015 -.015 2
5e-5 1 0 0 16 165 168 168 ?70 169 162 163 0 0 1 30 167 366 0 169 163 170 0 +-.00
1 -.015 25e-5 0 1 0 16 169 171 171 ?67 172 165 167 0 0 1 30 170 365 0 172 167 17
3 0 +-.001 -.0003146125374605045 25e-5 .984807753012207 .173648177666934 0 16 17
2 174 174 ?64 175 169 170 0 0 1 30 173 364 0 175 170 176 0 +-35e-5 -2e-4 25e-5 9
90323297933428e-31 1 0 16 175 177 177 ?178 179 172 173 0 0 1 30 176 358 0 118 17
3 180 0 +-.0015 .00089479618903037 -25e-5 1091378244392972e-31 -1 0 16 118 157 1
81 ?61 182 111 176 0 0 1 30 180 357 0 182 176 183 0 +-.0015 -.015 -25e-5 1 0 0 1
6 182 189 184 ?58 185 118 180 0 0 1 30 183 356 0 185 180 186 0 +-.001 -.015 -25e
-5 0 1 0 16 185 193 187 ?55 188 182 183 0 0 1 30 186 355 0 188 183 189 0 +-.001
 -.0003146125374605045 -25e-5 .984807753012207 .173648177666934 0 16 188 197 190
 ?51 166 185 186 0 0 1 30 189 354 0 166 186 191 0 +-35e-5 -2e-4 -25e-5 990323297
933428e-31 1 0 16 166 160 192 ?193 162 188 189 0 0 1 30 191 344 0 179 189 194 0
 +-35e-5 -2e-4 25e-5 0 0 -1 16 179 164 195 ?196 197 175 191 0 0 1 30 194 343 0 1
97 191 198 0 +-.001 -.0003146125374605045 25e-5 0 0 -1 16 197 200 199 ?200 201 1
79 194 0 0 1 30 198 342 0 201 194 202 0 +-.001 -.015 25e-5 0 0 -1 16 201 196 203
 ?204 205 197 198 0 0 1 30 202 341 0 205 198 206 0 +-.0015 -.015 25e-5 0 0 -1 16
 205 192 207 ?208 209 201 202 0 0 1 31 255 206 90 0 209 202 210 0 +0 0 0 0 -1 0
 0 0 -1 .0017 16 209 56 128 ?211 212 205 206 0 0 1 31 210 91 0 212 206 213 0 +0
 .0011 0 0 -1 0 0 0 -1 .0017 16 212 61 214 ?215 216 209 210 0 0 1 31 213 92 0 21
6 210 217 0 +0 .0011 0 0 -1 0 0 0 -1 .0015 16 216 66 218 ?219 220 212 213 0 0 1
 31 217 93 0 220 213 221 0 +0 .006 0 0 -1 0 0 0 -1 .0015 16 220 71 222 ?223 224
 216 217 0 0 1 30 221 141 0 224 217 225 0 +-.0017 0 -25e-5 1 0 0 16 224 139 226
 ?227 228 220 221 0 0 1 30 225 145 0 228 221 229 0 +-35e-5 0 0 0 0 1 16 228 143
 230 ?231 232 224 225 0 0 1 30 229 149 0 232 225 233 0 +-.0015 0 0 0 0 -1 16 232
 147 234 ?235 236 228 229 0 0 1 30 233 152 0 236 229 237 0 +-.0017 0 25e-5 1 0 0
 16 236 150 238 ?41 239 232 233 0 0 1 30 237 426 0 239 233 240 0 +-.0017 0 -25e-
5 1 0 0 16 239 424 241 ?242 243 236 237 0 0 1 30 240 430 0 243 237 19 0 +.0015 0
 0 0 0 1 16 243 428 244 ?33 24 239 240 0 0 1 30 19 434 0 24 240 7 0 +35e-5 0 0 0
 0 -1 16 24 432 245 ?29 10 243 19 0 0 1 81 2 245 1056 127 24 0 0 190 181 0 0 17
 29 0 106 87 98 31 25 24 0 113 +17 113 0 246 242 116 31 87 114 0 0 -15 246 537 0
 113 247 0 17 242 0 246 248 113 62 28 239 0 153 +17 116 0 246 113 249 85 84 142
 0 0 -17 249 0 246 116 250 82 81 145 0 0 -17 84 0 115 104 110 82 116 142 0 122 +
17 122 0 251 81 123 82 104 119 0 249 +15 251 557 0 81 252 0 17 81 0 251 253 122
 79 249 145 0 159 +17 123 0 251 122 253 93 92 125 0 0 -17 253 0 251 123 81 90 15
9 157 0 254 -17 92 0 97 89 95 90 123 125 0 253 +17 89 0 97 105 92 74 254 131 0 2
55 +17 105 0 97 30 89 26 256 136 0 0 +17 254 0 257 159 255 90 89 131 0 0 -17 255
 0 257 254 77 74 156 139 0 256 -15 257 561 0 77 258 0 17 77 0 257 255 159 75 250
 148 0 156 +17 156 0 259 153 256 75 255 139 0 248 +17 256 0 259 156 33 74 105 13
6 0 0 -15 259 531 0 153 260 0 17 33 0 259 256 153 26 32 243 0 105 +17 153 0 259
 33 156 62 248 108 0 0 +17 32 0 27 28 23 62 33 243 0 242 -15 27 421 0 25 261 262
 17 28 0 27 25 32 31 242 239 0 29 -14 255 261 59 263 ?264 265 27 5 266 -0 0 264
 265 21 15 262 136 0 38 261 267 17 38 0 262 41 44 34 235 232 0 268 -15 267 58 0
 211 261 0 17 211 0 267 211 211 0 269 209 0 0 +17 269 0 270 269 269 0 211 209 0
 0 -15 270 115 0 269 265 271 14 265 64 272 ?261 273 270 5 274 -0 0 261 273 21 15
 271 63 0 215 265 0 17 215 0 271 215 215 0 275 212 0 0 +17 275 0 276 275 275 0 2
15 212 0 0 -15 276 116 0 275 273 277 14 273 69 278 ?265 279 276 5 280 -0 0 265 2
79 21 15 277 68 0 219 273 0 17 219 0 277 219 219 0 281 216 0 0 +17 281 0 282 281
 281 0 219 216 0 0 -15 282 117 0 281 279 283 14 279 74 284 ?273 16 282 5 18 -0 0
 273 16 21 15 283 73 0 223 279 0 17 223 0 283 223 223 0 285 220 0 0 +17 285 0 28
6 285 285 0 223 220 0 0 -15 286 118 0 285 16 0 14 16 79 287 ?279 0 286 5 6 -0 0
 279 0 21 81 1 287 1141 288 16 289 0 284 290 291 13 21 51 0 0 0 0 0 0 9 16 80 25
5 1 288 292 293 9000 1 1 1 1 1 1 1 1 0 FFFFTFTFFFFFFF1 81 1 289 1078 294 16 295
 287 0 296 297 81 1 284 1140 288 279 296 0 278 287 298 81 1 290 1142 288 264 299
 0 287 300 301 82 255 1 291 534904998 14 264 266 290 ?302 261 303 5 304 -0 0 302
 261 21 81 1 299 1083 294 264 305 290 306 307 308 81 1 300 1143 288 302 307 0 29
0 309 310 82 1 301 628490408 14 302 270 300 ?311 264 312 5 313 -0 0 311 264 21 8
1 1 307 1084 294 302 314 300 299 315 316 81 1 309 1144 288 311 315 0 300 317 318
 82 1 310 628031656 14 311 274 309 ?319 302 320 5 321 +0 0 319 302 21 81 1 315 1
085 294 311 322 309 307 323 324 81 1 317 1145 288 319 323 0 309 325 326 82 1 318
 627638440 14 319 277 317 ?327 311 328 5 329 -0 0 327 311 21 81 1 323 1086 294 3
19 330 317 315 331 332 81 1 325 1146 288 327 331 0 317 333 334 82 1 326 62632772
0 14 327 288 325 ?335 319 336 5 337 -0 0 335 319 21 81 1 331 1087 294 327 338 32
5 323 339 340 81 1 333 1147 288 335 339 0 325 341 342 82 1 334 597229736 14 335
 292 333 ?343 327 344 5 345 -0 0 343 327 21 81 1 339 1088 294 335 346 333 331 34
7 348 81 1 341 1148 288 343 347 0 333 349 350 82 1 342 596967592 14 343 296 341
 ?112 335 351 5 352 -0 0 112 335 21 81 1 347 1089 294 343 353 341 339 354 355 81
 1 349 1149 288 112 354 0 341 356 357 82 1 350 596705448 14 112 524 349 ?260 343
 106 5 358 -0 0 260 343 21 81 1 354 1090 294 112 359 349 347 360 361 81 1 356 11
50 288 260 360 0 349 362 363 82 1 357 636747944 14 260 528 356 ?101 112 259 5 36
4 -0 0 101 112 21 81 1 360 1091 294 260 365 356 354 366 367 81 1 362 1151 288 10
1 366 0 356 368 369 82 1 363 636289192 14 101 532 362 ?247 260 97 5 370 +0 0 247
 260 21 81 1 366 1092 294 101 371 362 360 372 373 81 1 368 1152 288 247 372 0 36
2 374 375 82 1 369 635895976 14 247 535 368 ?121 101 246 5 376 -0 0 121 101 21 8
1 1 372 1093 294 247 377 368 366 378 379 81 1 374 1153 288 121 378 0 368 380 381
 82 1 375 634585256 14 121 550 374 ?252 247 115 5 382 -0 0 252 247 21 81 1 378 1
094 294 121 383 374 372 384 385 81 1 380 1154 288 252 384 0 374 386 387 82 1 381
 616562856 14 252 554 380 ?258 121 251 5 388 -0 0 258 121 21 81 1 384 1095 294 2
52 389 380 378 390 391 81 1 386 1155 288 258 390 0 380 0 392 82 1 387 616300712
 14 258 558 386 ?0 252 257 5 393 -0 0 0 252 21 81 1 390 1096 294 258 394 386 384
 0 395 82 1 392 616038568 80 1 294 0 396 8001 0 0 0 0 3 5 0 0 0 FFFFTFTFFFFFFF2
 81 2 394 1018 397 258 0 390 389 0 0 0 83 255 3 395 1 1 1 80 2 397 398 399 9000
 0 0 0 0 3 6 0 0 0 FFFFTFFFFFFFFF9 1 81 2 389 1016 397 252 0 384 383 394 0 0 81
 2 383 1014 397 121 0 378 377 389 0 0 81 2 377 1012 397 247 0 372 371 383 0 0 81
 2 371 1010 397 101 0 366 365 377 0 0 81 2 365 1008 397 260 0 360 359 371 0 0 81
 2 359 1006 397 112 0 354 353 365 0 0 81 2 353 1004 397 343 0 347 346 359 0 0 81
 2 346 1002 397 335 0 339 338 353 0 0 81 2 338 1000 397 327 0 331 330 346 0 0 81
 2 330 998 397 319 0 323 322 338 0 0 81 2 322 996 397 311 0 315 314 330 0 0 81 2
 314 994 397 302 0 307 305 322 0 0 81 2 305 992 397 264 0 299 400 314 0 0 81 2 4
00 990 397 261 0 306 401 305 0 0 81 1 306 1082 294 261 400 263 402 299 403 81 2
 401 988 397 265 0 402 404 400 0 0 81 1 402 1081 294 265 401 272 405 306 406 81
 2 404 986 397 273 0 405 407 401 0 0 81 1 405 1080 294 273 404 278 296 402 408 8
1 2 407 984 397 279 0 296 295 404 0 0 81 1 296 1079 294 279 407 284 289 405 409
 81 2 295 982 397 16 0 289 0 407 0 0 83 3 409 1 .1058823529411764 0 81 1 278 113
9 288 273 405 0 272 284 410 83 3 408 1 .1058823529411764 0 81 1 272 1138 288 265
 402 0 263 278 411 82 1 410 533725350 81 1 263 1137 288 261 306 0 0 272 412 82 1
 411 533135526 82 1 412 532545704 83 3 406 1 .1058823529411764 0 83 3 403 1 .105
8823529411764 0 79 255 14 399 FACE_ID_2_200179 15 396 SDL/TYSA_COLOUR50 393 579
 0 258 364 388 0 +.0015 -.015 25e-5 0 1 0 0 0 1 50 364 580 0 260 376 393 0 +.001
5 .00089479618903037 25e-5 -1 818533683294729e-31 0 -818533683294729e-31 -1 0 50
 388 578 0 252 393 382 0 +.001 -.015 25e-5 1 0 0 0 0 -1 50 382 577 0 121 388 358
 0 +.001 -.0003146125374605045 25e-5 .173648177666934 .984807753012207 0 -.98480
7753012208 .173648177666934 0 50 358 576 0 112 382 321 0 +35e-5 -2e-4 25e-5 1 0
 0 0 0 -1 50 321 339 0 311 358 329 0 +0 0 25e-5 0 0 1 1 0 0 50 329 338 0 319 321
 313 0 +0 0 -25e-5 0 0 1 1 0 0 50 313 333 0 302 329 352 0 +-35e-5 -2e-4 25e-5 -1
 990323297933428e-31 0 -990323297933428e-31 -1 0 50 352 332 0 343 313 345 0 +-.0
01 -.0003146125374605045 25e-5 -.173648177666934 .984807753012207 0 -.9848077530
12208 -.173648177666934 0 50 345 331 0 335 352 337 0 +-.001 -.015 25e-5 -1 0 0 0
 0 1 50 337 330 0 327 345 304 0 +-.0015 -.015 25e-5 0 1 0 0 0 1 50 304 329 0 264
 337 266 0 +-.0015 .00089479618903037 25e-5 1 1091378244392972e-31 0 -1091378244
392972e-31 1 0 50 266 85 0 261 304 274 0 +-.0017 0 0 0 1 0 0 0 1 51 255 274 86 0
 265 266 280 0 -0 0 0 0 -1 0 .0017 0 0 -1 50 280 87 0 273 274 18 0 +-.0015 .0011
 0 0 -1 0 0 0 -1 51 18 88 0 279 280 6 0 -0 0 0 0 -1 0 .0015 0 0 -1 50 376 581 0
 247 370 364 0 +0 0 -25e-5 0 0 1 1 0 0 50 370 582 0 101 0 376 0 +0 0 25e-5 0 0 1
 1 0 0 83 3 391 1 1 1 83 3 385 1 1 1 83 3 379 1 1 1 83 3 373 1 1 1 83 3 367 1 1
 1 83 3 361 1 1 1 83 3 355 1 1 1 15 351 299 0 51 343 0 17 51 0 351 413 200 49 41
4 188 0 196 +17 413 0 351 415 51 48 196 179 0 416 -17 200 0 351 51 415 53 417 19
7 0 414 +17 414 0 328 418 419 53 51 188 0 0 -17 196 0 312 193 416 49 413 179 0 4
19 +15 312 273 0 193 302 0 17 193 0 312 231 196 45 419 166 0 0 +17 416 0 312 196
 231 48 178 175 0 0 -17 419 0 328 414 227 49 193 166 0 0 -15 328 279 0 420 319 0
 17 227 0 328 419 420 45 44 224 0 193 +17 420 0 328 227 421 42 61 118 0 0 -17 44
 0 262 38 47 42 227 224 0 235 -17 47 0 262 44 41 45 231 228 0 227 -17 235 0 303
 61 422 42 38 232 0 420 +15 303 269 0 422 264 0 17 61 0 303 423 235 59 420 118 0
 208 +17 422 0 303 235 423 34 72 162 0 0 -17 423 0 303 422 61 52 208 205 0 424 -
17 72 0 320 70 268 52 422 162 0 423 +15 320 276 0 268 311 0 17 70 0 320 67 72 68
 424 165 0 425 +17 268 0 320 72 178 34 41 236 0 422 -17 178 0 320 268 64 39 416
 175 0 0 +17 41 0 262 47 38 39 268 236 0 231 +17 231 0 312 416 193 39 47 228 0 1
78 +17 64 0 320 178 67 48 415 172 0 413 +17 67 0 320 64 70 65 426 169 0 417 +17
 415 0 351 200 413 65 64 172 0 0 -17 426 0 344 204 417 68 67 169 0 0 -17 417 0 3
44 426 55 65 200 197 0 415 -15 344 295 0 55 335 0 17 55 0 344 417 204 53 418 185
 0 200 +17 204 0 344 55 426 56 425 201 0 418 +17 418 0 328 421 414 56 55 185 0 0
 -17 421 0 328 420 418 59 58 182 0 0 -17 58 0 336 425 208 56 421 182 0 204 +15 3
36 291 0 58 327 0 17 425 0 336 424 58 68 204 201 0 426 -17 208 0 336 58 424 59 4
23 205 0 421 +17 424 0 336 208 425 52 70 165 0 0 -83 3 348 1 1 1 83 3 340 1 1 1
 83 3 332 1 1 1 83 3 324 1 1 1 83 3 316 1 1 1 83 3 308 1 1 1 82 1 298 534315174
 83 3 297 1 .1058823529411764 0 79 14 293 SWEntUnchanged17 248 0 246 250 242 75
 153 108 0 0 -17 250 0 246 249 248 79 77 148 0 0 -17 159 0 257 77 254 79 253 157
 0 250 +80 2 127 427 428 9000 0 0 0 0 3 6 0 0 0 FFFFFFTFFFFFFF9 1 81 2 190 1055
 127 188 0 0 141 245 0 0 81 2 181 1057 127 118 0 0 245 244 0 0 81 2 244 1058 127
 243 0 0 181 222 0 0 81 2 222 1059 127 220 0 0 244 184 0 0 81 2 184 1060 127 182
 0 0 222 207 0 0 81 2 207 1061 127 205 0 0 184 230 0 0 81 2 230 1062 127 228 0 0
 207 150 0 0 81 2 150 1063 127 148 0 0 230 152 0 0 81 2 152 1064 127 108 0 0 150
 203 0 0 81 2 203 1065 127 201 0 0 152 171 0 0 81 2 171 1066 127 169 0 0 203 135
 0 0 81 2 135 1067 127 131 0 0 171 168 0 0 81 2 168 1068 127 165 0 0 135 144 0 0
 81 2 144 1069 127 142 0 0 168 164 0 0 81 2 164 1070 127 162 0 0 144 234 0 0 81
 2 234 1071 127 232 0 0 164 128 0 0 81 2 128 1072 127 209 0 0 234 124 0 0 81 2 1
41 1054 127 114 0 0 147 190 0 0 81 2 147 1053 127 145 0 0 107 141 0 0 81 2 107 1
052 127 99 0 0 226 147 0 0 81 2 226 1051 127 224 0 0 117 107 0 0 81 2 117 1050 1
27 111 0 0 218 226 0 0 81 2 218 1049 127 216 0 0 241 117 0 0 81 2 241 1048 127 2
39 0 0 187 218 0 0 81 2 187 1047 127 185 0 0 199 241 0 0 81 2 199 1046 127 197 0
 0 22 187 0 0 81 2 22 1045 127 10 0 0 174 199 0 0 81 2 174 1044 127 172 0 0 138
 22 0 0 81 2 138 1043 127 136 0 0 155 174 0 0 81 2 155 1042 127 139 0 0 214 138
 0 0 81 2 214 1041 127 212 0 0 238 155 0 0 81 2 238 1040 127 236 0 0 192 214 0 0
 81 2 192 1039 127 166 0 0 195 238 0 0 81 2 195 1038 127 179 0 0 0 192 0 0 79 19
 428 EDGE_PERM_ID_2_200381 2 177 1077 127 175 0 0 160 0 0 0 81 2 160 1076 127 11
9 0 0 130 177 0 0 81 2 130 1075 127 125 0 0 129 160 0 0 81 2 129 1074 127 157 0
 0 124 130 0 0 19 17 47 0 1 0 9 5 S0 74 4 CI16 index_map_offset0 0 1 dCCZ20 15 1
1 0 0 386 429 430 431 432 433 13 394 177 390 2 0 0 0 0 0 0 0 0 0 81 2 429 648 43
4 1 0 430 0 0 0 435 81 2 430 664 436 1 429 431 0 0 0 437 81 1 431 680 438 1 430
 432 0 0 439 81 2 432 703 440 1 431 433 0 0 441 0 81 2 433 782 442 1 432 13 0 0
 0 443 81 2 13 802 444 1 433 2 0 0 0 0 80 2 444 445 446 9000 0 0 0 0 3 5 0 0 0 F
FTFFFFFFFFFFF9 1 79 16 446 BODY_RECIPE_200180 2 442 447 448 9000 0 0 0 0 3 5 0 0
 0 FFTFFFFFFFFFFF9 1 82 1 443 1 79 24 448 BODY_IN_LIGHTWEIGHT_PERM80 2 440 449 4
50 8004 0 0 0 0 3 5 0 0 0 FFTFFFFFFFFFFF2 3 83 1 441 1 79 16 450 SDL/TYSA_DENSIT
Y80 1 438 451 452 9000 1 1 1 1 1 1 1 1 0 FFTFFFFFFFFFFF1 82 1 439 8062 79 10 452
 BODY_MATCH80 2 436 453 454 9000 0 0 0 0 3 5 0 0 0 FFTFFFFFFFFFFF9 1 82 1 437 84
 79 30 454 LAST_BODY_MODIFYING_FEATURE_ID80 2 434 455 456 9000 0 0 0 0 3 5 0 0 0
 FFTFFFFFFFFFFF9 1 82 1 435 123 79 19 456 ENT_TIME_STAMP_200180 2 12 127 457 900
0 0 0 0 0 3 5 0 0 0 FFTFFFFFFFFFFF9 1 82 1 14 104 79 12 457 ATOM_ID_20011 0 
