**ABCDEFGHIJKLMNOPQRSTUVWXYZabcdefghijklmnopqrstuvwxyz**************************
**PARASOLID !"#$%&'()*+,-./:;<=>?@[\]^_`{|}~0123456789**************************
**PART1;
MC=AMD64;
MC_MODEL=AMD64 Family 23 Model 96 Stepping 1, AuthenticAMD;
MC_ID=unknown;
OS=Windows_NT;
OS_RELEASE=unknown;
FRU=Parasolid Version 31.1, build 290,  3- 9-2020;
APPL=SOLIDWORKS 2020-2020196;
SITE=;
USER=unknown;
FORMAT=text;
GUISE=transmit;
KEY=Photodiode 3μμ;
FILE=Photodiode 3μμ.x_t;
DATE=Thu Jun  2 15:45:23 2022;
**PART2;
SCH=SCH_3101290_31100;
USFLD_SIZE=0;
**PART3;
**END_OF_HEADER*****************************************************************
T51 : TRANSMIT FILE created by modeller version 310129023 SCH_3101290_31100_1300
6222 0 12 34 CCCCCCI4 mesh1006 0 I8 polyline1008 0 CCCCCCCDI5 owner1040 0 CCCCCC
I13 boundary_mesh1006 0 I17 boundary_polyline1008 0 CCCA16 index_map_offset0 0 1
 dA9 index_map82 0 A17 node_id_index_map82 0 A20 schema_embedding_map82 0 A5 chi
ld12 0 A14 lowest_node_id0 0 1 dA16 mesh_offset_data206 0 Z1 1020 2 3 0 0 0 0 0
 0 1e3 1e-8 0 4 0 1 0 1 1 5 6 7 8 0 0 9 10 11 0 0 0 0 0 0 0 81 255 2 2 994 12 1
 13 0 0 0 0 14 70 11 CI9 list_type0 0 1 uI10 notransmit0 0 1 lCCCDCCDI12 finger_
index0 0 1 dI12 finger_block1012 0 CZ3 0 4 T1 0 0 9 20 1 15 15 13 255 5 48 0 1 0
 16 0 0 17 0 50 255 6 89 0 16 18 0 0 +-.00195 -354298433165576e-49 0 -3633830083
7495e-45 1 0 -1 -36338300837495e-45 0 31 255 7 93 0 10 19 0 0 +-2574920610124765
e-81 708596866331152e-49 0 36338300837495e-45 -1 0 1 36338300837495e-45 0 .00195
 29 255 8 591 0 11 20 0 -.0015 8e-4 .001245993579437712 19 8 CCCCCCCA5 owner12 0
 Z9 52 0 1 17 0 21 V0 16 255 10 604 0 ?22 0 23 7 0 0 1 18 255 11 590 0 24 0 25 8
 ?1 17 255 24 0 26 27 28 11 29 30 0 31 -18 25 350 0 32 11 33 20 ?1 17 32 0 34 35
 36 25 37 38 0 39 -18 33 346 0 36 25 40 41 ?1 29 20 352 0 25 41 8 .00105 7358505
91959273e-49 35e-5 29 41 348 0 33 42 20 35e-5 481482486096808e-49 35e-5 29 42 34
1 0 40 43 41 35e-5 481482486096808e-49 -35e-5 18 40 339 0 44 33 45 42 ?1 29 43 1
41 0 45 46 42 -.00105 -272537256281218e-50 -35e-5 18 45 139 0 47 40 48 43 ?1 29
 46 320 0 49 50 43 -35e-5 0 -35e-5 18 49 228 0 51 52 53 46 ?1 29 50 321 0 53 54
 46 -35e-5 -8e-4 -35e-5 18 53 227 0 55 49 56 50 ?1 29 54 322 0 56 57 50 -62e-5 -
8e-4 -35e-5 18 56 226 0 58 53 59 54 ?1 29 57 323 0 59 60 54 -92e-5 -.0011 -35e-5
 18 59 225 0 61 56 62 57 ?1 29 60 324 0 62 63 57 -92e-5 -.006 -35e-5 18 62 224 0
 64 59 65 60 ?1 29 63 325 0 65 66 60 -.00162 -.006 -35e-5 18 65 223 0 67 62 68 6
3 ?1 29 66 326 0 68 69 63 -.00162 -.0011 -35e-5 18 68 222 0 70 65 71 66 ?1 29 69
 327 0 71 72 66 -.00105 -.0001971711125578685 -35e-5 18 71 220 0 73 68 74 69 ?1
 29 72 329 0 48 75 69 -35e-5 0 35e-5 18 48 236 0 76 45 77 72 ?1 29 75 330 0 77 7
8 72 -35e-5 -8e-4 35e-5 18 77 235 0 79 48 80 75 ?1 29 78 331 0 80 81 75 -62e-5 -
8e-4 35e-5 18 80 234 0 82 77 83 78 ?1 29 81 332 0 83 84 78 -92e-5 -.0011 35e-5 1
8 83 233 0 85 80 86 81 ?1 29 84 333 0 86 87 81 -92e-5 -.006 35e-5 18 86 232 0 88
 83 89 84 ?1 29 87 334 0 89 90 84 -.00162 -.006 35e-5 18 89 231 0 91 86 92 87 ?1
 29 90 335 0 92 93 87 -.00162 -.0011 35e-5 18 92 230 0 94 89 95 90 ?1 29 93 336
 0 95 96 90 -.00105 -.0001971711125578685 35e-5 18 95 229 0 97 92 52 93 ?1 29 96
 337 0 52 98 93 -.00105 0 35e-5 18 52 221 0 99 95 49 96 ?1 29 98 523 0 100 101 9
6 .00162 -.0011 -35e-5 18 100 431 0 102 103 104 98 ?1 29 101 524 0 104 105 98 .0
0162 -.006 -35e-5 18 104 430 0 106 100 107 101 ?1 29 105 525 0 107 108 101 92e-5
 -.006 -35e-5 18 107 429 0 109 104 110 105 ?1 29 108 526 0 110 111 105 92e-5 -.0
011 -35e-5 18 110 428 0 112 107 113 108 ?1 29 111 527 0 113 114 108 62e-5 -8e-4
 -35e-5 18 113 427 0 115 110 116 111 ?1 29 114 528 0 116 117 111 35e-5 -8e-4 -35
e-5 18 116 426 0 118 113 119 114 ?1 29 117 530 0 119 120 114 .00105 0 -35e-5 18
 119 423 0 35 116 121 117 ?1 29 120 531 0 121 122 117 .00105 -.00019717111255786
85 -35e-5 18 121 440 0 123 119 124 120 ?1 29 122 532 0 74 125 120 .00162 -.0011
 35e-5 18 74 439 0 126 71 127 122 ?1 29 125 533 0 127 128 122 .00162 -.006 35e-5
 18 127 438 0 129 74 130 125 ?1 29 128 534 0 130 131 125 92e-5 -.006 35e-5 18 13
0 437 0 132 127 133 128 ?1 29 131 535 0 133 134 128 92e-5 -.0011 35e-5 18 133 43
6 0 135 130 136 131 ?1 29 134 536 0 136 137 131 62e-5 -8e-4 35e-5 18 136 435 0 1
38 133 139 134 ?1 29 137 537 0 139 140 134 35e-5 -8e-4 35e-5 18 139 434 0 141 13
6 103 137 ?1 29 140 540 0 103 142 137 .00105 -.0001971711125578685 35e-5 18 103
 424 0 143 139 100 140 ?1 29 142 718 0 124 144 140 -.0015 1635223537687265e-50 .
001245993579437706 18 124 651 0 28 121 145 142 ?1 29 144 719 0 145 146 142 -.001
5 0 -.00124599357943771 18 145 652 0 147 124 148 144 ?1 29 146 721 0 148 149 144
 -.0015 8e-4 0 18 148 654 0 27 145 150 146 ?1 29 149 722 0 150 0 146 -.0015 8e-4
 -.001245993579437712 18 150 653 0 151 148 0 149 ?1 17 151 0 26 147 27 150 152 1
53 0 154 -15 255 26 667 0 27 155 0 17 147 0 26 28 151 145 154 156 0 157 -17 27 0
 26 151 24 148 31 158 0 152 -17 152 0 159 160 161 148 151 153 0 160 +16 153 620
 0 ?152 156 158 162 158 158 1 17 154 0 163 164 165 150 147 156 0 161 +15 163 115
 0 164 166 0 17 164 0 163 29 154 11 161 23 0 0 +17 165 0 163 154 29 145 22 10 0
 0 -16 156 619 0 ?154 167 153 168 0 0 1 17 161 0 159 152 31 150 164 23 0 0 -15 1
59 68 0 161 169 0 17 31 0 159 161 160 11 27 158 0 164 +16 23 593 0 ?164 10 170 1
9 0 0 1 16 170 61 0 ?160 23 171 172 0 0 1 31 19 92 0 23 172 7 0 +-29070640669996
e-48 8e-4 0 36338300837495e-45 -1 0 1 36338300837495e-45 0 .00195 31 172 91 0 17
0 173 19 0 +-29070640669996e-48 8e-4 0 36338300837495e-45 -1 0 1 36338300837495e
-45 0 .0015 31 173 90 0 171 174 172 0 +-138085543182481e-48 .0038 0 363383008374
95e-45 -1 0 1 36338300837495e-45 0 .0015 16 171 56 0 ?175 170 176 173 0 0 1 30 2
55 174 293 0 176 177 173 0 +-.00105 0 35e-5 0 0 -1 16 176 164 0 ?47 171 178 174
 0 0 1 30 177 294 0 178 179 174 0 +-.00105 -.0001971711125578685 35e-5 0 0 -1 16
 178 168 0 ?180 176 181 177 0 0 1 30 179 295 0 181 182 177 0 +-.00162 -.0011 35e
-5 0 0 -1 16 181 172 0 ?183 178 184 179 0 0 1 30 182 296 0 184 185 179 0 +-.0016
2 -.006 35e-5 0 0 -1 16 184 176 0 ?186 181 187 182 0 0 1 30 185 297 0 187 188 18
2 0 +-92e-5 -.006 35e-5 0 0 -1 16 187 180 0 ?189 184 190 185 0 0 1 30 188 298 0
 190 191 185 0 +-92e-5 -.0011 35e-5 0 0 -1 16 190 184 0 ?192 187 193 188 0 0 1 3
0 191 299 0 193 194 188 0 +-62e-5 -8e-4 35e-5 0 0 -1 16 193 188 0 ?195 190 196 1
91 0 0 1 30 194 300 0 196 197 191 0 +-35e-5 -8e-4 35e-5 0 0 -1 16 196 192 0 ?198
 193 199 194 0 0 1 30 197 301 0 199 200 194 0 +-35e-5 0 35e-5 0 0 -1 16 199 160
 0 ?201 196 202 197 0 0 1 30 200 302 0 203 204 197 0 +-35e-5 0 -35e-5 -203287907
341032e-30 1 0 16 203 189 0 ?51 205 206 200 0 0 1 30 204 303 0 206 207 200 0 +-6
2e-5 -8e-4 -35e-5 1 0 0 16 206 185 0 ?55 203 208 204 0 0 1 31 207 304 0 208 209
 204 0 +-62e-5 -.0011 -35e-5 0 0 -1 -1 0 0 3e-4 16 208 181 0 ?58 206 210 207 0 0
 1 30 209 305 0 210 211 207 0 +-92e-5 -.006 -35e-5 -3318986242302565e-31 1 0 16
 210 177 0 ?61 208 212 209 0 0 1 30 211 306 0 212 213 209 0 +-.00162 -.006 -35e-
5 1 0 0 16 212 173 0 ?64 210 214 211 0 0 1 30 213 307 0 214 215 211 0 +-.00162 -
.006 -35e-5 -4425314989736755e-32 -1 0 16 214 169 0 ?67 212 216 213 0 0 1 31 215
 308 0 216 217 213 0 +-62e-5 -.0011 -35e-5 0 0 1 -1 0 0 .001 16 216 165 0 ?70 21
4 218 215 0 0 1 30 217 309 0 218 219 215 0 +-.00105 -.0001971711125578685 -35e-5
 1099757625161544e-30 -1 0 16 218 161 0 ?73 216 220 217 0 0 1 30 219 310 0 220 2
21 217 0 +-.00105 0 -35e-5 -1 0 0 16 220 157 0 ?222 218 223 219 0 0 1 30 221 311
 0 202 224 219 0 +-35e-5 0 35e-5 -203287907341032e-30 1 0 16 202 217 0 ?76 199 2
25 221 0 0 1 30 224 312 0 225 226 221 0 +-62e-5 -8e-4 35e-5 1 0 0 16 225 214 0 ?
79 202 227 224 0 0 1 31 226 313 0 227 228 224 0 +-62e-5 -.0011 35e-5 0 0 -1 -1 0
 0 3e-4 16 227 211 0 ?82 225 229 226 0 0 1 30 228 314 0 229 230 226 0 +-92e-5 -.
006 35e-5 -3318986242302565e-31 1 0 16 229 208 0 ?85 227 231 228 0 0 1 30 230 31
5 0 231 232 228 0 +-.00162 -.006 35e-5 1 0 0 16 231 205 0 ?88 229 233 230 0 0 1
 30 232 316 0 233 234 230 0 +-.00162 -.006 35e-5 -4425314989736755e-32 -1 0 16 2
33 202 0 ?91 231 235 232 0 0 1 31 234 317 0 235 236 232 0 +-62e-5 -.0011 35e-5 0
 0 1 -1 0 0 .001 16 235 199 0 ?94 233 237 234 0 0 1 30 236 318 0 237 238 234 0 +
-.00105 -.0001971711125578685 35e-5 1099757625161544e-30 -1 0 16 237 196 0 ?97 2
35 205 236 0 0 1 30 238 319 0 205 239 236 0 +-.00105 0 35e-5 -1 0 0 16 205 193 0
 ?240 237 203 238 0 0 1 30 239 496 0 223 241 238 0 +.00105 -.0001971711125578685
 35e-5 0 0 -1 16 223 367 0 ?242 220 243 239 0 0 1 30 241 497 0 243 244 239 0 +.0
0105 0 35e-5 0 0 -1 16 243 371 0 ?35 223 245 241 0 0 1 30 244 498 0 245 246 241
 0 +35e-5 0 35e-5 0 0 -1 16 245 375 0 ?247 243 248 244 0 0 1 30 246 499 0 248 24
9 244 0 +35e-5 -8e-4 35e-5 0 0 -1 16 248 379 0 ?250 245 251 246 0 0 1 30 249 500
 0 251 252 246 0 +62e-5 -8e-4 35e-5 0 0 -1 16 251 383 0 ?253 248 254 249 0 0 1 3
0 252 501 0 254 255 249 0 +92e-5 -.0011 35e-5 0 0 -1 16 254 387 0 ?256 251 257 2
52 0 0 1 30 255 502 0 257 258 252 0 +92e-5 -.006 35e-5 0 0 -1 16 257 391 0 ?259
 254 260 255 0 0 1 30 258 503 0 260 261 255 0 +.00162 -.006 35e-5 0 0 -1 16 260
 395 0 ?262 257 263 258 0 0 1 30 261 504 0 263 264 258 0 +.00162 -.0011 35e-5 0
 0 -1 16 263 363 0 ?265 260 266 261 0 0 1 30 264 505 0 267 268 261 0 +.00162 -.0
06 -35e-5 -3097720492815725e-31 1 0 16 267 392 0 ?102 269 270 264 0 0 1 30 268 5
06 0 270 271 264 0 +.00162 -.006 -35e-5 1 0 0 16 270 388 0 ?106 267 272 268 0 0
 1 30 271 507 0 272 273 268 0 +92e-5 -.006 -35e-5 -2212657494868375e-32 -1 0 16
 272 384 0 ?109 270 274 271 0 0 1 31 273 508 0 274 275 271 0 +62e-5 -.0011 -35e-
5 0 0 -1 1 0 0 3e-4 16 274 380 0 ?112 272 276 273 0 0 1 30 275 509 0 276 277 273
 0 +62e-5 -8e-4 -35e-5 1 0 0 16 276 376 0 ?115 274 278 275 0 0 1 30 277 510 0 27
8 279 275 0 +35e-5 0 -35e-5 -203287907341032e-30 -1 0 16 278 372 0 ?118 276 280
 277 0 0 1 30 279 511 0 280 281 277 0 +.00105 0 -35e-5 -1 0 0 16 280 368 0 ?44 2
78 282 279 0 0 1 30 281 512 0 282 283 279 0 +.00105 -.0001971711125578685 -35e-5
 1099757625161544e-30 1 0 16 282 364 0 ?284 280 285 281 0 0 1 31 283 513 0 285 2
86 281 0 +62e-5 -.0011 -35e-5 0 0 1 1 0 0 .001 16 285 360 0 ?287 282 30 283 0 0
 1 30 286 514 0 266 288 283 0 +.00162 -.006 35e-5 -3097720492815725e-31 1 0 16 2
66 420 0 ?126 263 289 286 0 0 1 30 288 515 0 289 290 286 0 +.00162 -.006 35e-5 1
 0 0 16 289 417 0 ?129 266 291 288 0 0 1 30 290 516 0 291 292 288 0 +92e-5 -.006
 35e-5 -2212657494868375e-32 -1 0 16 291 414 0 ?132 289 293 290 0 0 1 31 292 517
 0 293 294 290 0 +62e-5 -.0011 35e-5 0 0 -1 1 0 0 3e-4 16 293 411 0 ?135 291 295
 292 0 0 1 30 294 518 0 295 296 292 0 +62e-5 -8e-4 35e-5 1 0 0 16 295 408 0 ?138
 293 297 294 0 0 1 30 296 519 0 297 298 294 0 +35e-5 0 35e-5 -203287907341032e-3
0 -1 0 16 297 405 0 ?141 295 38 296 0 0 1 30 298 520 0 38 299 296 0 +.00105 0 35
e-5 -1 0 0 16 38 402 0 ?37 297 300 298 0 0 1 30 299 521 0 300 301 298 0 +.00105
 -.0001971711125578685 35e-5 1099757625161544e-30 1 0 16 300 399 0 ?39 38 269 29
9 0 0 1 31 301 522 0 269 302 299 0 +62e-5 -.0011 35e-5 0 0 1 1 0 0 .001 16 269 3
96 0 ?303 300 267 301 0 0 1 30 302 702 0 30 304 301 0 +-.0015 0 .001245993579437
71 36338300837495e-45 -1 0 16 30 617 0 ?29 285 167 302 0 0 1 30 304 703 0 167 16
8 302 0 +-.0015 -1907760793968495e-50 0 0 0 -1 16 167 618 0 ?157 30 156 304 0 0
 1 30 168 704 0 156 162 304 0 --.0015 0 -.00124599357943771 36338300837495e-45 -
1 0 30 162 706 0 158 0 168 0 +-.0015 8e-4 -.00195 0 0 1 16 158 616 0 ?31 153 0 1
62 153 153 1 17 157 0 305 22 22 145 28 167 0 165 +15 305 78 0 22 16 306 17 22 0
 305 157 157 124 165 10 0 0 +17 28 0 26 24 147 124 157 167 0 29 -17 29 0 163 165
 164 124 24 30 0 22 +14 255 16 154 307 ?166 0 34 5 6 -0 0 166 0 21 15 306 152 0
 308 16 0 17 308 0 306 201 309 48 240 205 0 0 -17 201 0 306 222 308 49 310 199 0
 0 +17 309 0 306 308 222 52 47 176 0 0 -17 240 0 311 97 76 52 308 205 0 309 +15
 311 276 0 240 312 0 17 97 0 311 94 240 95 99 237 0 313 +17 76 0 311 240 79 48 3
14 202 0 310 +17 79 0 311 76 82 77 315 225 0 316 +17 314 0 317 198 310 77 76 202
 0 0 -17 310 0 317 314 51 48 201 199 0 308 -15 317 273 0 51 318 0 17 51 0 317 31
0 198 49 319 203 0 320 +17 198 0 317 51 314 53 316 196 0 319 +17 319 0 321 322 3
20 53 51 203 0 0 -17 320 0 321 319 323 49 222 220 0 201 -15 321 279 0 320 324 0
 17 323 0 321 320 325 45 73 218 0 222 -17 222 0 306 309 201 45 320 220 0 0 +17 3
25 0 321 323 326 71 70 216 0 0 -17 73 0 327 313 47 71 323 218 0 180 +15 327 245
 0 73 328 0 17 313 0 327 99 73 95 180 178 0 329 -17 47 0 327 73 99 45 309 176 0
 323 +17 180 0 330 70 329 71 313 178 0 325 +15 330 249 0 70 331 0 17 70 0 330 33
2 180 68 325 216 0 183 +17 329 0 330 180 332 95 94 235 0 0 -17 332 0 330 329 70
 92 183 181 0 333 -17 94 0 311 91 97 92 329 235 0 332 +17 91 0 311 88 94 89 333
 233 0 334 +17 88 0 311 85 91 86 335 231 0 336 +17 333 0 337 183 334 92 91 233 0
 0 -17 334 0 337 333 67 89 186 184 0 335 -15 337 253 0 67 338 0 17 67 0 337 334
 183 65 326 214 0 186 +17 186 0 339 64 335 65 334 184 0 340 +17 335 0 339 186 33
6 89 88 231 0 0 -15 339 257 0 64 341 0 17 336 0 339 335 64 86 189 187 0 342 -17
 64 0 339 336 186 62 340 212 0 189 +17 189 0 343 61 342 62 336 187 0 344 +17 342
 0 343 189 345 86 85 229 0 0 -15 343 261 0 61 346 0 17 345 0 343 342 61 83 192 1
90 0 347 -17 85 0 311 82 88 83 342 229 0 345 +17 82 0 311 79 85 80 347 227 0 348
 +17 347 0 349 192 348 83 82 227 0 0 -17 348 0 349 347 58 80 195 193 0 315 -15 3
49 265 0 58 350 0 17 58 0 349 348 192 56 351 208 0 195 +17 195 0 352 55 315 56 3
48 193 0 322 +17 315 0 352 195 316 80 79 225 0 0 -15 352 269 0 55 353 0 17 316 0
 352 315 55 77 198 196 0 314 -17 55 0 352 316 195 53 322 206 0 198 +17 322 0 321
 351 319 56 55 206 0 0 -17 351 0 321 344 322 59 58 208 0 0 -17 344 0 321 340 351
 62 61 210 0 0 -17 340 0 321 326 344 65 64 212 0 0 -17 61 0 343 345 189 59 344 2
10 0 192 +17 192 0 349 58 347 59 345 190 0 351 +17 326 0 321 325 340 68 67 214 0
 0 -14 353 266 354 ?318 350 352 5 355 -0 0 318 350 21 81 1 354 996 356 353 357 0
 307 358 359 14 318 270 358 ?312 353 317 5 360 -0 0 312 353 21 14 350 262 361 ?3
53 346 349 5 362 -0 0 353 346 21 50 355 289 0 353 360 362 0 +-62e-5 -8e-4 35e-5
 0 1 0 0 0 1 13 21 51 0 0 0 0 0 0 9 16 50 360 290 0 318 363 355 0 +-35e-5 0 35e-
5 -1 -203287907341032e-30 0 203287907341032e-30 -1 0 51 255 362 288 0 350 355 36
4 0 +-62e-5 -.0011 35e-5 0 0 -1 3e-4 -1 0 0 50 364 287 0 346 362 365 0 +-92e-5 -
.006 35e-5 -1 -3318986242302565e-31 0 3318986242302565e-31 -1 0 14 346 258 366 ?
350 341 343 5 364 -0 0 350 341 21 50 365 286 0 341 364 367 0 +-.00162 -.006 35e-
5 0 1 0 0 0 1 14 341 254 368 ?346 338 339 5 365 -0 0 346 338 21 50 367 285 0 338
 365 369 0 +-.00162 -.006 35e-5 1 -4425314989736755e-32 0 4425314989736755e-32 1
 0 14 338 250 370 ?341 331 337 5 367 -0 0 341 331 21 51 369 284 0 331 367 371 0
 --62e-5 -.0011 35e-5 0 0 -1 .001 -1 0 0 14 331 246 372 ?338 328 330 5 369 -0 0
 338 328 21 50 371 283 0 328 369 373 0 +-.00105 -.0001971711125578685 35e-5 1 10
99757625161544e-30 0 -1099757625161544e-30 1 0 14 328 242 374 ?331 375 327 5 371
 -0 0 331 375 21 53 255 373 85 0 375 371 376 0 --465365783675994e-33 .0038 0 .00
15 36338300837495e-45 -1 0 1 36338300837495e-45 0 14 375 59 377 ?328 378 379 5 3
73 -0 0 328 378 21 51 376 86 0 378 373 380 0 -0 0 0 36338300837495e-45 -1 0 .001
5 1 36338300837495e-45 0 14 378 64 381 ?375 169 382 5 376 -0 0 375 169 21 50 380
 87 0 169 376 18 0 +-.0015 8e-4 0 36338300837495e-45 -1 0 1 36338300837495e-45 0
 14 169 69 383 ?378 166 159 5 380 -0 0 378 166 21 51 18 88 0 166 380 6 0 -0 0 0
 36338300837495e-45 -1 0 .00195 1 36338300837495e-45 0 14 166 74 384 ?169 16 163
 5 18 -0 0 169 16 21 81 1 384 1007 356 166 385 0 383 386 387 80 255 1 356 388 38
9 9000 1 1 1 1 1 1 1 1 0 FFFFTFTFFFFFFF1 81 1 385 916 390 166 0 384 391 392 393
 81 1 383 1006 356 169 392 0 381 384 394 81 1 386 1008 356 312 395 0 384 396 397
 82 255 1 387 -581435238 14 312 274 386 ?324 318 311 5 398 -0 0 324 318 21 81 1
 395 928 390 312 0 386 399 400 401 81 1 396 1009 356 324 400 0 386 402 403 82 1
 397 -1753808748 14 324 277 396 ?404 312 321 5 363 +0 0 404 312 21 81 1 400 929
 390 324 0 396 395 405 406 81 1 402 1010 356 404 405 0 396 407 408 82 1 403 -174
2274412 14 404 441 402 ?409 324 410 5 411 -0 0 409 324 21 81 1 405 930 390 404 0
 402 400 412 413 81 1 407 1011 356 409 412 0 402 414 415 82 1 408 -1714749292 14
 409 445 407 ?416 404 417 5 418 -0 0 416 404 21 81 1 412 931 390 409 0 407 405 4
19 420 81 1 414 1012 356 416 419 0 407 421 422 82 1 415 -1715011436 14 416 453 4
14 ?423 409 424 5 425 -0 0 423 409 21 81 1 419 932 390 416 0 414 412 426 427 81
 1 421 1013 356 423 426 0 414 428 429 82 1 422 -1715535724 14 423 457 421 ?430 4
16 431 5 432 -0 0 430 416 21 81 1 426 933 390 423 0 421 419 433 434 81 1 428 101
4 356 430 433 0 421 435 436 82 1 429 -1715797868 14 430 461 428 ?437 423 438 5 4
39 -0 0 437 423 21 81 1 433 934 390 430 0 428 426 440 441 81 1 435 1015 356 437
 440 0 428 442 443 82 1 436 -1716060012 14 437 465 435 ?444 430 445 5 446 -0 0 4
44 430 21 81 1 440 935 390 437 0 435 433 447 448 81 1 442 1016 356 444 447 0 435
 449 450 82 1 443 -1716322156 14 444 469 442 ?451 437 452 5 453 -0 0 451 437 21
 81 1 447 936 390 444 0 442 440 454 455 81 1 449 1017 356 451 454 0 442 456 457
 82 1 450 -1716584300 14 451 473 449 ?458 444 459 5 460 -0 0 458 444 21 81 1 454
 937 390 451 0 449 447 461 462 81 1 456 1018 356 458 461 0 449 463 464 82 1 457
 -1716846444 14 458 477 456 ?465 451 466 5 467 +0 0 465 451 21 81 1 461 938 390
 458 0 456 454 468 469 81 1 463 1019 356 465 468 0 456 470 471 82 1 464 -1730281
324 14 465 480 463 ?155 458 472 5 473 -0 0 155 458 21 81 1 468 939 390 465 0 463
 461 474 475 81 1 470 1020 356 155 474 0 463 0 476 82 1 471 -1718746988 14 155 6
64 470 ?0 465 26 5 477 -0 0 0 465 21 81 1 474 940 390 155 0 470 468 0 478 82 1 4
76 -487194470 80 1 390 0 479 8001 0 0 0 0 3 5 0 0 0 FFFFTFTFFFFFFF2 83 255 3 478
 1 1 1 79 255 15 479 SDL/TYSA_COLOUR50 477 696 0 155 0 467 0 +-.0015 8e-4 -.0019
5 1 0 0 0 0 -1 50 467 495 0 458 477 473 0 +62e-5 -.0011 35e-5 0 0 1 1 0 0 50 473
 494 0 465 467 460 0 +62e-5 -.0011 -35e-5 0 0 1 1 0 0 50 460 493 0 451 473 453 0
 +.00162 -.006 35e-5 -1 -3097720492815725e-31 0 3097720492815725e-31 -1 0 50 453
 492 0 444 460 446 0 +.00162 -.006 35e-5 0 1 0 0 0 1 50 446 491 0 437 453 439 0
 +92e-5 -.006 35e-5 1 -2212657494868375e-32 0 2212657494868375e-32 1 0 51 439 49
0 0 430 446 432 0 +62e-5 -.0011 35e-5 0 0 -1 3e-4 -1 0 0 50 432 489 0 423 439 42
5 0 +62e-5 -8e-4 35e-5 0 1 0 0 0 1 50 425 488 0 416 432 418 0 +35e-5 0 35e-5 1 -
203287907341032e-30 0 203287907341032e-30 1 0 50 418 486 0 409 425 411 0 +.00105
 -.0001971711125578685 35e-5 -1 1099757625161544e-30 0 -1099757625161544e-30 -1
 0 51 411 485 0 404 418 398 0 -62e-5 -.0011 35e-5 0 0 -1 .001 -1 0 0 50 398 292
 0 312 411 363 0 +-62e-5 -.0011 35e-5 0 0 -1 -1 0 0 50 363 291 0 324 398 360 0 +
-62e-5 -.0011 -35e-5 0 0 -1 -1 0 0 83 3 475 1 1 1 15 472 482 0 480 465 0 17 480
 0 472 481 123 100 287 285 0 0 -17 481 0 472 482 480 104 102 267 0 0 -17 123 0 4
72 480 483 121 284 282 0 242 -17 287 0 410 484 265 121 480 285 0 0 +15 410 444 0
 287 404 0 17 484 0 410 485 287 103 242 223 0 0 -17 265 0 410 287 485 100 486 26
3 0 480 +17 485 0 410 265 484 74 303 269 0 0 -17 486 0 459 487 102 74 265 263 0
 485 -15 459 476 0 102 451 0 17 487 0 459 262 486 127 126 266 0 0 -17 102 0 459
 486 262 100 481 267 0 265 +17 262 0 459 102 487 104 488 260 0 481 +17 488 0 452
 489 106 127 262 260 0 487 -15 452 472 0 106 444 0 17 489 0 452 259 488 130 129
 289 0 0 -17 106 0 452 488 259 104 482 270 0 262 +17 259 0 452 106 489 107 490 2
57 0 482 +17 482 0 472 491 481 107 106 270 0 0 -17 491 0 472 492 482 110 109 272
 0 0 -17 492 0 472 493 491 113 112 274 0 0 -17 109 0 445 490 256 107 491 272 0 2
59 +15 445 468 0 109 437 0 17 490 0 445 494 109 130 259 257 0 489 -17 256 0 445
 109 494 110 495 254 0 491 +17 494 0 445 256 490 133 132 291 0 0 -17 495 0 438 4
96 112 133 256 254 0 494 -15 438 464 0 112 430 0 17 496 0 438 253 495 136 135 29
3 0 0 -17 112 0 438 495 253 110 492 274 0 256 +17 253 0 438 112 496 113 497 251
 0 492 +17 497 0 431 498 115 136 253 251 0 496 -15 431 460 0 115 423 0 17 498 0
 431 250 497 139 138 295 0 0 -17 115 0 431 497 250 113 493 276 0 253 +17 250 0 4
31 115 498 116 499 248 0 493 +17 493 0 472 500 492 116 115 276 0 0 -17 500 0 472
 483 493 40 118 278 0 0 -17 483 0 472 123 500 119 44 280 0 0 -17 118 0 424 499 2
47 116 500 278 0 250 +15 424 456 0 118 416 0 17 499 0 424 501 118 139 250 248 0
 498 -17 247 0 424 118 501 40 36 245 0 500 +17 501 0 424 247 499 33 141 297 0 0
 -17 36 0 34 32 44 33 247 245 0 37 -15 34 340 0 36 16 305 17 44 0 34 36 35 40 48
3 280 0 247 +17 37 0 466 141 39 33 32 38 0 501 +15 466 479 0 303 458 0 17 141 0
 466 138 37 139 501 297 0 499 +17 39 0 466 37 303 25 143 300 0 502 +17 303 0 466
 39 126 103 485 269 0 484 +17 143 0 417 242 502 103 39 300 0 303 -17 502 0 417 1
43 284 25 35 243 0 0 -15 417 448 0 284 409 0 17 284 0 417 502 242 119 123 282 0
 483 +17 35 0 34 44 32 119 502 243 0 284 +17 242 0 417 284 143 121 484 223 0 287
 +17 126 0 466 303 129 74 487 266 0 486 +17 129 0 466 126 132 127 489 289 0 488
 +17 132 0 466 129 135 130 494 291 0 490 +17 135 0 466 132 138 133 496 293 0 495
 +17 138 0 466 135 141 136 498 295 0 497 +83 3 469 1 1 1 83 3 462 1 1 1 83 3 455
 1 1 1 83 3 448 1 1 1 83 3 441 1 1 1 83 3 434 1 1 1 83 3 427 1 1 1 83 3 420 1 1
 1 83 3 413 1 1 1 83 3 406 1 1 1 81 1 399 927 390 318 0 358 357 395 503 83 3 401
 1 1 1 81 1 358 997 356 318 399 0 354 361 504 81 1 357 926 390 353 0 354 505 399
 506 83 3 503 1 1 1 81 1 505 925 390 350 0 361 507 357 508 83 3 506 1 1 1 81 1 3
61 998 356 350 505 0 358 366 509 81 1 507 924 390 346 0 366 510 505 511 83 3 508
 1 1 1 81 1 366 999 356 346 507 0 361 368 512 81 1 510 923 390 341 0 368 513 507
 514 83 3 511 1 1 1 81 1 368 1000 356 341 510 0 366 370 515 81 1 513 922 390 338
 0 370 516 510 517 83 3 514 1 1 1 81 1 370 1001 356 338 513 0 368 372 518 81 1 5
16 921 390 331 0 372 519 513 520 83 3 517 1 1 1 81 1 372 1002 356 331 516 0 370
 374 521 81 1 519 920 390 328 0 374 522 516 523 83 3 520 1 1 1 81 1 374 1003 356
 328 519 0 372 377 524 81 1 522 919 390 375 0 377 525 519 526 83 3 523 1 1 1 81
 1 377 1004 356 375 522 0 374 381 527 81 1 525 918 390 378 0 381 392 522 528 83
 3 526 1 1 1 81 1 381 1005 356 378 525 0 377 383 529 81 1 392 917 390 169 0 383
 385 525 530 83 3 528 1 1 1 83 3 530 1 1 1 82 1 529 -582614886 82 1 527 -5832047
19 82 1 524 -1738538860 82 1 521 -1738801004 82 1 518 -1739063148 82 1 515 -1739
325292 82 1 512 -1739587436 82 1 509 -1739849580 82 1 504 -1740373868 82 1 394 -
582025062 81 1 391 915 390 16 0 307 0 385 531 83 3 393 1 1 1 81 1 307 995 356 16
 391 0 0 354 532 83 3 531 1 1 1 82 1 532 -1706557286 79 14 389 SWEntUnchanged15
 382 117 0 533 378 534 17 533 0 382 533 533 148 160 170 0 0 -15 534 63 0 175 378
 0 17 175 0 534 175 175 0 535 171 0 0 +17 535 0 379 535 535 0 175 171 0 0 -15 37
9 118 0 535 375 0 17 160 0 159 31 152 148 533 170 0 533 +82 1 359 -1740111724 17
 183 0 337 67 333 68 332 181 0 326 +17 99 0 327 47 313 52 97 237 0 240 -19 17 47
 0 1 0 9 5 S0 74 4 CI16 index_map_offset0 0 1 dCCZ20 15 9 0 0 470 536 537 538 53
9 540 13 474 2 0 0 0 0 0 0 0 0 0 0 0 81 2 536 542 541 1 0 537 0 0 0 542 81 2 537
 564 543 1 536 538 0 0 0 544 81 2 538 587 545 1 537 539 0 0 0 0 81 1 539 770 546
 1 538 540 0 0 547 81 2 540 798 548 1 539 13 0 0 549 0 81 2 13 914 550 1 540 2 0
 0 0 551 80 2 550 552 553 9000 0 0 0 0 3 5 0 0 0 FFTFFFFFFFFFFF9 1 82 1 551 1 79
 24 553 BODY_IN_LIGHTWEIGHT_PERM80 2 548 554 555 8004 0 0 0 0 3 5 0 0 0 FFTFFFFF
FFFFFF2 3 83 1 549 78e2 79 16 555 SDL/TYSA_DENSITY80 1 546 556 557 9000 1 1 1 1
 1 1 1 1 0 FFTFFFFFFFFFFF1 82 1 547 56573 79 10 557 BODY_MATCH80 2 545 558 559 9
000 0 0 0 0 3 5 0 0 0 FFTFFFFFFFFFFF9 1 79 16 559 BODY_RECIPE_200180 2 543 560 5
61 9000 0 0 0 0 3 5 0 0 0 FFTFFFFFFFFFFF9 1 82 1 544 92 79 30 561 LAST_BODY_MODI
FYING_FEATURE_ID80 2 541 562 563 9000 0 0 0 0 3 5 0 0 0 FFTFFFFFFFFFFF9 1 82 1 5
42 118 79 19 563 ENT_TIME_STAMP_200180 2 12 564 565 9000 0 0 0 0 3 5 0 0 0 FFTFF
FFFFFFFFF9 1 82 1 14 105 79 12 565 ATOM_ID_20011 0 
