**ABCDEFGHIJKLMNOPQRSTUVWXYZabcdefghijklmnopqrstuvwxyz**************************
**PARASOLID !"#$%&'()*+,-./:;<=>?@[\]^_`{|}~0123456789**************************
**PART1;
MC=AMD64;
MC_MODEL=AMD64 Family 23 Model 96 Stepping 1, AuthenticAMD;
MC_ID=unknown;
OS=Windows_NT;
OS_RELEASE=unknown;
FRU=Parasolid Version 31.1, build 290,  3- 9-2020;
APPL=SOLIDWORKS 2020-2020196;
SITE=;
USER=unknown;
FORMAT=text;
GUISE=transmit;
KEY=PLS-1_5mm;
FILE=PLS-1_5mm.x_t;
DATE=Sun Jul 10 21:13:34 2022;
**PART2;
SCH=SCH_3101290_31100;
USFLD_SIZE=0;
**PART3;
**END_OF_HEADER*****************************************************************
T51 : TRANSMIT FILE created by modeller version 310129023 SCH_3101290_31100_1300
6222 0 12 34 CCCCCCI4 mesh1006 0 I8 polyline1008 0 CCCCCCCDI5 owner1040 0 CCCCCC
I13 boundary_mesh1006 0 I17 boundary_polyline1008 0 CCCA16 index_map_offset0 0 1
 dA9 index_map82 0 A17 node_id_index_map82 0 A20 schema_embedding_map82 0 A5 chi
ld12 0 A14 lowest_node_id0 0 1 dA16 mesh_offset_data206 0 Z1 1856 2 3 0 0 0 0 0
 0 1e3 1e-8 0 4 0 1 0 1 1 5 6 7 8 0 0 9 10 11 0 0 0 0 0 0 0 81 255 2 2 1820 12 1
 13 0 0 0 0 14 70 11 CI9 list_type0 0 1 uI10 notransmit0 0 1 lCCCDCCDI12 finger_
index0 0 1 dI12 finger_block1012 0 CZ3 0 4 T1 0 0 12 20 1 15 15 13 255 5 183 0 1
 0 16 0 0 17 0 50 255 6 1057 18 19 20 0 0 --32e-5 .007 32e-5 .957826285221152 -.
287347885566342 0 0 0 -1 30 255 7 1065 0 21 22 0 0 +-32e-5 .007 32e-5 -.27617238
5369494 -.920574617898325 .2761723853694945 29 255 8 946 0 11 23 0 -32e-5 .007 -
32e-5 19 8 CCCCCCCA5 owner12 0 Z9 61 0 1 17 0 24 V0 16 255 10 952 25 ?26 0 27 28
 0 0 1 18 255 11 944 0 29 0 30 8 ?1 17 255 29 0 31 32 33 11 34 27 0 35 +18 30 93
6 0 36 11 37 23 ?1 17 36 0 38 39 40 30 41 42 0 33 +18 37 928 0 26 30 43 44 ?1 29
 23 938 0 30 44 8 -32e-5 .007 32e-5 29 44 930 0 37 45 23 32e-5 .007 -32e-5 29 45
 927 0 43 46 44 32e-5 .007 32e-5 18 43 925 0 47 37 48 45 ?1 29 46 918 0 48 49 45
 17e-5 .0075 17e-5 18 48 916 0 50 43 51 46 ?1 29 49 914 0 51 52 46 -17e-5 .0075
 17e-5 18 51 912 0 53 48 54 49 ?1 29 52 910 0 54 55 49 -17e-5 .0075 -17e-5 18 54
 908 0 56 51 57 52 ?1 29 55 907 0 57 58 52 17e-5 .0075 -17e-5 18 57 905 0 59 54
 60 55 ?1 29 58 894 0 60 61 55 32e-5 -.0025 -32e-5 18 60 892 0 62 57 63 58 ?1 29
 61 886 0 63 64 58 32e-5 -.0025 32e-5 18 63 884 0 65 60 66 61 ?1 29 64 878 0 66
 67 61 -32e-5 -.0025 -32e-5 18 66 876 0 68 63 69 64 ?1 29 67 875 0 69 70 64 -32e
-5 -.0025 32e-5 18 69 873 0 71 66 72 67 ?1 29 70 866 0 72 73 67 -17e-5 -.003 17e
-5 18 72 864 0 74 69 75 70 ?1 29 73 862 0 75 76 70 17e-5 -.003 17e-5 18 75 860 0
 77 72 78 73 ?1 29 76 858 0 78 79 73 17e-5 -.003 -17e-5 18 78 856 0 80 75 81 76
 ?1 29 79 855 0 81 82 76 -17e-5 -.003 -17e-5 18 81 853 0 83 78 84 79 ?1 29 82 63
7 0 84 85 79 -32e-5 .0025 32e-5 18 84 635 0 39 81 86 82 ?1 29 85 634 0 86 87 82
 32e-5 .0025 32e-5 18 86 632 0 88 84 89 85 ?1 29 87 628 0 89 90 85 32e-5 .0025 -
32e-5 18 89 626 0 91 86 92 87 ?1 29 90 619 0 92 93 87 -32e-5 6e-4 32e-5 18 92 61
7 0 94 89 95 90 ?1 29 93 615 0 95 96 90 32e-5 6e-4 32e-5 18 95 613 0 97 92 98 93
 ?1 29 96 608 0 98 99 93 -32e-5 6e-4 -32e-5 18 98 606 0 100 95 101 96 ?1 29 99 4
55 0 101 102 96 .0013 0 -7e-4 18 101 453 0 103 98 104 99 ?1 29 102 135 0 105 106
 99 .001 0 -.00125 18 105 118 0 107 108 109 102 ?1 29 106 136 0 109 110 102 .001
25 0 -.001 18 109 119 0 111 105 112 106 ?1 29 110 138 0 112 113 106 .001 0 .0012
5 18 112 121 0 114 109 115 110 ?1 29 113 139 0 115 116 110 -.001 0 .00125 18 115
 122 0 117 112 118 113 ?1 29 116 140 0 118 119 113 -.00125 0 .001 18 118 123 0 1
20 115 121 116 ?1 29 119 142 0 121 122 116 -.001 0 -.00125 18 121 125 0 123 118
 124 119 ?1 29 122 60 0 104 125 119 .001 .0025 -.00125 18 104 58 0 126 101 127 1
22 ?1 29 125 57 0 127 128 122 .00125 .0025 -.001 18 127 55 0 129 104 130 125 ?1
 29 128 54 0 130 131 125 .00125 .0025 .001 18 130 52 0 132 127 133 128 ?1 29 131
 51 0 133 134 128 .001 .0025 .00125 18 133 49 0 135 130 136 131 ?1 29 134 48 0 1
36 137 131 -.001 .0025 .00125 18 136 46 0 138 133 139 134 ?1 29 137 45 0 139 140
 134 -.00125 .0025 .001 18 139 43 0 141 136 142 137 ?1 29 140 42 0 142 143 137 -
.00125 .0025 -.001 18 142 40 0 144 139 108 140 ?1 29 143 39 0 108 145 140 -.001
 .0025 -.00125 18 108 37 0 146 142 105 143 ?1 29 145 322 0 147 148 143 -.00125 0
 -.001 18 147 273 0 149 150 151 145 ?1 29 148 323 0 152 153 145 -.0013 0 .001 18
 152 271 0 154 151 155 148 ?1 29 153 326 0 150 156 148 -.0013 .0025 -.001 18 150
 274 0 157 124 147 153 ?1 29 156 327 0 124 158 153 -.0013 .0025 .001 18 124 275
 0 159 121 150 156 ?1 29 158 329 0 151 160 156 -.0013 0 -.001 18 151 272 0 161 1
47 152 158 ?1 29 160 411 0 162 163 158 .0013 0 .001 18 162 359 0 164 165 166 160
 ?1 29 163 412 0 166 167 160 .0013 0 -.001 18 166 358 0 168 162 169 163 ?1 29 16
7 415 0 170 171 163 .0013 .0025 .001 18 170 363 0 172 155 165 167 ?1 29 171 416
 0 155 173 167 .0013 .0025 -.001 18 155 364 0 174 152 170 171 ?1 29 173 417 0 16
5 175 171 .00125 0 .001 18 165 360 0 176 170 162 173 ?1 29 175 581 0 169 177 173
 -.0013 6e-4 7e-4 18 169 532 0 178 166 179 175 ?1 29 177 582 0 179 180 175 -.001
3 6e-4 -7e-4 18 179 534 0 181 169 182 177 ?1 29 180 583 0 182 183 177 -.0013 0 -
7e-4 18 182 536 0 184 179 185 180 ?1 29 183 584 0 185 186 180 -.0013 0 7e-4 18 1
85 538 0 187 182 188 183 ?1 29 186 585 0 188 189 183 .0013 6e-4 7e-4 18 188 533
 0 190 185 191 186 ?1 29 189 586 0 191 192 186 .0013 6e-4 -7e-4 18 191 535 0 193
 188 194 189 ?1 29 192 588 0 194 195 189 .0013 0 7e-4 18 194 531 0 196 191 197 1
92 ?1 29 195 800 0 197 198 192 32e-5 6e-4 -32e-5 18 197 719 0 199 194 200 195 ?1
 29 198 802 0 200 0 195 -32e-5 .0025 -32e-5 18 200 715 0 32 197 0 198 ?1 17 32 0
 31 201 29 200 35 202 0 203 +15 255 31 724 0 33 204 0 17 201 0 31 33 32 84 203 2
05 0 0 +17 35 0 206 26 207 11 32 202 0 208 -16 202 945 209 ?32 210 211 212 211 2
11 1 17 203 0 213 91 214 200 201 205 0 207 -15 213 627 0 88 215 216 17 91 0 213
 88 203 89 207 217 0 218 -17 214 0 213 203 88 84 219 220 0 201 +16 205 648 221 ?
201 222 223 224 0 0 1 17 207 0 206 35 225 200 91 217 0 0 +15 206 745 0 35 226 0
 17 225 0 206 207 26 89 227 210 0 0 -16 217 681 228 ?207 220 229 230 0 0 1 81 2
 228 1697 231 217 0 0 232 233 0 0 16 220 700 234 ?214 223 217 235 0 0 1 16 229 8
85 232 ?97 217 236 237 236 236 1 30 230 782 0 217 238 235 0 +0 .0025 -32e-5 -1 0
 0 30 238 788 0 239 212 230 0 +32e-5 .0075 -32e-5 -118745952224603e-30 1 0 30 23
5 781 0 220 230 240 0 +0 .0025 32e-5 -1 0 0 30 240 780 0 223 235 224 0 +32e-5 .0
025 0 0 0 -1 16 223 654 241 ?218 205 220 240 0 0 1 30 224 779 0 205 240 242 0 +-
32e-5 .0025 0 0 0 1 30 242 580 0 222 224 243 0 +.0013 0 7e-4 0 -1 0 16 222 519 2
44 ?196 245 205 242 0 0 1 30 243 578 0 245 242 246 0 +.0013 0 -7e-4 0 1 0 16 245
 525 247 ?248 249 222 243 0 0 1 30 246 577 0 249 243 250 0 +.0013 6e-4 7e-4 0 0
 1 16 249 528 251 ?252 253 245 246 0 0 1 30 250 576 0 253 246 254 0 +-.0013 0 7e
-4 0 -1 0 16 253 504 255 ?256 257 249 250 0 0 1 30 254 574 0 257 250 258 0 +-.00
13 0 -7e-4 0 1 0 16 257 512 259 ?260 261 253 254 0 0 1 30 258 573 0 261 254 262
 0 +-.0013 6e-4 7e-4 0 0 1 16 261 508 263 ?264 265 257 258 0 0 1 30 262 572 0 26
6 258 267 0 +-.0013 6e-4 7e-4 1 0 0 16 266 507 268 ?190 269 270 262 0 0 1 30 267
 571 0 270 262 271 0 +-.0013 6e-4 -7e-4 1 0 0 16 270 511 272 ?193 266 273 267 0
 0 1 30 271 570 0 273 267 274 0 +-.0013 0 -7e-4 1 0 0 16 273 515 275 ?103 270 26
5 271 0 0 1 30 274 569 0 265 271 276 0 +-.0013 0 7e-4 1 0 0 16 265 503 277 ?278
 273 261 274 0 0 1 30 276 409 0 279 274 280 0 +.0013 .0025 -.001 0 0 -1 16 279 3
47 281 ?282 283 284 276 0 0 1 30 280 408 0 284 276 285 0 +.00125 .0025 .001 1 0
 0 16 284 344 286 ?287 279 269 280 0 0 1 30 285 406 0 269 280 288 0 +.00125 .002
5 -.001 -1 0 0 16 269 338 289 ?290 284 266 285 0 0 1 30 288 404 0 291 285 292 0
 +.00125 0 -.001 -1 0 0 16 291 356 293 ?294 295 296 288 0 0 1 30 292 403 0 297 2
88 298 0 +.0013 0 -.001 0 0 -1 16 297 354 299 ?300 296 301 292 301 301 1 30 298
 402 0 283 292 302 0 +.00125 0 .001 1 0 0 16 283 352 303 ?304 305 279 298 0 0 1
 30 302 401 0 296 298 306 0 +.0013 -.002000624902374255 -.001 0 1 0 16 296 355 3
07 ?174 291 297 302 0 0 1 30 306 400 0 305 302 308 0 +.0013 -.002000624902374255
 .001 0 1 0 16 305 353 309 ?172 301 283 306 0 0 1 30 308 321 0 310 306 311 0 +-.
00125 .0025 .001 1 0 0 16 310 259 312 ?313 314 315 308 0 0 1 30 311 320 0 315 30
8 316 0 +-.0013 .0025 -.001 0 0 1 16 315 256 317 ?318 310 295 311 0 0 1 30 316 3
19 0 295 311 319 0 +-.00125 .0025 -.001 -1 0 0 16 295 253 320 ?321 315 291 316 0
 0 1 30 319 317 0 314 316 322 0 +-.00125 0 -.001 -1 0 0 16 314 262 323 ?324 325
 310 319 0 0 1 30 322 315 0 326 319 327 0 +-.00125 0 .001 1 0 0 16 326 266 328 ?
329 330 331 322 0 0 1 30 327 314 0 332 322 333 0 +-.0013 0 -.001 0 0 1 16 332 26
4 334 ?335 331 336 327 336 336 1 30 333 312 0 331 327 337 0 +-.0013 -.0020006249
02374255 .001 0 1 0 16 331 265 338 ?159 326 332 333 0 0 1 30 337 311 0 325 333 3
39 0 +-.0013 -.002000624902374255 -.001 0 1 0 16 325 263 340 ?157 336 314 337 0
 0 1 30 339 7 0 341 337 342 0 +-.001 .0025 -.00125 -1 0 0 16 341 5 343 ?344 345
 346 339 0 0 1 30 342 11 0 345 339 347 0 +-.00125 .0025 -.001 -.707106781186548
 0 .707106781186548 16 345 9 348 ?144 349 341 342 0 0 1 30 347 19 0 349 342 350
 0 +-.00125 .0025 .001 .707106781186548 0 .707106781186548 16 349 17 233 ?138 35
1 345 347 0 0 1 30 350 23 0 351 347 352 0 +-.001 .0025 .00125 1 0 0 16 351 21 35
3 ?135 354 349 350 0 0 1 30 352 27 0 354 350 355 0 +.001 .0025 .00125 .707106781
186548 0 -.707106781186548 16 354 25 356 ?132 357 351 352 0 0 1 30 355 35 0 357
 352 358 0 +.001 .0025 -.00125 -.707106781186548 0 -.707106781186548 16 357 33 3
59 ?126 360 354 355 0 0 1 30 358 134 0 330 355 361 0 +-.001 0 -.00125 -1 0 0 16
 330 114 362 ?363 364 326 358 0 0 1 30 361 133 0 364 358 365 0 +-.00125 0 -.001
 -.707106781186548 0 .707106781186548 16 364 110 366 ?149 367 330 361 0 0 1 30 3
65 131 0 367 361 368 0 +-.00125 0 .001 .707106781186548 0 .707106781186548 16 36
7 102 369 ?117 370 364 365 0 0 1 30 368 130 0 370 365 371 0 +-.001 0 .00125 1 0
 0 16 370 98 372 ?114 373 367 368 0 0 1 30 371 129 0 373 368 374 0 +.001 0 .0012
5 .707106781186548 0 -.707106781186548 16 373 94 375 ?176 346 370 371 0 0 1 30 3
74 127 0 346 371 376 0 +.001 0 -.00125 -.707106781186548 0 -.707106781186548 16
 346 86 377 ?107 341 373 374 0 0 1 30 376 175 0 360 374 378 0 +.001 .0025 -.0012
5 0 -1 0 16 360 143 379 ?380 381 357 376 0 0 1 30 378 176 0 381 376 382 0 +.0012
5 .0025 -.001 0 -1 0 16 381 144 383 ?111 384 360 378 0 0 1 30 382 177 0 384 378
 385 0 +.00125 .0025 .001 0 -1 0 16 384 145 386 ?387 388 381 382 0 0 1 30 385 17
8 0 388 382 389 0 +.001 .0025 .00125 0 -1 0 16 388 146 390 ?391 392 384 385 0 0
 1 30 389 179 0 392 385 393 0 +-.001 .0025 .00125 0 -1 0 16 392 147 394 ?395 396
 388 389 0 0 1 30 393 180 0 396 389 397 0 +-.00125 .0025 .001 0 -1 0 16 396 148
 398 ?120 399 392 393 0 0 1 30 397 181 0 399 393 400 0 +-.00125 .0025 -.001 0 -1
 0 16 399 149 401 ?402 403 396 397 0 0 1 30 400 182 0 403 397 404 0 +-.001 .0025
 -.00125 0 -1 0 16 403 150 405 ?406 407 399 400 0 0 1 30 404 612 0 407 400 408 0
 +-.0013 6e-4 -32e-5 1 0 0 16 407 610 409 ?410 411 403 404 0 0 1 30 408 616 0 41
1 404 412 0 +32e-5 6e-4 7e-4 0 0 1 16 411 614 413 ?414 415 407 408 0 0 1 30 412
 620 0 415 408 416 0 +-32e-5 6e-4 7e-4 0 0 -1 16 415 618 417 ?418 419 411 412 0
 0 1 30 416 623 0 419 412 420 0 +-.0013 6e-4 32e-5 1 0 0 16 419 621 421 ?422 423
 415 416 0 0 1 30 420 859 0 423 416 424 0 +-32e-5 -.003 -17e-5 1 0 0 16 423 857
 425 ?80 426 419 420 0 0 1 30 424 863 0 426 420 427 0 +17e-5 -.003 32e-5 0 0 1 1
6 426 861 428 ?77 429 423 424 0 0 1 30 427 867 0 429 424 430 0 +-32e-5 -.003 17e
-5 -1 0 0 16 429 865 431 ?74 432 426 427 0 0 1 30 430 870 0 432 427 433 0 +-17e-
5 -.003 32e-5 0 0 -1 16 432 868 434 ?435 436 429 430 0 0 1 30 433 881 0 436 430
 437 0 +-32e-5 -.0025 32e-5 0 0 1 16 436 879 438 ?439 440 432 433 0 0 1 30 437 8
89 0 440 433 441 0 +32e-5 -.0025 32e-5 1 0 0 16 440 887 442 ?65 443 436 437 0 0
 1 30 441 897 0 443 437 444 0 +32e-5 -.0025 32e-5 0 0 -1 16 443 895 445 ?62 446
 440 441 0 0 1 30 444 902 0 446 441 447 0 +0 -.0025 -32e-5 -1 0 0 16 446 900 448
 ?68 449 443 444 0 0 1 30 447 911 0 449 444 450 0 +-32e-5 .0075 -17e-5 -1 0 0 16
 449 909 451 ?56 452 446 447 0 0 1 30 450 915 0 452 447 453 0 +-17e-5 .0075 32e-
5 0 0 1 16 452 913 454 ?53 455 449 450 0 0 1 30 453 919 0 455 450 456 0 +32e-5 .
0075 17e-5 1 0 0 16 455 917 457 ?50 458 452 453 0 0 1 30 456 922 0 458 453 459 0
 +17e-5 .0075 32e-5 0 0 -1 16 458 920 460 ?461 462 455 456 0 0 1 30 459 933 0 46
2 456 463 0 +32e-5 .007 32e-5 0 0 1 16 462 931 464 ?465 42 458 459 0 0 1 30 463
 941 0 42 459 466 0 +-32e-5 .007 32e-5 -1 0 0 16 42 939 467 ?36 27 462 463 0 0 1
 30 466 949 0 27 463 28 0 +-32e-5 .007 32e-5 0 0 -1 16 27 947 468 ?29 10 42 466
 0 0 1 30 28 954 0 10 466 469 0 +0 .007 -32e-5 1 0 0 30 469 1011 0 470 28 471 0
 --.000181440677966103 -.00296186440677966 -.0001814406779661015 -.2761723853694
94 .920574617898325 -.2761723853694945 16 470 991 472 ?83 473 21 469 0 0 1 30 47
1 1010 0 473 469 474 0 +-.000295593220338985 -.002581355932203385 .0002955932203
389835 -.276172385369494 .920574617898325 .2761723853694945 16 473 989 475 ?71 4
76 470 471 0 0 1 30 474 1009 0 476 471 477 0 +.00013262711864407 -.0031245762711
8644 -.0001326271186440684 -.276172385369494 -.920574617898325 .2761723853694945
 16 476 986 478 ?479 480 473 474 0 0 1 30 477 1008 0 480 474 481 0 +32e-5 -.0025
 32e-5 .276172385369494 .920574617898325 .2761723853694945 16 480 983 482 ?483 2
11 476 477 0 0 1 30 481 1068 0 484 477 485 0 -.000132627118644069 .0076245762711
8644 -.0001326271186440684 .2761723853694945 -.920574617898325 -.276172385369494
5 16 484 1048 486 ?59 487 0 481 0 0 1 30 485 1067 0 487 481 22 0 +.0002955932203
38984 .00708135593220338 .0002955932203389835 .2761723853694945 -.92057461789832
5 .2761723853694945 16 487 1046 488 ?47 489 484 485 0 0 1 30 22 1066 0 489 485 7
 0 +-.000181440677966102 .00746186440677966 -.0001814406779661015 .2761723853694
94 .920574617898325 .2761723853694945 16 489 1043 490 ?491 21 487 22 0 0 1 81 2
 490 1660 231 489 0 0 488 492 0 0 17 491 0 493 494 495 54 208 489 0 0 +16 21 104
0 496 ?497 470 489 7 0 0 1 81 2 496 1620 231 21 0 0 323 457 0 0 17 497 0 498 41
 499 30 500 21 0 0 +15 498 1030 0 497 501 0 17 41 0 498 502 497 43 36 42 0 465 -
17 499 0 498 497 502 51 50 455 0 0 -17 500 0 503 504 34 51 497 21 0 499 -15 503
 1028 0 208 19 0 17 504 0 503 208 500 54 53 452 0 491 -17 34 0 503 500 208 30 29
 27 0 497 -17 208 0 503 34 504 11 491 489 0 495 -17 495 0 493 491 505 11 26 10 0
 0 -15 493 1032 0 491 506 0 17 505 0 493 495 494 37 59 484 0 0 -17 26 0 206 225
 35 37 495 10 0 227 +17 227 0 507 465 218 37 225 210 0 508 +15 507 732 0 227 509
 0 17 465 0 507 510 227 43 508 462 0 40 +17 218 0 507 227 510 89 88 223 0 225 +1
6 210 655 511 ?227 239 202 238 239 239 1 17 508 0 512 59 47 37 465 462 0 505 -15
 512 1034 0 47 513 0 17 59 0 512 514 508 57 505 484 0 494 +17 47 0 512 508 514 4
3 502 487 0 41 +17 514 0 512 47 59 48 461 458 0 0 -17 502 0 498 499 41 48 47 487
 0 514 -17 461 0 515 56 50 57 514 458 0 0 +15 515 906 0 50 516 0 17 56 0 515 53
 461 54 494 449 0 504 +17 50 0 515 461 53 48 499 455 0 502 +17 53 0 515 50 56 51
 504 452 0 500 +17 494 0 493 505 491 57 56 449 0 461 -14 255 516 761 517 ?518 22
6 515 5 519 -0 0 518 226 24 81 1 517 1821 520 516 521 0 0 522 523 14 518 970 522
 ?524 516 525 5 526 +0 0 524 516 24 14 226 743 527 ?516 528 206 5 529 -530 530 5
16 528 24 50 519 776 0 516 529 531 0 +-32e-5 .0075 32e-5 0 -1 0 0 0 -1 13 24 62
 0 0 0 0 0 0 9 16 14 16 491 532 ?533 0 534 5 535 +536 536 533 0 24 81 1 532 1824
 520 16 537 0 527 538 539 14 533 166 538 ?540 16 541 5 542 -0 0 540 16 24 15 534
 496 0 278 16 0 50 535 126 0 536 543 544 0 +0 0 0 0 -1 0 0 0 -1 14 536 84 545 ?5
46 215 547 5 535 +16 16 546 215 24 81 1 545 1826 520 536 548 0 538 549 550 14 54
6 286 549 ?551 536 552 5 553 +0 0 551 536 24 14 215 1 554 ?536 555 213 5 543 -0
 0 536 555 24 15 547 489 0 556 536 0 17 556 0 547 161 557 182 103 273 0 335 -17
 161 0 547 558 556 151 335 332 0 559 -17 557 0 547 556 560 101 168 301 0 0 -17 1
03 0 561 248 184 101 556 273 0 562 +17 335 0 563 260 559 182 161 332 0 0 +15 563
 484 0 256 551 0 17 260 0 563 264 335 179 184 257 0 0 +17 559 0 563 335 564 151
 157 325 0 324 -17 564 0 563 559 159 150 318 315 0 321 -17 157 0 552 565 324 150
 559 325 0 564 +17 324 0 552 157 402 151 558 314 0 0 +15 552 289 0 402 546 0 17
 402 0 552 324 565 147 566 399 0 0 +17 558 0 547 123 161 147 324 314 0 402 -17 1
23 0 547 567 558 121 149 364 0 406 -17 567 0 547 568 123 105 363 330 0 0 -17 149
 0 569 566 406 147 123 364 0 558 +17 406 0 569 149 146 121 570 403 0 363 +15 569
 163 0 149 540 0 17 146 0 569 406 566 108 144 345 0 344 -17 570 0 541 571 363 10
8 406 403 0 0 -17 363 0 541 570 380 121 567 330 0 0 +15 541 165 0 363 533 0 17 3
80 0 541 363 571 105 572 360 0 567 +17 571 0 541 380 570 104 344 341 0 0 -17 572
 0 573 129 107 104 380 360 0 571 -15 573 151 0 107 555 0 17 129 0 573 111 572 12
7 126 357 0 574 -17 107 0 573 572 111 105 568 346 0 380 +17 111 0 573 107 129 10
9 574 381 0 568 +17 568 0 547 560 567 109 107 346 0 294 -17 560 0 547 557 568 16
6 294 291 0 575 -17 294 0 576 574 575 109 560 291 0 0 +15 576 389 0 575 577 0 17
 574 0 576 578 294 127 111 381 0 290 -17 575 0 576 294 578 166 174 296 0 0 -17 5
78 0 576 575 574 155 290 269 0 282 -17 174 0 579 580 168 155 575 296 0 578 +15 5
79 465 0 581 582 0 17 580 0 579 583 174 170 282 279 0 0 -17 168 0 579 174 562 16
6 557 301 0 560 +17 562 0 579 168 584 101 248 245 0 557 -16 301 454 585 ?168 297
 305 292 297 297 1 81 2 585 1657 231 301 0 0 255 241 0 0 80 255 2 231 586 587 90
00 0 0 0 0 3 6 0 0 0 FFFFFFTFFFFFFF9 1 81 2 255 1656 231 253 0 0 338 585 0 0 81
 2 241 1658 231 223 0 0 585 488 0 0 81 2 488 1659 231 487 0 0 241 490 0 0 81 2 3
38 1655 231 331 0 0 448 255 0 0 81 2 448 1654 231 446 0 0 343 338 0 0 81 2 343 1
653 231 341 0 0 286 448 0 0 81 2 286 1652 231 284 0 0 268 343 0 0 81 2 268 1651
 231 266 0 0 588 286 0 0 81 2 588 1650 231 589 0 0 464 268 0 0 16 589 937 588 ?3
9 236 590 591 590 590 1 81 2 464 1649 231 462 0 0 390 588 0 0 81 2 390 1648 231
 388 0 0 431 464 0 0 81 2 431 1647 231 429 0 0 482 390 0 0 81 2 482 1646 231 480
 0 0 356 431 0 0 81 2 356 1645 231 354 0 0 383 482 0 0 81 2 383 1644 231 381 0 0
 221 356 0 0 81 2 221 1643 231 205 0 0 259 383 0 0 81 2 259 1642 231 257 0 0 263
 221 0 0 81 2 263 1641 231 261 0 0 592 259 0 0 81 2 592 1640 231 236 0 0 340 263
 0 0 16 236 663 592 ?40 229 589 237 229 229 1 81 2 340 1639 231 325 0 0 511 592
 0 0 81 2 511 1638 231 210 0 0 460 340 0 0 81 2 460 1637 231 458 0 0 328 511 0 0
 81 2 328 1636 231 326 0 0 445 460 0 0 81 2 445 1635 231 443 0 0 451 328 0 0 81
 2 451 1634 231 449 0 0 366 445 0 0 81 2 366 1633 231 364 0 0 353 451 0 0 81 2 3
53 1632 231 351 0 0 386 366 0 0 81 2 386 1631 231 384 0 0 593 353 0 0 81 2 593 1
630 231 590 0 0 25 386 0 0 16 590 672 593 ?594 589 239 591 589 589 1 81 2 25 162
9 231 10 0 0 475 593 0 0 81 2 475 1628 231 473 0 0 369 25 0 0 81 2 369 1627 231
 367 0 0 312 475 0 0 81 2 312 1626 231 310 0 0 281 369 0 0 81 2 281 1625 231 279
 0 0 289 312 0 0 81 2 289 1624 231 269 0 0 409 281 0 0 81 2 409 1623 231 407 0 0
 468 289 0 0 81 2 468 1622 231 27 0 0 457 409 0 0 81 2 457 1621 231 455 0 0 496
 468 0 0 17 594 0 595 65 596 69 597 590 0 0 +16 239 893 598 ?199 590 210 238 210
 210 1 30 591 794 0 589 0 237 0 +-32e-5 .0075 32e-5 -118745952224603e-30 -1 0 30
 237 792 0 229 591 212 0 +32e-5 .0075 32e-5 -118745952224603e-30 1 0 30 212 790
 0 202 237 238 0 +-32e-5 .0075 -32e-5 -118745952224603e-30 -1 0 81 2 598 1675 23
1 239 0 0 467 272 0 0 17 199 0 599 414 62 197 600 239 0 601 +15 599 736 0 602 60
3 0 17 414 0 599 602 199 95 601 411 0 0 +17 62 0 599 199 602 60 604 443 0 600 +1
7 600 0 605 68 410 60 199 239 0 606 -17 601 0 607 100 422 197 414 411 0 410 -15
 607 607 0 94 608 609 17 100 0 607 94 601 98 410 407 0 418 -17 422 0 607 601 94
 95 596 419 0 414 +17 410 0 605 600 610 197 100 407 0 0 +15 605 748 0 600 530 0
 17 610 0 605 410 68 98 611 211 0 0 -17 68 0 605 610 600 66 612 446 0 611 +17 61
1 0 613 439 418 66 610 211 0 614 +16 211 651 492 ?611 202 480 212 202 202 1 81 2
 492 1661 231 211 0 0 490 413 0 0 81 2 413 1662 231 411 0 0 492 244 0 0 81 2 244
 1663 231 222 0 0 413 309 0 0 81 2 309 1664 231 305 0 0 244 398 0 0 81 2 398 166
5 231 396 0 0 309 375 0 0 81 2 375 1666 231 373 0 0 398 277 0 0 81 2 277 1667 23
1 265 0 0 375 478 0 0 81 2 478 1668 231 476 0 0 277 442 0 0 81 2 442 1669 231 44
0 0 0 478 334 0 0 81 2 334 1670 231 332 0 0 442 359 0 0 81 2 359 1671 231 357 0
 0 334 394 0 0 81 2 394 1672 231 392 0 0 359 472 0 0 81 2 472 1673 231 470 0 0 3
94 467 0 0 81 2 467 1674 231 42 0 0 472 598 0 0 15 613 728 0 611 615 0 17 439 0
 613 597 611 69 614 436 0 594 +17 418 0 613 611 597 98 94 415 0 610 +17 614 0 61
6 83 71 66 439 436 0 617 -15 616 977 0 71 618 0 17 83 0 616 619 614 81 617 470 0
 620 +17 71 0 616 614 619 69 621 473 0 622 +17 617 0 623 612 620 66 83 470 0 0 -
15 623 975 0 479 624 0 17 612 0 623 479 617 60 68 446 0 0 -17 620 0 623 617 479
 81 80 423 0 435 -17 479 0 623 620 612 78 606 476 0 0 +17 80 0 625 77 435 78 620
 423 0 626 +17 435 0 625 80 74 81 619 432 0 0 +15 625 854 0 74 627 0 17 74 0 625
 435 77 72 628 429 0 621 +17 619 0 616 71 83 72 435 432 0 0 -17 77 0 625 74 80 7
5 626 426 0 629 +17 628 0 630 483 621 75 74 429 0 0 -17 621 0 630 628 622 72 71
 473 0 619 -15 630 973 0 483 524 0 17 622 0 630 621 483 69 65 440 0 439 -17 483
 0 630 622 628 63 629 480 0 0 +17 65 0 595 97 594 63 622 440 0 602 +15 595 742 0
 594 631 0 17 97 0 595 596 65 95 602 229 0 422 +17 602 0 599 62 414 63 97 229 0
 604 -17 604 0 525 629 606 63 62 443 0 483 -15 525 971 0 606 518 0 17 629 0 525
 626 604 75 483 480 0 628 -17 606 0 525 604 626 60 479 476 0 612 -17 626 0 525 6
06 629 78 77 426 0 479 -17 596 0 595 594 97 92 422 419 0 597 -17 597 0 613 418 4
39 92 594 590 0 0 -14 631 740 632 ?530 627 595 5 633 +528 528 530 627 24 81 1 63
2 1829 520 631 634 0 554 635 636 14 530 746 635 ?603 631 605 5 529 -226 226 603
 631 24 14 627 753 637 ?631 638 625 5 639 -0 0 631 638 24 50 633 778 0 528 0 529
 0 +0 0 32e-5 0 0 1 1 0 0 14 528 737 640 ?226 509 38 5 633 +631 631 226 509 24 8
1 1 640 1832 520 528 641 0 637 642 643 14 509 729 642 ?528 204 507 5 531 -603 60
3 528 204 24 15 38 739 0 40 528 0 17 40 0 38 36 219 43 510 236 0 0 +17 219 0 38
 40 39 86 214 220 0 510 -17 510 0 507 218 465 86 40 236 0 0 -17 39 0 38 219 36 8
4 33 589 0 214 +17 33 0 31 29 201 30 39 589 0 34 -81 1 642 1833 520 509 644 0 64
0 645 646 14 204 721 645 ?509 615 31 5 647 -615 615 509 615 24 50 531 775 0 509
 519 639 0 +32e-5 .0075 32e-5 -1 -118745952224603e-30 0 118745952224603e-30 -1 0
 14 603 733 648 ?615 530 599 5 531 -509 509 615 530 24 81 1 648 1835 520 603 649
 0 645 650 651 14 615 725 650 ?204 603 613 5 647 -204 204 204 603 24 81 1 650 18
36 520 615 652 0 648 653 654 50 647 773 0 204 639 655 0 +-32e-5 .0075 32e-5 1 -1
18745952224603e-30 0 118745952224603e-30 1 0 50 639 774 0 627 531 647 0 +-32e-5
 -.003 32e-5 0 1 0 0 0 1 50 655 566 0 608 647 656 0 +-.0013 6e-4 7e-4 0 1 0 0 0
 1 14 608 543 653 ?638 657 607 5 655 -0 0 638 657 24 50 656 565 0 638 655 658 0
 +-.0013 0 -7e-4 0 0 -1 -1 0 0 14 638 547 659 ?627 608 561 5 656 -0 0 627 608 24
 50 658 563 0 657 656 660 0 +-.0013 0 7e-4 0 0 1 1 0 0 14 657 539 661 ?608 577 6
62 5 658 -0 0 608 577 24 50 660 396 0 577 658 663 0 +.00125 -.002000624902374255
 -.001 0 0 -1 -1 0 0 14 577 386 664 ?657 582 576 5 660 +0 0 657 582 24 50 663 39
5 0 582 660 665 0 +.0013 -.002000624902374255 -.001 1 0 0 0 0 -1 14 582 382 666
 ?577 667 579 5 663 +0 0 577 667 24 50 665 394 0 667 663 668 0 +.00125 -.0020006
24902374255 .001 0 0 1 1 0 0 14 667 378 669 ?582 670 671 5 665 +0 0 582 670 24 5
0 668 307 0 670 665 672 0 +-.00125 -.002000624902374255 .001 0 0 1 1 0 0 14 670
 294 673 ?667 551 674 5 668 +0 0 667 551 24 50 672 306 0 551 668 553 0 +-.0013 -
.002000624902374255 -.001 -1 0 0 0 0 1 14 551 290 675 ?670 546 563 5 672 +0 0 67
0 546 24 50 553 305 0 546 672 543 0 +-.00125 -.002000624902374255 -.001 0 0 -1 -
1 0 0 50 543 3 0 215 553 535 0 +0 .0025 0 0 -1 0 0 0 -1 81 1 675 1844 520 551 67
6 0 673 677 678 80 1 520 679 680 9000 1 1 1 1 1 1 1 1 0 FFFFTFTFFFFFFF1 81 1 676
 1715 681 551 682 675 683 684 685 81 1 673 1843 520 670 684 0 669 675 686 81 1 6
77 1845 520 555 687 0 675 688 689 82 255 1 678 -954400553 14 555 152 677 ?215 69
0 573 5 544 -0 0 215 690 24 81 1 687 1711 681 555 691 677 692 693 694 81 1 688 1
846 520 690 692 0 677 695 696 82 1 689 -560856885 14 690 156 688 ?555 697 698 5
 699 -0 0 555 697 24 81 1 692 1710 681 690 700 688 701 687 702 81 1 695 1847 520
 697 701 0 688 703 704 82 1 696 -560332597 14 697 158 695 ?690 705 706 5 707 -0
 0 690 705 24 81 1 701 1709 681 697 708 695 709 692 710 81 1 703 1848 520 705 70
9 0 695 711 712 82 1 704 -560070511 14 705 160 703 ?697 540 713 5 714 -0 0 697 5
40 24 81 1 709 1708 681 705 715 703 716 701 717 81 1 711 1849 520 540 716 0 703
 718 719 82 1 712 -559808309 14 540 164 711 ?705 533 569 5 720 -0 0 705 533 24 8
1 1 716 1707 681 540 721 711 722 709 723 81 1 718 1850 520 513 724 0 711 725 726
 82 1 719 -559284021 14 513 1033 718 ?0 506 512 5 727 +0 0 0 506 24 81 1 724 174
0 681 513 728 718 729 0 730 81 1 725 1851 520 506 729 0 718 731 732 82 1 726 896
336118 14 506 1031 725 ?513 501 493 5 733 +0 0 513 501 24 81 1 729 1739 681 506
 734 725 735 724 736 81 1 731 1852 520 501 735 0 725 737 738 82 1 732 897908982
 14 501 1029 731 ?506 19 498 5 20 +0 0 506 19 24 81 1 735 1738 681 501 739 731 7
40 729 741 81 1 737 1853 520 19 740 0 731 742 743 82 1 738 899219702 14 19 1027
 737 ?501 618 503 5 6 +0 0 501 618 24 81 1 740 1737 681 19 744 737 745 735 746 8
1 1 742 1854 520 618 745 0 737 747 748 82 1 743 900399350 14 618 976 742 ?19 624
 616 5 749 +0 0 19 624 24 81 1 745 1736 681 618 750 742 751 740 752 81 1 747 185
5 520 624 751 0 742 753 754 82 1 748 890962166 14 624 974 747 ?618 524 623 5 755
 +0 0 618 524 24 81 1 751 1735 681 624 756 747 757 745 758 81 1 753 1856 520 524
 757 0 747 0 759 82 1 754 892535030 14 524 972 753 ?624 518 630 5 760 +0 0 624 5
18 24 81 1 757 1734 681 524 761 753 762 751 763 82 1 759 893845750 80 1 681 0 76
4 8001 0 0 0 0 3 5 0 0 0 FFFFTFTFFFFFFF2 81 2 761 1568 765 524 0 757 766 756 0 0
 81 1 762 1733 681 518 766 522 521 757 767 83 255 3 763 1 1 1 81 2 766 1566 765
 518 0 762 768 761 0 0 81 1 522 1822 520 518 762 0 517 527 769 81 1 521 1732 681
 516 768 517 770 762 771 83 3 767 1 1 1 81 2 768 1564 765 516 0 521 772 766 0 0
 81 1 770 1731 681 226 772 527 641 521 773 83 3 771 1 1 1 81 2 772 1562 765 226
 0 770 774 768 0 0 81 1 527 1823 520 226 770 0 522 532 775 81 1 641 1730 681 528
 774 640 644 770 776 83 3 773 1 1 1 81 2 774 1560 765 528 0 641 777 772 0 0 81 1
 644 1729 681 509 777 642 778 641 779 83 3 776 1 1 1 81 2 777 1558 765 509 0 644
 780 774 0 0 81 1 778 1728 681 204 780 645 652 644 781 83 3 779 1 1 1 81 2 780 1
556 765 204 0 778 782 777 0 0 81 1 645 1834 520 204 778 0 642 648 783 81 1 652 1
727 681 615 782 650 649 778 784 83 3 781 1 1 1 81 2 782 1554 765 615 0 652 785 7
80 0 0 81 1 649 1726 681 603 785 648 786 652 787 83 3 784 1 1 1 81 2 785 1552 76
5 603 0 649 788 782 0 0 81 1 786 1725 681 530 788 635 634 649 789 83 3 787 1 1 1
 81 2 788 1550 765 530 0 786 790 785 0 0 81 1 635 1830 520 530 786 0 632 637 791
 81 1 634 1724 681 631 790 632 792 786 793 83 3 789 1 1 1 81 2 790 1548 765 631
 0 634 794 788 0 0 81 1 792 1723 681 627 794 637 795 634 796 83 3 793 1 1 1 81 2
 794 1546 765 627 0 792 797 790 0 0 81 1 637 1831 520 627 792 0 635 640 798 81 1
 795 1722 681 638 797 659 799 792 800 83 3 796 1 1 1 81 2 797 1544 765 638 0 795
 801 794 0 0 81 1 659 1838 520 638 795 0 653 661 802 81 1 799 1721 681 608 801 6
53 803 795 804 83 3 800 .203921568627451 .203921568627451 .203921568627451 81 2
 801 1542 765 608 0 799 805 797 0 0 81 1 653 1837 520 608 799 0 650 659 806 81 1
 803 1720 681 657 805 661 807 799 808 83 3 804 .203921568627451 .203921568627451
 .203921568627451 81 2 805 1540 765 657 0 803 809 801 0 0 81 1 661 1839 520 657
 803 0 659 664 810 81 1 807 1719 681 577 809 664 811 803 812 83 3 808 .203921568
627451 .203921568627451 .203921568627451 81 2 809 1538 765 577 0 807 813 805 0 0
 81 1 664 1840 520 577 807 0 661 666 814 81 1 811 1718 681 582 813 666 815 807 8
16 83 3 812 .203921568627451 .203921568627451 .203921568627451 81 2 813 1536 765
 582 0 811 817 809 0 0 81 1 666 1841 520 582 811 0 664 669 818 81 1 815 1717 681
 667 817 669 684 811 819 83 3 816 .203921568627451 .203921568627451 .20392156862
7451 81 2 817 1534 765 667 0 815 820 813 0 0 81 1 669 1842 520 667 815 0 666 673
 821 81 1 684 1716 681 670 820 673 676 815 822 83 3 819 .203921568627451 .203921
568627451 .203921568627451 81 2 820 1532 765 670 0 684 682 817 0 0 83 3 822 .203
921568627451 .203921568627451 .203921568627451 80 2 765 823 824 9000 0 0 0 0 3 6
 0 0 0 FFFFTFFFFFFFFF9 1 81 2 682 1530 765 551 0 676 825 820 0 0 81 2 825 1528 7
65 546 0 683 826 682 0 0 81 1 683 1714 681 546 825 549 548 676 827 81 2 826 1526
 765 536 0 548 828 825 0 0 81 1 548 1713 681 536 826 545 693 683 829 81 2 828 15
24 765 215 0 693 691 826 0 0 81 1 693 1712 681 215 828 554 687 548 830 81 2 691
 1522 765 555 0 687 700 828 0 0 81 2 700 1520 765 690 0 692 708 691 0 0 81 2 708
 1518 765 697 0 701 715 700 0 0 81 2 715 1516 765 705 0 709 721 708 0 0 81 2 721
 1514 765 540 0 716 831 715 0 0 81 2 831 1512 765 533 0 722 832 721 0 0 81 1 722
 1706 681 533 831 538 537 716 833 81 2 832 1510 765 16 0 537 0 831 0 0 81 1 537
 1705 681 16 832 532 0 722 834 83 3 834 .203921568627451 .203921568627451 .20392
1568627451 81 1 538 1825 520 533 722 0 532 545 835 83 3 833 .203921568627451 .20
3921568627451 .203921568627451 82 1 835 -559021935 81 1 554 1828 520 215 693 0 5
49 632 836 83 3 830 .203921568627451 .203921568627451 .203921568627451 81 1 549
 1827 520 546 683 0 545 554 837 82 1 836 632357109 82 1 837 -956890933 83 3 829
 .203921568627451 .203921568627451 .203921568627451 83 3 827 .203921568627451 .2
03921568627451 .203921568627451 79 255 14 824 FACE_ID_2_200182 1 821 -934739765
 82 1 818 -933953321 82 1 814 -933494581 82 1 810 388890839 82 1 806 646185205 8
2 1 802 388628695 82 1 798 869925110 82 1 791 877199606 82 1 783 882245878 82 1
 775 877658358 82 1 769 895025398 81 2 756 1570 765 624 0 751 761 750 0 0 81 2 7
50 1572 765 618 0 745 756 744 0 0 81 2 744 1574 765 19 0 740 750 739 0 0 81 2 73
9 1576 765 501 0 735 744 734 0 0 81 2 734 1578 765 506 0 729 739 728 0 0 81 2 72
8 1580 765 513 0 724 734 0 0 0 79 15 764 SDL/TYSA_COLOUR50 760 1002 838 524 755
 526 0 +0 -.0025 32e-5 0 -.2873478855663425 .957826285221152 -1 0 0 81 2 838 100
3 839 760 0 0 840 841 842 843 50 755 1004 841 624 749 760 0 --32e-5 -.003 -17e-5
 0 .2873478855663425 .957826285221152 1 0 0 50 526 1000 840 518 760 727 0 -32e-5
 -.0025 32e-5 -.957826285221152 .287347885566342 0 0 0 -1 81 2 840 1001 839 526
 0 0 0 838 844 845 50 727 1063 846 513 526 733 0 -17e-5 .0075 32e-5 -.9578262852
21152 -.2873478855663425 0 0 0 -1 81 2 846 1064 839 727 0 0 847 0 848 849 50 733
 1061 847 506 727 20 0 --32e-5 .0075 -17e-5 0 -.2873478855663425 .95782628522115
2 -1 0 0 81 2 847 1062 839 733 0 0 850 846 851 852 50 20 1059 850 501 733 6 0 +0
 .007 32e-5 0 .2873478855663425 .957826285221152 1 0 0 81 2 850 1060 839 20 0 0
 18 847 853 854 80 2 839 855 856 8044 0 0 0 0 3 5 0 0 0 FFFFTFFFTTFFFF3 2 81 2 1
8 1058 839 6 0 0 857 850 858 859 84 255 6 853 BACAAB83 4 854 0 .0005220153254455
33 15e-5 .000500000000000006 81 2 857 1007 839 749 0 0 841 18 860 861 84 6 858 B
ACAAB83 4 859 0 .000522015325445533 15e-5 .000500000000000006 50 749 1006 857 61
8 542 755 0 --17e-5 -.003 32e-5 .957826285221152 .2873478855663415 0 0 0 -1 81 2
 841 1005 839 755 0 0 838 857 862 863 84 6 860 BACAAB83 4 861 0 .000522015325445
534 .000500000000000006 15e-5 84 6 862 BACAAB83 4 863 0 .000522015325445533 .000
500000000000006 15e-5 50 542 174 0 533 720 749 0 +-.001 .0025 -.00125 0 0 1 1 0
 0 50 720 173 0 540 714 542 0 +-.00125 .0025 -.001 .707106781186548 0 .707106781
186548 .707106781186548 0 -.707106781186548 50 714 171 0 705 707 720 0 +-.00125
 .0025 .001 .707106781186548 0 -.707106781186548 -.707106781186548 0 -.707106781
186548 50 707 170 0 697 699 714 0 +-.001 .0025 .00125 0 0 -1 -1 0 0 50 699 169 0
 690 544 707 0 +.001 .0025 .00125 -.707106781186548 0 -.707106781186548 -.707106
781186548 0 .707106781186548 50 544 167 0 555 535 699 0 +.001 .0025 -.00125 -.70
7106781186548 0 .707106781186548 .707106781186548 0 .707106781186548 79 17 856 S
DL/TYSA_BLEND_ID84 6 851 BACAAB83 4 852 0 .000522015325445533 .00050000000000000
6 15e-5 84 6 848 BACAAB83 4 849 0 .000522015325445533 .000500000000000006 15e-5
 84 6 844 BACAAB83 4 845 0 .000522015325445534 15e-5 .000500000000000006 84 6 84
2 BACAAB83 4 843 0 .000522015325445533 15e-5 .000500000000000006 83 3 758 1 1 1
 83 3 752 1 1 1 83 3 746 1 1 1 83 3 741 1 1 1 83 3 736 1 1 1 83 3 730 1 1 1 83 3
 723 .203921568627451 .203921568627451 .203921568627451 83 3 717 .20392156862745
1 .203921568627451 .203921568627451 15 713 159 0 117 705 0 17 117 0 713 864 120
 115 865 367 0 395 +17 864 0 713 141 117 136 395 392 0 866 -17 120 0 713 117 141
 118 867 396 0 865 +17 865 0 534 868 869 118 117 367 0 329 -17 395 0 706 114 866
 115 864 392 0 869 +15 706 157 0 114 697 0 17 114 0 706 870 395 112 869 370 0 39
1 +17 866 0 706 395 870 136 135 351 0 0 -17 869 0 534 865 871 115 114 370 0 0 -1
7 871 0 534 869 872 112 176 373 0 0 -17 872 0 534 871 164 165 304 283 0 387 -17
 176 0 698 873 391 165 871 373 0 872 +15 698 155 0 176 690 0 17 873 0 698 874 17
6 130 387 384 0 875 -17 391 0 698 176 874 112 870 388 0 871 +17 874 0 698 391 87
3 133 132 354 0 0 -17 870 0 706 866 114 133 391 388 0 874 -17 132 0 216 287 135
 130 874 354 0 873 +15 216 4 0 344 215 0 17 287 0 216 282 132 170 875 284 0 580
 +17 135 0 216 132 138 133 866 351 0 870 +17 138 0 216 135 313 136 141 349 0 864
 +17 313 0 216 138 318 139 876 310 0 0 +17 141 0 713 120 864 139 138 349 0 867 -
17 867 0 674 876 329 139 120 396 0 313 -15 674 297 0 877 670 0 17 876 0 674 877
 867 124 313 310 0 0 -17 329 0 674 867 877 118 868 326 0 0 +17 877 0 674 329 876
 152 159 331 0 0 -17 868 0 534 878 865 152 329 326 0 877 -17 878 0 534 278 868 1
85 154 336 0 0 -17 278 0 534 164 878 194 187 265 0 300 +17 154 0 563 159 256 152
 878 336 0 868 +16 336 473 879 ?154 332 325 327 332 332 1 81 2 879 1681 231 336
 0 0 401 454 0 0 81 2 401 1680 231 399 0 0 348 879 0 0 81 2 454 1682 231 452 0 0
 879 307 0 0 81 2 307 1683 231 296 0 0 454 372 0 0 81 2 372 1684 231 370 0 0 307
 421 0 0 81 2 421 1685 231 419 0 0 372 417 0 0 81 2 417 1686 231 415 0 0 421 275
 0 0 81 2 275 1687 231 273 0 0 417 303 0 0 81 2 303 1688 231 283 0 0 275 209 0 0
 81 2 209 1689 231 202 0 0 303 428 0 0 81 2 428 1690 231 426 0 0 209 251 0 0 81
 2 251 1691 231 249 0 0 428 317 0 0 81 2 317 1692 231 315 0 0 251 234 0 0 81 2 2
34 1693 231 220 0 0 317 405 0 0 81 2 405 1694 231 403 0 0 234 486 0 0 81 2 486 1
695 231 484 0 0 405 232 0 0 81 2 232 1696 231 229 0 0 486 228 0 0 81 2 348 1679
 231 345 0 0 320 401 0 0 81 2 320 1678 231 295 0 0 247 348 0 0 81 2 247 1677 231
 245 0 0 272 320 0 0 81 2 272 1676 231 270 0 0 598 247 0 0 17 159 0 563 564 154
 124 877 331 0 318 +17 256 0 563 154 264 185 880 253 0 878 +17 264 0 563 256 260
 169 881 261 0 0 +17 880 0 662 190 187 169 256 253 0 264 -15 662 542 0 187 657 0
 17 190 0 662 196 880 188 178 266 0 252 +17 187 0 662 880 196 185 278 265 0 256
 -17 196 0 662 187 190 194 581 222 0 278 +17 581 0 579 584 300 188 196 222 0 0 -
17 584 0 579 562 581 191 252 249 0 0 -17 300 0 579 581 583 194 164 297 0 0 +17 5
83 0 579 300 580 162 172 305 0 304 -17 164 0 534 872 278 162 300 297 0 583 -17 1
72 0 671 875 304 170 583 305 0 287 +17 304 0 671 172 387 162 872 283 0 0 +15 671
 381 0 387 667 0 17 387 0 671 304 875 165 873 384 0 0 +17 875 0 671 387 172 130
 287 284 0 0 -17 252 0 609 178 193 188 584 249 0 581 +15 609 546 0 178 608 0 17
 178 0 609 881 252 169 190 266 0 880 -17 193 0 609 252 881 191 181 270 0 248 +17
 881 0 609 193 178 179 264 261 0 260 -17 181 0 561 184 248 179 193 270 0 881 -17
 248 0 561 181 103 191 562 245 0 584 +15 561 550 0 181 638 0 17 184 0 561 103 18
1 182 260 257 0 556 -17 318 0 216 313 321 124 564 315 0 876 +17 321 0 216 318 14
4 150 565 295 0 0 +17 144 0 216 321 344 142 146 345 0 566 +17 565 0 552 402 157
 142 321 295 0 0 -17 344 0 216 144 126 108 571 341 0 570 +17 566 0 569 146 149 1
42 402 399 0 565 -17 126 0 216 344 290 104 129 357 0 572 +17 290 0 216 126 282 1
27 578 269 0 0 +17 282 0 216 290 287 155 580 279 0 0 +83 3 710 .203921568627451
 .203921568627451 .203921568627451 83 3 702 .203921568627451 .203921568627451 .2
03921568627451 83 3 694 .203921568627451 .203921568627451 .203921568627451 82 1
 686 -953614133 83 3 685 .203921568627451 .203921568627451 .203921568627451 79 1
4 680 SWEntUnchanged82 1 654 881721590 82 1 651 880738550 82 1 646 881262838 82
 1 643 880345334 50 529 777 0 226 633 519 0 +0 0 -32e-5 0 0 1 1 0 0 82 1 636 879
886582 17 94 0 607 422 100 92 418 415 0 596 -79 19 587 EDGE_PERM_ID_2_200382 1 5
50 -562560809 82 1 539 415432919 82 1 523 869400822 17 88 0 213 214 91 86 218 22
3 0 219 -81 2 323 1619 231 314 0 0 434 496 0 0 81 2 434 1618 231 432 0 0 438 323
 0 0 81 2 438 1617 231 436 0 0 0 434 0 0 81 2 425 1701 231 423 0 0 362 293 0 0 8
1 2 362 1700 231 330 0 0 379 425 0 0 81 2 293 1702 231 291 0 0 425 377 0 0 81 2
 377 1703 231 346 0 0 293 299 0 0 81 2 299 1704 231 297 0 0 377 0 0 0 81 2 379 1
699 231 360 0 0 233 362 0 0 81 2 233 1698 231 349 0 0 228 379 0 0 19 17 184 0 1
 0 9 5 S0 74 4 CI16 index_map_offset0 0 1 dCCZ20 15 12 0 0 753 882 883 884 846 8
85 886 13 728 299 724 2 0 0 0 0 0 0 0 0 81 2 882 605 887 1 0 883 0 0 0 0 81 2 88
3 819 888 1 882 884 0 0 0 889 81 2 884 831 890 1 883 885 0 0 0 891 81 1 885 1113
 892 1 884 886 0 0 893 81 2 886 1151 894 1 885 13 0 0 895 0 81 2 13 1312 896 1 8
86 2 0 0 0 897 80 2 896 898 899 9000 0 0 0 0 3 5 0 0 0 FFTFFFFFFFFFFF9 1 82 1 89
7 1 79 24 899 BODY_IN_LIGHTWEIGHT_PERM80 2 894 900 901 8004 0 0 0 0 3 5 0 0 0 FF
TFFFFFFFFFFF2 3 83 1 895 78e2 79 16 901 SDL/TYSA_DENSITY80 1 892 902 903 9000 1
 1 1 1 1 1 1 1 0 FFTFFFFFFFFFFF1 82 1 893 8462 79 10 903 BODY_MATCH80 2 890 904
 905 9000 0 0 0 0 3 5 0 0 0 FFTFFFFFFFFFFF9 1 82 1 891 103 79 30 905 LAST_BODY_M
ODIFYING_FEATURE_ID80 2 888 906 907 9000 0 0 0 0 3 5 0 0 0 FFTFFFFFFFFFFF9 1 82
 1 889 457 79 19 907 ENT_TIME_STAMP_200180 2 887 908 909 9000 0 0 0 0 3 5 0 0 0
 FFTFFFFFFFFFFF9 1 79 16 909 BODY_RECIPE_200180 2 12 231 910 9000 0 0 0 0 3 5 0
 0 0 FFTFFFFFFFFFFF9 1 82 1 14 105 79 12 910 ATOM_ID_20011 0 
