**ABCDEFGHIJKLMNOPQRSTUVWXYZabcdefghijklmnopqrstuvwxyz**************************
**PARASOLID !"#$%&'()*+,-./:;<=>?@[\]^_`{|}~0123456789**************************
**PART1;
MC=AMD64;
MC_MODEL=AMD64 Family 23 Model 96 Stepping 1, AuthenticAMD;
MC_ID=unknown;
OS=Windows_NT;
OS_RELEASE=unknown;
FRU=Parasolid Version 31.1, build 290,  3- 9-2020;
APPL=SOLIDWORKS 2020-2020196;
SITE=;
USER=unknown;
FORMAT=text;
GUISE=transmit;
KEY=TEMT1000;
FILE=TEMT1000.x_t;
DATE=Sun Jun 26 15:42:15 2022;
**PART2;
SCH=SCH_3101290_31100;
USFLD_SIZE=0;
**PART3;
**END_OF_HEADER*****************************************************************
T51 : TRANSMIT FILE created by modeller version 310129023 SCH_3101290_31100_1300
6222 0 12 34 CCCCCCI4 mesh1006 0 I8 polyline1008 0 CCCCCCCDI5 owner1040 0 CCCCCC
I13 boundary_mesh1006 0 I17 boundary_polyline1008 0 CCCA16 index_map_offset0 0 1
 dA9 index_map82 0 A17 node_id_index_map82 0 A20 schema_embedding_map82 0 A5 chi
ld12 0 A14 lowest_node_id0 0 1 dA16 mesh_offset_data206 0 Z1 1220 2 3 0 0 0 0 0
 0 1e3 1e-8 0 4 0 1 0 1 1 5 6 7 8 0 0 9 10 11 0 0 0 0 0 0 0 81 255 2 2 1192 12 1
 13 0 0 0 0 14 70 11 CI9 list_type0 0 1 uI10 notransmit0 0 1 lCCCDCCDI12 finger_
index0 0 1 dI12 finger_block1012 0 CZ3 0 4 T1 0 0 11 20 1 15 15 13 255 5 141 0 1
 0 16 0 0 17 0 50 255 6 134 0 16 18 0 0 +-.00125 9e-4 .001 .986393923832144 .164
3989873053575 0 -.1643989873053575 .986393923832144 0 30 255 7 513 0 10 19 0 0 +
-.00115 .0014 2e-4 -.196116135138184 -.98058067569092 0 29 255 8 509 0 11 20 0 -
.00122 .00105 2e-4 19 8 CCCCCCCA5 owner12 0 Z9 47 0 1 17 0 21 V0 16 255 10 511 2
2 ?23 0 24 7 0 0 1 18 255 11 507 0 25 0 26 8 ?1 17 255 25 0 27 23 28 11 29 24 0
 30 +18 26 503 0 28 11 31 20 ?1 17 28 0 27 25 32 26 33 34 0 29 -18 31 497 0 23 2
6 35 36 ?1 29 20 505 0 26 36 8 -.00122 .00105 -2e-4 29 36 499 0 31 37 20 -.00125
 9e-4 2e-4 29 37 237 0 35 38 36 .00122 .00105 2e-4 18 35 235 0 39 31 40 37 ?1 29
 38 230 0 40 41 37 .00125 9e-4 -2e-4 18 40 228 0 42 35 43 38 ?1 29 41 227 0 43 4
4 38 .00125 9e-4 2e-4 18 43 225 0 45 40 46 41 ?1 29 44 105 0 47 48 41 -.00125 9e
-4 -.001 18 47 92 0 49 50 51 44 ?1 29 48 106 0 51 52 44 -.00115 .0014 -.001 18 5
1 93 0 53 47 54 48 ?1 29 52 107 0 54 55 48 .00115 .0014 -.001 18 54 94 0 56 51 5
7 52 ?1 29 55 108 0 57 58 52 .00125 9e-4 -.001 18 57 95 0 59 54 60 55 ?1 29 58 1
09 0 60 61 55 .0011 0 -.001 18 60 96 0 62 57 63 58 ?1 29 61 110 0 63 64 58 -.001
1 0 -.001 18 63 97 0 65 60 66 61 ?1 29 64 46 0 46 67 61 -.00125 9e-4 .001 18 46
 44 0 68 43 69 64 ?1 29 67 43 0 69 70 64 -.00115 .0014 .001 18 69 41 0 71 46 72
 67 ?1 29 70 40 0 72 73 67 .00115 .0014 .001 18 72 38 0 74 69 75 70 ?1 29 73 37
 0 75 76 70 .00125 9e-4 .001 18 75 35 0 77 72 78 73 ?1 29 76 34 0 78 79 73 .0011
 0 .001 18 78 32 0 80 75 50 76 ?1 29 79 31 0 50 81 76 -.0011 0 .001 18 50 29 0 8
2 78 47 79 ?1 29 81 429 0 66 83 79 .00122 .00105 -2e-4 18 66 333 0 84 63 85 81 ?
1 29 83 431 0 86 87 81 .00147238284109627 .00105 -2e-4 18 86 332 0 88 89 90 83 ?
1 29 87 432 0 90 91 83 .00209738284109627 .00155 -2e-4 18 90 331 0 92 86 93 87 ?
1 29 91 433 0 93 94 87 .0029 .00155 -2e-4 18 93 330 0 95 90 96 91 ?1 29 94 434 0
 96 97 91 .0029 .0014 -2e-4 18 96 329 0 98 93 99 94 ?1 29 97 435 0 99 100 94 .00
215 .0014 -2e-4 18 99 328 0 101 96 102 97 ?1 29 100 436 0 102 103 97 .001525 9e-
4 -2e-4 18 102 318 0 104 99 105 100 ?1 29 103 439 0 85 106 100 .0014723828410962
7 .00105 2e-4 18 85 325 0 107 66 108 103 ?1 29 106 440 0 108 109 103 .0020973828
4109627 .00155 2e-4 18 108 324 0 110 85 111 106 ?1 29 109 441 0 111 112 106 .002
9 .00155 2e-4 18 111 323 0 113 108 114 109 ?1 29 112 442 0 114 115 109 .0029 .00
14 2e-4 18 114 322 0 116 111 117 112 ?1 29 115 443 0 117 118 112 .00215 .0014 2e
-4 18 117 321 0 119 114 89 115 ?1 29 118 444 0 89 120 115 .001525 9e-4 2e-4 18 8
9 320 0 121 117 86 118 ?1 29 120 701 0 105 122 118 -.00125 9e-4 -2e-4 18 105 606
 0 123 102 124 120 ?1 29 122 703 0 125 126 120 -.001525 9e-4 -2e-4 18 125 593 0
 127 128 129 122 ?1 29 126 704 0 129 130 122 -.00215 .0014 -2e-4 18 129 605 0 13
1 125 132 126 ?1 29 130 705 0 132 133 126 -.0029 .0014 -2e-4 18 132 604 0 134 12
9 135 130 ?1 29 133 706 0 135 136 130 -.0029 .00155 -2e-4 18 135 602 0 137 132 1
38 133 ?1 29 136 707 0 138 139 133 -.00209738284109627 .00155 -2e-4 18 138 600 0
 140 135 141 136 ?1 29 139 708 0 141 142 136 -.00147238284109627 .00105 -2e-4 18
 141 598 0 143 138 0 139 ?1 29 142 711 0 124 144 139 -.001525 9e-4 2e-4 18 124 5
92 0 145 105 146 142 ?1 29 144 712 0 146 147 142 -.00215 .0014 2e-4 18 146 603 0
 148 124 149 144 ?1 29 147 713 0 149 150 144 -.0029 .0014 2e-4 18 149 601 0 151
 146 152 147 ?1 29 150 714 0 152 153 147 -.0029 .00155 2e-4 18 152 599 0 154 149
 155 150 ?1 29 153 715 0 155 156 150 -.00209738284109627 .00155 2e-4 18 155 597
 0 157 152 128 153 ?1 29 156 716 0 128 0 153 -.00147238284109627 .00105 2e-4 18
 128 590 0 158 155 125 156 ?1 17 158 0 159 160 161 128 143 162 0 163 -15 255 159
 612 0 29 164 0 17 160 0 159 29 158 11 163 165 0 0 +17 161 0 159 158 29 141 166
 167 0 168 -17 143 0 169 170 171 141 158 162 0 161 +16 162 558 172 ?143 173 174
 175 0 0 1 17 163 0 176 177 30 128 160 165 0 171 -15 176 619 0 30 178 0 17 177 0
 176 179 163 155 171 180 0 181 -17 30 0 176 163 182 11 23 10 0 160 -16 165 517 1
83 ?160 180 184 185 0 0 1 17 171 0 169 143 157 128 177 180 0 0 +15 169 634 0 170
 186 0 17 157 0 169 171 170 155 140 174 0 177 -16 180 555 187 ?171 188 165 189 0
 0 1 81 2 187 1042 190 180 0 0 191 192 0 0 16 188 559 193 ?181 194 180 195 0 0 1
 30 189 695 0 180 185 195 0 +-.00209738284109627 .00155 2e-4 .78086880944303 -.6
24695047554425 0 30 185 696 0 165 0 189 0 +-.00147238284109627 .00105 2e-4 1 0 0
 30 195 694 0 188 189 196 0 +-.0029 .00155 2e-4 1 0 0 30 196 693 0 194 195 197 0
 +-.0029 .0014 2e-4 0 1 0 16 194 563 198 ?199 200 188 196 0 0 1 30 197 692 0 200
 196 201 0 +-.00215 .0014 2e-4 -1 0 0 16 200 567 202 ?203 204 194 197 0 0 1 30 2
01 691 0 204 197 205 0 +-.001525 9e-4 2e-4 -.780868809443031 .624695047554424 0
 16 204 571 206 ?207 208 200 201 0 0 1 30 205 690 0 208 201 209 0 +-.0011 9e-4 2
e-4 -1 0 0 16 208 520 192 ?145 210 204 205 0 0 1 30 209 688 0 167 205 211 0 +-.0
0147238284109627 .00105 -2e-4 1 0 0 16 167 524 212 ?166 213 0 209 0 0 1 30 211 6
87 0 213 209 214 0 +-.00209738284109627 .00155 -2e-4 .78086880944303 -.624695047
554425 0 16 213 543 215 ?168 216 167 211 0 0 1 30 214 686 0 216 211 217 0 +-.002
9 .00155 -2e-4 1 0 0 16 216 540 218 ?219 220 213 214 0 0 1 30 217 685 0 220 214
 221 0 +-.0029 .0014 -2e-4 0 1 0 16 220 537 222 ?223 224 216 217 0 0 1 30 221 68
4 0 224 217 225 0 +-.00215 .0014 -2e-4 -1 0 0 16 224 534 226 ?227 228 220 221 0
 0 1 30 225 683 0 228 221 229 0 +-.001525 9e-4 -2e-4 -.780868809443031 .62469504
7554424 0 16 228 531 230 ?231 184 224 225 0 0 1 30 229 682 0 184 225 232 0 +-.00
11 9e-4 -2e-4 -1 0 0 16 184 528 233 ?127 165 228 229 0 0 1 30 232 680 0 210 229
 234 0 +-.001525 9e-4 2e-4 0 0 -1 16 210 523 235 ?236 237 208 232 0 0 1 30 234 6
79 0 237 232 238 0 +-.00215 .0014 2e-4 0 0 -1 16 237 574 239 ?131 240 210 234 0
 0 1 30 238 678 0 240 234 241 0 +-.0029 .0014 2e-4 0 0 -1 16 240 570 242 ?134 24
3 237 238 0 0 1 30 241 677 0 243 238 244 0 +-.0029 .00155 2e-4 0 0 -1 16 243 566
 245 ?137 174 240 241 0 0 1 30 244 676 0 174 241 175 0 +-.00209738284109627 .001
55 2e-4 0 0 -1 16 174 562 246 ?140 162 243 244 0 0 1 30 175 675 0 162 244 247 0
 +-.00147238284109627 .00105 2e-4 0 0 -1 30 247 424 0 248 175 249 0 +.0011 9e-4
 2e-4 1 0 0 16 248 254 250 ?121 251 252 247 0 0 1 30 249 423 0 251 247 253 0 +.0
01525 9e-4 2e-4 .780868809443031 .624695047554424 0 16 251 257 254 ?119 255 248
 249 0 0 1 30 253 422 0 255 249 256 0 +.00215 .0014 2e-4 1 0 0 16 255 260 257 ?1
16 258 251 253 0 0 1 30 256 421 0 258 253 259 0 +.0029 .0014 2e-4 0 1 0 16 258 2
63 260 ?113 261 255 256 0 0 1 30 259 420 0 261 256 262 0 +.0029 .00155 2e-4 -1 0
 0 16 261 266 263 ?110 264 258 259 0 0 1 30 262 419 0 264 259 265 0 +.0020973828
4109627 .00155 2e-4 -.78086880944303 -.624695047554425 0 16 264 269 266 ?107 267
 261 262 0 0 1 30 265 418 0 267 262 268 0 +.00147238284109627 .00105 2e-4 -1 0 0
 16 267 272 269 ?270 271 264 265 0 0 1 30 268 416 0 173 265 272 0 +.0011 9e-4 -2
e-4 1 0 0 16 173 246 273 ?104 274 162 268 0 0 1 30 272 415 0 274 268 275 0 +.001
525 9e-4 -2e-4 .780868809443031 .624695047554424 0 16 274 284 276 ?101 277 173 2
72 0 0 1 30 275 414 0 277 272 278 0 +.00215 .0014 -2e-4 1 0 0 16 277 288 279 ?98
 280 274 275 0 0 1 30 278 413 0 280 275 281 0 +.0029 .0014 -2e-4 0 1 0 16 280 29
2 282 ?95 283 277 278 0 0 1 30 281 412 0 283 278 284 0 +.0029 .00155 -2e-4 -1 0
 0 16 283 296 285 ?92 286 280 281 0 0 1 30 284 411 0 286 281 287 0 +.00209738284
109627 .00155 -2e-4 -.78086880944303 -.624695047554425 0 16 286 300 288 ?88 252
 283 284 0 0 1 30 287 410 0 252 284 289 0 +.00147238284109627 .00105 -2e-4 -1 0
 0 16 252 249 290 ?291 248 286 287 0 0 1 30 289 408 0 271 287 292 0 +.0014723828
4109627 .00105 2e-4 0 0 -1 16 271 253 293 ?294 295 267 289 0 0 1 30 292 407 0 29
5 289 296 0 +.00209738284109627 .00155 2e-4 0 0 -1 16 295 303 297 ?298 299 271 2
92 0 0 1 30 296 406 0 299 292 300 0 +.0029 .00155 2e-4 0 0 -1 16 299 299 301 ?30
2 303 295 296 0 0 1 30 300 405 0 303 296 304 0 +.0029 .0014 2e-4 0 0 -1 16 303 2
95 305 ?306 307 299 300 0 0 1 30 304 404 0 307 300 308 0 +.00215 .0014 2e-4 0 0
 -1 16 307 291 309 ?310 311 303 304 0 0 1 30 308 403 0 311 304 312 0 +.001525 9e
-4 2e-4 0 0 -1 16 311 287 313 ?314 315 307 308 0 0 1 31 255 312 213 0 315 308 31
6 0 +-1e-4 .00175 0 0 -1 0 0 0 -1 95e-5 16 315 196 317 ?318 319 311 312 0 0 1 31
 316 212 0 319 312 320 0 +-1e-4 .0014 0 0 -1 0 0 0 -1 95e-5 16 319 195 321 ?322
 323 315 316 0 0 1 30 320 7 0 324 316 325 0 +-.00125 9e-4 .001 .1643989873053575
 -.986393923832144 0 16 324 5 326 ?327 328 329 320 0 0 1 30 325 11 0 328 320 330
 0 +-.0011 0 .001 1 0 0 16 328 9 331 ?80 332 324 325 0 0 1 30 330 15 0 332 325 3
33 0 +.0011 0 .001 .1643989873053575 .986393923832144 0 16 332 13 334 ?77 335 32
8 330 0 0 1 30 333 19 0 335 330 336 0 +.00125 9e-4 .001 -.196116135138184 .98058
067569092 0 16 335 17 337 ?74 338 332 333 0 0 1 30 336 23 0 338 333 339 0 +.0011
5 .0014 .001 -1 0 0 16 338 21 340 ?71 341 335 336 0 0 1 30 339 27 0 341 336 342
 0 +-.00115 .0014 .001 -.196116135138184 -.98058067569092 0 16 341 25 343 ?68 34
4 338 339 0 0 1 30 342 104 0 323 339 345 0 +-.00125 9e-4 -.001 .1643989873053575
 -.986393923832144 0 16 323 88 346 ?347 348 319 342 0 0 1 30 345 103 0 348 342 3
49 0 +-.0011 0 -.001 1 0 0 16 348 84 350 ?62 351 323 345 0 0 1 30 349 102 0 351
 345 352 0 +.0011 0 -.001 .1643989873053575 .986393923832144 0 16 351 80 353 ?35
4 355 348 349 0 0 1 30 352 101 0 355 349 356 0 +.00125 9e-4 -.001 -.196116135138
184 .98058067569092 0 16 355 76 357 ?56 358 351 352 0 0 1 30 356 100 0 358 352 3
59 0 +.00115 .0014 -.001 -1 0 0 16 358 72 360 ?53 329 355 356 0 0 1 30 359 99 0
 329 356 361 0 +-.00115 .0014 -.001 -.196116135138184 -.98058067569092 0 16 329
 68 191 ?362 324 358 359 0 0 1 30 361 135 0 363 359 364 0 +-.00125 9e-4 .001 0 0
 -1 16 363 111 365 ?366 367 368 361 344 368 1 30 364 136 0 367 361 369 0 +-.0011
5 .0014 .001 0 0 -1 16 367 112 370 ?371 372 363 364 0 0 1 30 369 137 0 372 364 3
73 0 +.00115 .0014 .001 0 0 -1 16 372 113 374 ?375 376 367 369 0 0 1 30 373 138
 0 377 369 378 0 +.00125 9e-4 .001 0 0 -1 16 377 114 379 ?380 381 382 373 376 38
2 1 30 378 139 0 381 373 383 0 +.0011 0 .001 0 0 -1 16 381 115 384 ?385 386 377
 378 0 0 1 30 383 140 0 386 378 387 0 +-.0011 0 .001 0 0 -1 16 386 116 388 ?389
 390 381 383 0 0 1 30 387 234 0 390 383 391 0 +.00125 9e-4 -2e-4 -.1961161351381
84 .98058067569092 0 16 390 232 392 ?393 394 386 387 0 0 1 30 391 238 0 394 387
 395 0 +.00122 .00105 .001 0 0 1 16 394 236 396 ?397 398 390 391 0 0 1 30 395 24
1 0 398 391 399 0 +.00125 9e-4 2e-4 -.196116135138184 .98058067569092 0 16 398 2
39 400 ?39 34 394 395 0 0 1 30 399 506 0 34 395 19 0 +-.00115 .0014 -2e-4 -.1961
16135138184 -.98058067569092 0 16 34 504 401 ?33 24 398 399 0 0 1 30 19 510 0 24
 399 7 0 +-.00122 .00105 .001 0 0 1 16 24 508 402 ?25 10 34 19 0 0 1 81 2 402 10
96 190 24 0 0 22 326 0 0 80 255 2 190 403 404 9000 0 0 0 0 3 6 0 0 0 FFFFFFTFFFF
FFF9 1 81 2 22 1095 190 10 0 0 293 402 0 0 81 2 326 1097 190 324 0 0 402 246 0 0
 81 2 246 1098 190 174 0 0 326 183 0 0 81 2 183 1099 190 165 0 0 246 279 0 0 81
 2 279 1100 190 277 0 0 183 400 0 0 81 2 400 1101 190 398 0 0 279 334 0 0 81 2 3
34 1102 190 332 0 0 400 405 0 0 81 2 405 1103 190 368 0 0 334 242 0 0 16 368 498
 405 ?123 363 344 361 363 344 1 81 2 242 1104 190 240 0 0 405 215 0 0 81 2 215 1
105 190 213 0 0 242 406 0 0 81 2 406 1106 190 344 0 0 215 0 0 0 16 344 501 406 ?
49 368 341 361 368 363 1 17 49 0 407 347 123 47 32 344 0 362 +15 407 127 0 347 1
6 0 17 347 0 407 408 49 63 409 323 0 0 +17 123 0 407 49 366 105 410 368 0 32 +17
 32 0 27 28 362 105 49 344 0 33 -17 362 0 27 32 371 47 411 329 0 409 +15 27 117
 0 25 412 0 17 371 0 27 362 413 51 414 367 0 411 +17 411 0 415 416 409 51 362 32
9 0 0 -17 409 0 415 411 65 47 347 323 0 0 -15 415 67 0 409 417 0 17 65 0 415 409
 418 63 62 348 0 389 -17 418 0 415 65 419 60 354 351 0 0 -17 62 0 420 421 389 60
 65 348 0 385 +17 389 0 420 62 82 63 408 386 0 347 +15 420 125 0 62 422 0 17 82
 0 420 389 421 50 80 328 0 327 -17 408 0 407 423 347 50 389 386 0 0 -17 423 0 40
7 366 408 46 327 324 0 0 -17 366 0 407 123 423 31 424 363 0 410 +17 327 0 425 80
 68 50 423 324 0 408 +15 425 4 0 327 426 0 17 80 0 425 77 327 78 82 328 0 421 +1
7 68 0 425 327 71 46 413 341 0 424 +17 71 0 425 68 74 69 427 338 0 414 +17 413 0
 27 371 424 69 68 341 0 0 -17 424 0 27 413 23 46 366 363 0 423 -17 23 0 27 424 2
5 31 30 10 0 366 +17 74 0 425 71 77 72 428 335 0 429 +17 427 0 430 375 414 72 71
 338 0 0 -17 414 0 430 427 53 69 371 367 0 413 -15 430 119 0 53 431 0 17 53 0 43
0 414 375 51 416 358 0 371 +17 375 0 430 53 427 54 429 372 0 416 +17 416 0 415 4
19 411 54 53 358 0 0 -17 419 0 415 418 416 57 56 355 0 0 -17 56 0 432 429 59 54
 419 355 0 375 +15 432 121 0 380 433 0 17 429 0 432 428 56 72 375 372 0 427 -17
 59 0 432 56 42 57 434 376 0 354 +17 42 0 432 59 84 40 393 390 0 434 -17 434 0 4
35 45 354 40 59 376 0 436 -16 376 229 437 ?59 382 372 373 382 377 1 17 354 0 435
 434 385 57 418 351 0 419 +15 435 123 0 354 438 0 17 385 0 435 354 439 60 421 38
1 0 418 +17 439 0 435 385 440 78 77 332 0 0 -17 421 0 420 82 62 78 385 381 0 439
 -17 440 0 435 439 45 75 380 377 0 428 -17 77 0 425 74 80 75 439 332 0 440 +17 4
5 0 435 440 434 43 436 382 0 380 -17 380 0 432 39 428 43 440 377 0 441 +17 428 0
 432 380 429 75 74 335 0 0 -17 39 0 432 84 380 35 441 398 0 397 +17 441 0 442 12
1 270 43 39 398 0 443 -15 442 347 0 441 444 0 17 121 0 442 119 441 89 443 248 0
 445 +17 270 0 442 441 107 35 446 267 0 0 +17 443 0 447 436 445 43 121 248 0 0 -
15 447 340 0 443 448 0 17 436 0 447 104 443 40 45 382 0 449 +17 445 0 447 443 10
4 89 314 311 0 450 -17 104 0 447 445 436 102 449 173 0 314 +17 314 0 451 101 450
 102 445 311 0 452 +17 450 0 451 314 453 89 119 251 0 0 -15 451 362 0 101 454 0
 17 453 0 451 450 101 117 310 307 0 455 -17 119 0 442 116 121 117 450 251 0 453
 +17 116 0 442 113 119 114 455 255 0 456 +17 113 0 442 110 116 111 457 258 0 458
 +17 455 0 459 310 456 117 116 255 0 0 -17 456 0 459 455 98 114 306 303 0 457 -1
5 459 366 0 98 460 0 17 98 0 459 456 310 96 461 277 0 306 +17 306 0 462 95 457 9
6 456 303 0 463 +17 457 0 462 306 458 114 113 258 0 0 -15 462 370 0 95 464 0 17
 458 0 462 457 95 111 302 299 0 465 -17 95 0 462 458 306 93 463 280 0 302 +17 30
2 0 466 92 465 93 458 299 0 467 +17 465 0 466 302 468 111 110 261 0 0 -15 466 37
4 0 92 469 0 17 468 0 466 465 92 108 298 295 0 470 -17 110 0 442 107 113 108 465
 261 0 468 +17 107 0 442 270 110 85 470 264 0 471 +17 470 0 472 298 471 108 107
 264 0 0 -17 471 0 472 470 88 85 294 271 0 446 -15 472 378 0 88 473 0 17 88 0 47
2 471 298 86 474 286 0 294 +17 294 0 475 291 446 86 471 271 0 476 +17 446 0 475
 294 397 85 270 267 0 0 -15 475 344 0 291 477 0 17 397 0 475 446 291 35 84 394 0
 270 +17 291 0 475 397 294 66 476 252 0 0 +17 84 0 432 42 39 66 397 394 0 393 -1
7 393 0 478 476 449 66 42 390 0 291 +15 478 350 0 449 479 0 17 476 0 478 474 393
 86 291 252 0 0 -17 449 0 478 393 452 40 104 173 0 0 -17 452 0 478 449 461 102 1
01 274 0 0 -17 461 0 478 452 463 99 98 277 0 0 -17 101 0 451 453 314 99 452 274
 0 310 +17 310 0 459 98 455 99 453 307 0 461 +17 463 0 478 461 467 96 95 280 0 0
 -17 467 0 478 463 474 93 92 283 0 0 -17 474 0 478 467 476 90 88 286 0 0 -17 92
 0 466 468 302 90 467 283 0 298 +17 298 0 472 88 470 90 468 295 0 474 +14 255 47
9 348 480 ?454 444 478 5 481 -0 0 454 444 21 81 1 480 1193 482 479 483 0 0 484 4
85 14 454 359 484 ?460 479 451 5 486 -0 0 460 479 21 14 444 345 487 ?479 477 442
 5 488 +0 0 479 477 21 50 481 399 0 479 488 489 0 +0 0 -2e-4 0 0 1 1 0 0 13 21 4
8 0 0 0 0 0 0 9 16 14 16 128 490 ?422 0 407 5 6 -0 0 422 0 21 81 1 490 1196 482
 16 491 0 487 492 493 14 422 126 492 ?438 16 420 5 18 -0 0 438 16 21 81 1 492 11
97 482 422 494 0 490 495 496 14 438 124 495 ?433 422 435 5 497 -0 0 433 422 21 5
0 18 133 0 422 497 6 0 +-.0011 0 .001 0 1 0 0 0 1 50 497 132 0 438 498 18 0 +.00
11 0 .001 -.986393923832144 .1643989873053575 0 -.1643989873053575 -.98639392383
2144 0 50 498 131 0 433 499 497 0 +.00125 9e-4 .001 -.98058067569092 -.196116135
138184 0 .196116135138184 -.98058067569092 0 14 433 122 500 ?431 438 432 5 498 -
0 0 431 438 21 50 499 130 0 431 501 498 0 +.00115 .0014 .001 0 -1 0 0 0 -1 14 43
1 120 502 ?412 433 503 5 499 -0 0 412 433 21 50 501 129 0 412 504 499 0 +-.00115
 .0014 .001 .98058067569092 -.196116135138184 0 .196116135138184 .98058067569092
 0 14 412 118 505 ?426 431 27 5 501 -0 0 426 431 21 50 504 98 0 417 506 501 0 +0
 0 -.001 0 0 1 1 0 0 14 417 66 507 ?508 426 415 5 504 -0 0 508 426 21 50 506 3 0
 426 509 504 0 +0 0 .001 0 0 1 1 0 0 14 426 1 510 ?417 412 425 5 506 +0 0 417 41
2 21 51 255 509 210 0 508 511 506 0 --1e-4 .0014 0 0 -1 0 95e-5 0 0 -1 14 508 20
0 512 ?513 417 514 5 509 -0 0 513 417 21 53 255 511 211 0 513 515 509 0 --1e-4 .
00175 0 95e-5 0 -1 0 -1 0 0 14 513 204 516 ?448 508 517 5 511 -0 0 448 508 21 50
 515 392 0 448 486 511 0 +.0011 9e-4 2e-4 0 1 0 0 0 1 14 448 337 518 ?477 513 44
7 5 515 -0 0 477 513 21 50 486 393 0 454 519 515 0 +.001525 9e-4 2e-4 -.62469504
7554424 .78086880944303 0 -.78086880944303 -.624695047554424 0 50 519 394 0 460
 520 486 0 +.00215 .0014 2e-4 0 1 0 0 0 1 14 460 363 521 ?464 454 459 5 519 -0 0
 464 454 21 50 520 395 0 464 522 519 0 +.0029 .0014 2e-4 -1 0 0 0 0 1 14 464 367
 523 ?469 460 462 5 520 -0 0 469 460 21 50 522 396 0 469 524 520 0 +.0029 .00155
 2e-4 0 -1 0 0 0 -1 14 469 371 525 ?473 464 466 5 522 -0 0 473 464 21 50 524 397
 0 473 489 522 0 +.00209738284109627 .00155 2e-4 .624695047554425 -.780868809443
03 0 .78086880944303 .624695047554425 0 14 473 375 526 ?164 469 472 5 524 -0 0 1
64 469 21 50 489 398 0 477 481 524 0 +.00147238284109627 .00105 2e-4 0 -1 0 0 0
 -1 14 477 341 527 ?444 448 475 5 489 -0 0 444 448 21 81 1 527 1211 482 477 528
 0 526 529 530 80 1 482 531 532 9000 1 1 1 1 1 1 1 1 0 FFFFTFTFFFFFFF1 81 1 528
 1118 533 477 534 527 535 536 537 81 1 526 1210 482 473 538 0 525 527 539 81 1 5
29 1212 482 540 541 0 527 542 543 82 255 1 530 -627310440 14 540 613 529 ?178 16
4 544 5 545 +0 0 178 164 21 81 1 541 1127 533 540 546 529 547 548 549 81 1 542 1
213 482 178 548 0 529 550 551 82 1 543 -433651558 14 178 617 542 ?552 540 176 5
 553 +0 0 552 540 21 81 1 548 1128 533 178 554 542 541 555 556 81 1 550 1214 482
 552 555 0 542 557 558 82 1 551 -434110310 14 552 620 550 ?186 178 559 5 560 -0
 0 186 178 21 81 1 555 1129 533 552 561 550 548 562 563 81 1 557 1215 482 164 54
7 0 550 564 565 82 1 558 -435421030 14 164 609 557 ?540 473 159 5 566 +0 0 540 4
73 21 81 1 547 1126 533 164 567 557 538 541 568 81 1 564 1216 482 186 562 0 557
 569 570 82 1 565 -433192806 14 186 631 564 ?571 552 169 5 572 +0 0 571 552 21 8
1 1 562 1130 533 186 573 564 555 574 575 81 1 569 1217 482 571 574 0 564 576 577
 82 1 570 -443809638 14 571 635 569 ?578 186 579 5 580 +0 0 578 186 21 81 1 574
 1131 533 571 581 569 562 582 583 81 1 576 1218 482 578 582 0 569 584 585 82 1 5
77 -443940710 14 578 639 576 ?586 571 587 5 588 +0 0 586 571 21 81 1 582 1132 53
3 578 589 576 574 590 591 81 1 584 1219 482 586 590 0 576 592 593 82 1 585 -4440
71782 14 586 643 584 ?594 578 595 5 596 +0 0 594 578 21 81 1 590 1133 533 586 59
7 584 582 598 599 81 1 592 1220 482 594 598 0 584 0 600 82 1 593 -444202854 14 5
94 647 592 ?0 586 601 5 602 +0 0 0 586 21 81 1 598 1134 533 594 603 592 590 0 60
4 82 1 600 -444333926 80 1 533 0 605 8001 0 0 0 0 3 5 0 0 0 FFFFTFTFFFFFFF2 81 2
 603 1008 606 594 0 598 597 0 0 0 83 255 3 604 1 1 1 80 2 606 607 608 9000 0 0 0
 0 3 6 0 0 0 FFFFTFFFFFFFFF9 1 81 2 597 1006 606 586 0 590 589 603 0 0 81 2 589
 1004 606 578 0 582 581 597 0 0 81 2 581 1002 606 571 0 574 573 589 0 0 81 2 573
 1000 606 186 0 562 561 581 0 0 81 2 561 998 606 552 0 555 554 573 0 0 81 2 554
 996 606 178 0 548 546 561 0 0 81 2 546 994 606 540 0 541 567 554 0 0 81 2 567 9
92 606 164 0 547 609 546 0 0 81 2 609 990 606 473 0 538 610 567 0 0 81 1 538 112
5 533 473 609 526 611 547 612 81 2 610 988 606 469 0 611 613 609 0 0 81 1 611 11
24 533 469 610 525 614 538 615 81 2 613 986 606 464 0 614 616 610 0 0 81 1 614 1
123 533 464 613 523 617 611 618 81 2 616 984 606 460 0 617 619 613 0 0 81 1 617
 1122 533 460 616 521 620 614 621 81 2 619 982 606 454 0 620 622 616 0 0 81 1 62
0 1121 533 454 619 484 483 617 623 81 2 622 980 606 479 0 483 624 619 0 0 81 1 4
83 1120 533 479 622 480 536 620 625 81 2 624 978 606 444 0 536 534 622 0 0 81 1
 536 1119 533 444 624 487 528 483 626 81 2 534 976 606 477 0 528 627 624 0 0 81
 2 627 974 606 448 0 535 628 534 0 0 81 1 535 1117 533 448 627 518 629 528 630 8
1 2 628 972 606 513 0 629 631 627 0 0 81 1 629 1116 533 513 628 516 632 535 633
 81 2 631 970 606 508 0 632 634 628 0 0 81 1 632 1115 533 508 631 512 635 629 63
6 81 2 634 968 606 417 0 635 637 631 0 0 81 1 635 1114 533 417 634 507 638 632 6
39 81 2 637 966 606 426 0 638 640 634 0 0 81 1 638 1113 533 426 637 510 641 635
 642 81 2 640 964 606 412 0 641 643 637 0 0 81 1 641 1112 533 412 640 505 644 63
8 645 81 2 643 962 606 431 0 644 646 640 0 0 81 1 644 1111 533 431 643 502 647 6
41 648 81 2 646 960 606 433 0 647 649 643 0 0 81 1 647 1110 533 433 646 500 650
 644 651 81 2 649 958 606 438 0 650 652 646 0 0 81 1 650 1109 533 438 649 495 49
4 647 653 81 2 652 956 606 422 0 494 654 649 0 0 81 1 494 1108 533 422 652 492 4
91 650 655 81 2 654 954 606 16 0 491 0 652 0 0 81 1 491 1107 533 16 654 490 0 49
4 656 83 3 656 .411764705882353 .411764705882353 .411764705882353 83 3 655 .4117
64705882353 .411764705882353 .411764705882353 81 1 495 1198 482 438 650 0 492 50
0 657 83 3 653 .411764705882353 .411764705882353 .411764705882353 81 1 500 1199
 482 433 647 0 495 502 658 82 1 657 1329660056 81 1 502 1200 482 431 644 0 500 5
05 659 82 1 658 1329397912 81 1 505 1201 482 412 641 0 502 507 660 82 1 659 1329
135764 81 1 507 1202 482 417 635 0 505 510 661 82 1 660 1328873626 81 1 510 1203
 482 426 638 0 507 512 662 82 1 661 1327562897 81 1 512 1204 482 508 632 0 510 5
16 663 82 1 662 1319567505 81 1 516 1205 482 513 629 0 512 518 664 82 1 663 -838
664044 81 1 518 1206 482 448 535 0 516 521 665 82 1 664 -839253868 81 1 521 1207
 482 460 617 0 518 523 666 82 1 665 -626786152 81 1 523 1208 482 464 614 0 521 5
25 667 82 1 666 -637599592 81 1 525 1209 482 469 611 0 523 526 668 82 1 667 -637
861736 82 1 668 -638123880 83 3 651 .411764705882353 .411764705882353 .411764705
882353 83 3 648 .411764705882353 .411764705882353 .411764705882353 83 3 645 .411
764705882353 .411764705882353 .411764705882353 83 3 642 .411764705882353 .411764
705882353 .411764705882353 83 3 639 .411764705882353 .411764705882353 .411764705
882353 83 3 636 .411764705882353 .411764705882353 .411764705882353 83 3 633 .411
764705882353 .411764705882353 .411764705882353 83 3 630 1 1 1 81 1 487 1195 482
 444 536 0 484 490 669 83 3 626 1 1 1 81 1 484 1194 482 454 620 0 480 487 670 82
 1 669 -627703656 82 1 670 -637337448 83 3 625 1 1 1 83 3 623 1 1 1 83 3 621 1 1
 1 83 3 618 1 1 1 83 3 615 1 1 1 83 3 612 1 1 1 79 255 14 608 FACE_ID_2_200179 1
5 605 SDL/TYSA_COLOUR15 601 650 0 671 594 0 50 602 669 0 594 545 596 0 +-.001525
 9e-4 2e-4 -.624695047554424 -.78086880944303 0 .78086880944303 -.62469504755442
4 0 50 545 670 0 540 560 602 0 +-.0011 9e-4 2e-4 0 -1 0 0 0 -1 50 596 668 0 586
 602 588 0 +-.00215 .0014 2e-4 0 -1 0 0 0 -1 50 588 667 0 578 596 580 0 +-.0029
 .0014 2e-4 -1 0 0 0 0 1 50 580 666 0 571 588 572 0 +-.0029 .00155 2e-4 0 1 0 0
 0 1 50 572 665 0 186 580 566 0 +-.00209738284109627 .00155 2e-4 .62469504755442
5 .78086880944303 0 -.78086880944303 .624695047554425 0 50 566 664 0 164 572 488
 0 +-.00147238284109627 .00105 2e-4 0 1 0 0 0 1 50 488 400 0 444 566 481 0 +0 0
 2e-4 0 0 1 1 0 0 50 560 671 0 552 553 545 0 +0 0 -2e-4 0 0 1 -1 0 0 50 553 672
 0 178 0 560 0 +0 0 2e-4 0 0 1 -1 0 0 17 671 0 601 672 131 125 231 228 0 0 -17 6
72 0 601 207 671 124 236 210 0 673 -17 131 0 601 671 207 129 148 237 0 674 +17 2
31 0 559 227 127 129 671 228 0 0 +15 559 622 0 166 552 0 17 227 0 559 223 231 13
2 674 224 0 0 +17 127 0 559 231 33 125 675 184 0 236 +17 33 0 559 127 166 105 28
 34 0 675 +17 675 0 544 410 236 105 127 184 0 0 -17 236 0 544 675 145 125 672 21
0 0 671 +15 544 616 0 410 540 0 17 145 0 544 236 410 124 182 208 0 672 +17 410 0
 544 145 675 31 123 368 0 182 -17 182 0 176 30 673 31 145 208 0 0 -17 673 0 176
 182 676 124 207 204 0 0 -17 676 0 176 673 677 146 203 200 0 207 -17 207 0 601 1
31 672 146 673 204 0 0 +17 677 0 176 676 179 149 199 194 0 203 -17 203 0 595 134
 148 149 676 200 0 0 +15 595 646 0 674 586 0 17 134 0 595 674 203 132 151 240 0
 678 +17 148 0 595 203 674 146 131 237 0 676 -17 674 0 595 148 134 129 227 224 0
 231 -17 151 0 587 199 678 149 134 240 0 677 -17 678 0 587 151 137 132 223 220 0
 227 -15 587 642 0 678 578 0 17 137 0 587 678 199 135 154 243 0 679 +17 223 0 55
9 219 227 135 678 220 0 0 +17 219 0 559 168 223 138 679 216 0 0 +17 168 0 559 16
6 219 141 170 213 0 0 +17 679 0 579 154 140 135 219 216 0 223 -15 579 638 0 679
 571 0 17 154 0 579 181 679 152 137 243 0 179 -17 140 0 579 679 181 138 157 174
 0 170 +17 181 0 579 140 154 155 179 188 0 0 +17 170 0 169 157 143 138 168 213 0
 219 -17 179 0 176 677 177 152 181 188 0 199 -17 199 0 587 137 151 152 677 194 0
 0 +17 166 0 559 33 168 26 161 167 0 0 +83 3 599 1 1 1 83 3 591 1 1 1 83 3 583 1
 1 1 83 3 575 1 1 1 83 3 568 1 1 1 83 3 563 1 1 1 83 3 556 1 1 1 83 3 549 1 1 1
 82 1 539 -638386024 83 3 537 1 1 1 79 14 532 SWEntUnchanged15 517 206 0 680 513
 0 17 680 0 517 680 680 0 318 315 0 0 -17 318 0 681 318 318 0 680 315 0 0 +15 68
1 203 0 318 508 0 15 514 202 0 682 508 681 17 682 0 514 682 682 0 322 319 0 0 -1
7 322 0 503 322 322 0 682 319 0 0 +15 503 190 0 322 431 430 82 1 496 1329922193
 82 1 493 1330184346 82 1 485 -629014376 16 382 226 683 ?436 377 376 373 377 376
 1 81 2 683 1071 190 382 0 0 370 282 0 0 81 2 370 1070 190 367 0 0 276 683 0 0 8
1 2 282 1072 190 280 0 0 683 269 0 0 81 2 269 1073 190 267 0 0 282 331 0 0 81 2
 331 1074 190 328 0 0 269 350 0 0 81 2 350 1075 190 348 0 0 331 193 0 0 81 2 193
 1076 190 188 0 0 350 309 0 0 81 2 309 1077 190 307 0 0 193 260 0 0 81 2 260 107
8 190 258 0 0 309 360 0 0 81 2 360 1079 190 358 0 0 260 222 0 0 81 2 222 1080 19
0 220 0 0 360 233 0 0 81 2 233 1081 190 184 0 0 222 263 0 0 81 2 263 1082 190 26
1 0 0 233 245 0 0 81 2 245 1083 190 243 0 0 263 206 0 0 81 2 206 1084 190 204 0
 0 245 340 0 0 81 2 340 1085 190 338 0 0 206 384 0 0 81 2 384 1086 190 381 0 0 3
40 239 0 0 81 2 239 1087 190 237 0 0 384 230 0 0 81 2 230 1088 190 228 0 0 239 2
97 0 0 81 2 297 1089 190 295 0 0 230 321 0 0 81 2 321 1090 190 319 0 0 297 374 0
 0 81 2 374 1091 190 372 0 0 321 379 0 0 81 2 379 1092 190 377 0 0 374 198 0 0 8
1 2 198 1093 190 194 0 0 379 293 0 0 81 2 293 1094 190 271 0 0 198 22 0 0 81 2 2
76 1069 190 274 0 0 301 370 0 0 81 2 301 1068 190 299 0 0 365 276 0 0 81 2 365 1
067 190 363 0 0 273 301 0 0 81 2 273 1066 190 173 0 0 290 365 0 0 81 2 290 1065
 190 252 0 0 254 273 0 0 81 2 254 1064 190 251 0 0 388 290 0 0 81 2 388 1063 190
 386 0 0 437 254 0 0 81 2 437 1062 190 376 0 0 392 388 0 0 81 2 392 1061 190 390
 0 0 317 437 0 0 81 2 317 1060 190 315 0 0 250 392 0 0 81 2 250 1059 190 248 0 0
 235 317 0 0 81 2 235 1058 190 210 0 0 346 250 0 0 81 2 346 1057 190 323 0 0 353
 235 0 0 81 2 353 1056 190 351 0 0 337 346 0 0 81 2 337 1055 190 335 0 0 257 353
 0 0 81 2 257 1054 190 255 0 0 212 337 0 0 81 2 212 1053 190 167 0 0 357 257 0 0
 81 2 357 1052 190 355 0 0 343 212 0 0 81 2 343 1051 190 341 0 0 285 357 0 0 81
 2 285 1050 190 283 0 0 305 343 0 0 81 2 305 1049 190 303 0 0 218 285 0 0 81 2 2
18 1048 190 216 0 0 401 305 0 0 81 2 401 1047 190 34 0 0 266 218 0 0 81 2 266 10
46 190 264 0 0 288 401 0 0 81 2 288 1045 190 286 0 0 172 266 0 0 81 2 172 1044 1
90 162 0 0 192 288 0 0 81 2 192 1043 190 208 0 0 187 172 0 0 79 19 404 EDGE_PERM
_ID_2_200381 2 396 1037 190 394 0 0 0 226 0 0 81 2 226 1038 190 224 0 0 396 202
 0 0 81 2 202 1039 190 200 0 0 226 313 0 0 81 2 313 1040 190 311 0 0 202 191 0 0
 81 2 191 1041 190 329 0 0 313 187 0 0 17 29 0 159 161 160 26 25 24 0 166 -19 17
 142 0 1 0 9 5 S0 74 4 CI16 index_map_offset0 0 1 dCCZ20 15 11 0 0 592 684 685 6
86 687 688 13 603 406 598 2 0 0 0 0 0 0 0 0 0 81 2 684 744 689 1 0 685 0 0 0 690
 81 2 685 745 691 1 684 686 0 0 0 0 81 2 686 746 692 1 685 687 0 0 0 693 81 1 68
7 767 694 1 686 688 0 0 695 81 2 688 797 696 1 687 13 0 0 697 0 81 2 13 924 698
 1 688 2 0 0 0 699 80 2 698 700 701 9000 0 0 0 0 3 5 0 0 0 FFTFFFFFFFFFFF9 1 82
 1 699 1 79 24 701 BODY_IN_LIGHTWEIGHT_PERM80 2 696 702 703 8004 0 0 0 0 3 5 0 0
 0 FFTFFFFFFFFFFF2 3 83 1 697 78e2 79 16 703 SDL/TYSA_DENSITY80 1 694 704 705 90
00 1 1 1 1 1 1 1 1 0 FFTFFFFFFFFFFF1 82 1 695 413349 79 10 705 BODY_MATCH80 2 69
2 706 707 9000 0 0 0 0 3 5 0 0 0 FFTFFFFFFFFFFF9 1 82 1 693 100 79 30 707 LAST_B
ODY_MODIFYING_FEATURE_ID80 2 691 708 709 9000 0 0 0 0 3 5 0 0 0 FFTFFFFFFFFFFF9
 1 79 16 709 BODY_RECIPE_200180 2 689 710 711 9000 0 0 0 0 3 5 0 0 0 FFTFFFFFFFF
FFF9 1 82 1 690 117 79 19 711 ENT_TIME_STAMP_200180 2 12 190 712 9000 0 0 0 0 3
 5 0 0 0 FFTFFFFFFFFFFF9 1 82 1 14 106 79 12 712 ATOM_ID_20011 0 
