**ABCDEFGHIJKLMNOPQRSTUVWXYZabcdefghijklmnopqrstuvwxyz**************************
**PARASOLID !"#$%&'()*+,-./:;<=>?@[\]^_`{|}~0123456789**************************
**PART1;
MC=AMD64;
MC_MODEL=AMD64 Family 23 Model 96 Stepping 1, AuthenticAMD;
MC_ID=unknown;
OS=Windows_NT;
OS_RELEASE=unknown;
FRU=Parasolid Version 31.1, build 290,  3- 9-2020;
APPL=SOLIDWORKS 2020-2020196;
SITE=;
USER=unknown;
FORMAT=text;
GUISE=transmit;
KEY=TSML1000;
FILE=TSML1000.x_t;
DATE=Sun Jun 26 15:43:40 2022;
**PART2;
SCH=SCH_3101290_31100;
USFLD_SIZE=0;
**PART3;
**END_OF_HEADER*****************************************************************
T51 : TRANSMIT FILE created by modeller version 310129023 SCH_3101290_31100_1300
6222 0 12 34 CCCCCCI4 mesh1006 0 I8 polyline1008 0 CCCCCCCDI5 owner1040 0 CCCCCC
I13 boundary_mesh1006 0 I17 boundary_polyline1008 0 CCCA16 index_map_offset0 0 1
 dA9 index_map82 0 A17 node_id_index_map82 0 A20 schema_embedding_map82 0 A5 chi
ld12 0 A14 lowest_node_id0 0 1 dA16 mesh_offset_data206 0 Z1 1268 2 3 0 0 0 0 0
 0 1e3 1e-8 0 4 0 1 0 1 1 5 6 7 8 0 0 9 10 11 0 0 0 0 0 0 0 81 255 2 2 1240 12 1
 13 0 0 0 0 14 70 11 CI9 list_type0 0 1 uI10 notransmit0 0 1 lCCCDCCDI12 finger_
index0 0 1 dI12 finger_block1012 0 CZ3 0 4 T1 0 0 11 20 1 15 15 13 255 5 141 0 1
 0 16 0 0 17 0 50 255 6 134 0 16 18 0 0 +-.00125 9e-4 .001 .986393923832144 .164
3989873053575 0 -.1643989873053575 .986393923832144 0 30 255 7 513 0 10 19 0 0 +
-.00115 .0014 2e-4 -.196116135138184 -.98058067569092 0 29 255 8 509 0 11 20 0 -
.00122 .00105 2e-4 19 8 CCCCCCCA5 owner12 0 Z9 47 0 1 17 0 21 V0 16 255 10 511 2
2 ?23 0 24 7 0 0 1 18 255 11 507 0 25 0 26 8 ?1 17 255 25 0 27 23 28 11 29 24 0
 30 +18 26 503 0 28 11 31 20 ?1 17 28 0 27 25 32 26 33 34 0 29 -18 31 497 0 23 2
6 35 36 ?1 29 20 505 0 26 36 8 -.00122 .00105 -2e-4 29 36 499 0 31 37 20 -.00125
 9e-4 2e-4 29 37 237 0 35 38 36 .00122 .00105 2e-4 18 35 235 0 39 31 40 37 ?1 29
 38 230 0 40 41 37 .00125 9e-4 -2e-4 18 40 228 0 42 35 43 38 ?1 29 41 227 0 43 4
4 38 .00125 9e-4 2e-4 18 43 225 0 45 40 46 41 ?1 29 44 105 0 47 48 41 -.00125 9e
-4 -.001 18 47 92 0 49 50 51 44 ?1 29 48 106 0 51 52 44 -.00115 .0014 -.001 18 5
1 93 0 53 47 54 48 ?1 29 52 107 0 54 55 48 .00115 .0014 -.001 18 54 94 0 56 51 5
7 52 ?1 29 55 108 0 57 58 52 .00125 9e-4 -.001 18 57 95 0 59 54 60 55 ?1 29 58 1
09 0 60 61 55 .0011 0 -.001 18 60 96 0 62 57 63 58 ?1 29 61 110 0 63 64 58 -.001
1 0 -.001 18 63 97 0 65 60 66 61 ?1 29 64 46 0 46 67 61 -.00125 9e-4 .001 18 46
 44 0 68 43 69 64 ?1 29 67 43 0 69 70 64 -.00115 .0014 .001 18 69 41 0 71 46 72
 67 ?1 29 70 40 0 72 73 67 .00115 .0014 .001 18 72 38 0 74 69 75 70 ?1 29 73 37
 0 75 76 70 .00125 9e-4 .001 18 75 35 0 77 72 78 73 ?1 29 76 34 0 78 79 73 .0011
 0 .001 18 78 32 0 80 75 50 76 ?1 29 79 31 0 50 81 76 -.0011 0 .001 18 50 29 0 8
2 78 47 79 ?1 29 81 429 0 66 83 79 .00122 .00105 -2e-4 18 66 333 0 84 63 85 81 ?
1 29 83 431 0 86 87 81 .00147238284109627 .00105 -2e-4 18 86 332 0 88 89 90 83 ?
1 29 87 432 0 90 91 83 .00209738284109627 .00155 -2e-4 18 90 331 0 92 86 93 87 ?
1 29 91 433 0 93 94 87 .0029 .00155 -2e-4 18 93 330 0 95 90 96 91 ?1 29 94 434 0
 96 97 91 .0029 .0014 -2e-4 18 96 329 0 98 93 99 94 ?1 29 97 435 0 99 100 94 .00
215 .0014 -2e-4 18 99 328 0 101 96 102 97 ?1 29 100 436 0 102 103 97 .001525 9e-
4 -2e-4 18 102 318 0 104 99 105 100 ?1 29 103 439 0 85 106 100 .0014723828410962
7 .00105 2e-4 18 85 325 0 107 66 108 103 ?1 29 106 440 0 108 109 103 .0020973828
4109627 .00155 2e-4 18 108 324 0 110 85 111 106 ?1 29 109 441 0 111 112 106 .002
9 .00155 2e-4 18 111 323 0 113 108 114 109 ?1 29 112 442 0 114 115 109 .0029 .00
14 2e-4 18 114 322 0 116 111 117 112 ?1 29 115 443 0 117 118 112 .00215 .0014 2e
-4 18 117 321 0 119 114 89 115 ?1 29 118 444 0 89 120 115 .001525 9e-4 2e-4 18 8
9 320 0 121 117 86 118 ?1 29 120 701 0 105 122 118 -.00125 9e-4 -2e-4 18 105 606
 0 123 102 124 120 ?1 29 122 703 0 125 126 120 -.001525 9e-4 -2e-4 18 125 593 0
 127 128 129 122 ?1 29 126 704 0 129 130 122 -.00215 .0014 -2e-4 18 129 605 0 13
1 125 132 126 ?1 29 130 705 0 132 133 126 -.0029 .0014 -2e-4 18 132 604 0 134 12
9 135 130 ?1 29 133 706 0 135 136 130 -.0029 .00155 -2e-4 18 135 602 0 137 132 1
38 133 ?1 29 136 707 0 138 139 133 -.00209738284109627 .00155 -2e-4 18 138 600 0
 140 135 141 136 ?1 29 139 708 0 141 142 136 -.00147238284109627 .00105 -2e-4 18
 141 598 0 143 138 0 139 ?1 29 142 711 0 124 144 139 -.001525 9e-4 2e-4 18 124 5
92 0 145 105 146 142 ?1 29 144 712 0 146 147 142 -.00215 .0014 2e-4 18 146 603 0
 148 124 149 144 ?1 29 147 713 0 149 150 144 -.0029 .0014 2e-4 18 149 601 0 151
 146 152 147 ?1 29 150 714 0 152 153 147 -.0029 .00155 2e-4 18 152 599 0 154 149
 155 150 ?1 29 153 715 0 155 156 150 -.00209738284109627 .00155 2e-4 18 155 597
 0 157 152 128 153 ?1 29 156 716 0 128 0 153 -.00147238284109627 .00105 2e-4 18
 128 590 0 158 155 125 156 ?1 17 158 0 159 160 161 128 143 162 0 163 -15 255 159
 612 0 29 164 0 17 160 0 159 29 158 11 163 165 0 0 +17 161 0 159 158 29 141 166
 167 0 168 -17 143 0 169 170 171 141 158 162 0 161 +16 162 558 172 ?143 173 174
 175 0 0 1 17 163 0 176 177 30 128 160 165 0 171 -15 176 619 0 30 178 0 17 177 0
 176 179 163 155 171 180 0 181 -17 30 0 176 163 182 11 23 10 0 160 -16 165 517 1
83 ?160 180 184 185 0 0 1 17 171 0 169 143 157 128 177 180 0 0 +15 169 634 0 170
 186 0 17 157 0 169 171 170 155 140 174 0 177 -16 180 555 187 ?171 188 165 189 0
 0 1 81 2 187 1132 190 180 0 0 191 192 0 0 16 188 559 193 ?181 194 180 195 0 0 1
 30 189 695 0 180 185 195 0 +-.00209738284109627 .00155 2e-4 .78086880944303 -.6
24695047554425 0 30 185 696 0 165 0 189 0 +-.00147238284109627 .00105 2e-4 1 0 0
 30 195 694 0 188 189 196 0 +-.0029 .00155 2e-4 1 0 0 30 196 693 0 194 195 197 0
 +-.0029 .0014 2e-4 0 1 0 16 194 563 198 ?199 200 188 196 0 0 1 30 197 692 0 200
 196 201 0 +-.00215 .0014 2e-4 -1 0 0 16 200 567 202 ?203 204 194 197 0 0 1 30 2
01 691 0 204 197 205 0 +-.001525 9e-4 2e-4 -.780868809443031 .624695047554424 0
 16 204 571 206 ?207 208 200 201 0 0 1 30 205 690 0 208 201 209 0 +-.0011 9e-4 2
e-4 -1 0 0 16 208 520 210 ?145 211 204 205 0 0 1 30 209 688 0 167 205 212 0 +-.0
0147238284109627 .00105 -2e-4 1 0 0 16 167 524 213 ?166 214 0 209 0 0 1 30 212 6
87 0 214 209 215 0 +-.00209738284109627 .00155 -2e-4 .78086880944303 -.624695047
554425 0 16 214 543 216 ?168 217 167 212 0 0 1 30 215 686 0 217 212 218 0 +-.002
9 .00155 -2e-4 1 0 0 16 217 540 219 ?220 221 214 215 0 0 1 30 218 685 0 221 215
 222 0 +-.0029 .0014 -2e-4 0 1 0 16 221 537 223 ?224 225 217 218 0 0 1 30 222 68
4 0 225 218 226 0 +-.00215 .0014 -2e-4 -1 0 0 16 225 534 227 ?228 229 221 222 0
 0 1 30 226 683 0 229 222 230 0 +-.001525 9e-4 -2e-4 -.780868809443031 .62469504
7554424 0 16 229 531 231 ?232 184 225 226 0 0 1 30 230 682 0 184 226 233 0 +-.00
11 9e-4 -2e-4 -1 0 0 16 184 528 234 ?127 165 229 230 0 0 1 30 233 680 0 211 230
 235 0 +-.001525 9e-4 2e-4 0 0 -1 16 211 523 236 ?237 238 208 233 0 0 1 30 235 6
79 0 238 233 239 0 +-.00215 .0014 2e-4 0 0 -1 16 238 574 240 ?131 241 211 235 0
 0 1 30 239 678 0 241 235 242 0 +-.0029 .0014 2e-4 0 0 -1 16 241 570 243 ?134 24
4 238 239 0 0 1 30 242 677 0 244 239 245 0 +-.0029 .00155 2e-4 0 0 -1 16 244 566
 246 ?137 174 241 242 0 0 1 30 245 676 0 174 242 175 0 +-.00209738284109627 .001
55 2e-4 0 0 -1 16 174 562 247 ?140 162 244 245 0 0 1 30 175 675 0 162 245 248 0
 +-.00147238284109627 .00105 2e-4 0 0 -1 30 248 424 0 249 175 250 0 +.0011 9e-4
 2e-4 1 0 0 16 249 254 251 ?121 252 253 248 0 0 1 30 250 423 0 252 248 254 0 +.0
01525 9e-4 2e-4 .780868809443031 .624695047554424 0 16 252 257 255 ?119 256 249
 250 0 0 1 30 254 422 0 256 250 257 0 +.00215 .0014 2e-4 1 0 0 16 256 260 258 ?1
16 259 252 254 0 0 1 30 257 421 0 259 254 260 0 +.0029 .0014 2e-4 0 1 0 16 259 2
63 261 ?113 262 256 257 0 0 1 30 260 420 0 262 257 263 0 +.0029 .00155 2e-4 -1 0
 0 16 262 266 264 ?110 265 259 260 0 0 1 30 263 419 0 265 260 266 0 +.0020973828
4109627 .00155 2e-4 -.78086880944303 -.624695047554425 0 16 265 269 267 ?107 268
 262 263 0 0 1 30 266 418 0 268 263 269 0 +.00147238284109627 .00105 2e-4 -1 0 0
 16 268 272 270 ?271 272 265 266 0 0 1 30 269 416 0 173 266 273 0 +.0011 9e-4 -2
e-4 1 0 0 16 173 246 274 ?104 275 162 269 0 0 1 30 273 415 0 275 269 276 0 +.001
525 9e-4 -2e-4 .780868809443031 .624695047554424 0 16 275 284 277 ?101 278 173 2
73 0 0 1 30 276 414 0 278 273 279 0 +.00215 .0014 -2e-4 1 0 0 16 278 288 280 ?98
 281 275 276 0 0 1 30 279 413 0 281 276 282 0 +.0029 .0014 -2e-4 0 1 0 16 281 29
2 192 ?95 283 278 279 0 0 1 30 282 412 0 283 279 284 0 +.0029 .00155 -2e-4 -1 0
 0 16 283 296 285 ?92 286 281 282 0 0 1 30 284 411 0 286 282 287 0 +.00209738284
109627 .00155 -2e-4 -.78086880944303 -.624695047554425 0 16 286 300 288 ?88 253
 283 284 0 0 1 30 287 410 0 253 284 289 0 +.00147238284109627 .00105 -2e-4 -1 0
 0 16 253 249 290 ?291 249 286 287 0 0 1 30 289 408 0 272 287 292 0 +.0014723828
4109627 .00105 2e-4 0 0 -1 16 272 253 293 ?294 295 268 289 0 0 1 30 292 407 0 29
5 289 296 0 +.00209738284109627 .00155 2e-4 0 0 -1 16 295 303 297 ?298 299 272 2
92 0 0 1 30 296 406 0 299 292 300 0 +.0029 .00155 2e-4 0 0 -1 16 299 299 301 ?30
2 303 295 296 0 0 1 30 300 405 0 303 296 304 0 +.0029 .0014 2e-4 0 0 -1 16 303 2
95 305 ?306 307 299 300 0 0 1 30 304 404 0 307 300 308 0 +.00215 .0014 2e-4 0 0
 -1 16 307 291 309 ?310 311 303 304 0 0 1 30 308 403 0 311 304 312 0 +.001525 9e
-4 2e-4 0 0 -1 16 311 287 313 ?314 315 307 308 0 0 1 31 255 312 213 0 315 308 31
6 0 +-1e-4 .00175 0 0 -1 0 0 0 -1 95e-5 16 315 196 317 ?318 319 311 312 0 0 1 31
 316 212 0 319 312 320 0 +-1e-4 .0014 0 0 -1 0 0 0 -1 95e-5 16 319 195 321 ?322
 323 315 316 0 0 1 30 320 7 0 324 316 325 0 +-.00125 9e-4 .001 .1643989873053575
 -.986393923832144 0 16 324 5 326 ?327 328 329 320 0 0 1 30 325 11 0 328 320 330
 0 +-.0011 0 .001 1 0 0 16 328 9 331 ?80 332 324 325 0 0 1 30 330 15 0 332 325 3
33 0 +.0011 0 .001 .1643989873053575 .986393923832144 0 16 332 13 191 ?77 334 32
8 330 0 0 1 30 333 19 0 334 330 335 0 +.00125 9e-4 .001 -.196116135138184 .98058
067569092 0 16 334 17 336 ?74 337 332 333 0 0 1 30 335 23 0 337 333 338 0 +.0011
5 .0014 .001 -1 0 0 16 337 21 339 ?71 340 334 335 0 0 1 30 338 27 0 340 335 341
 0 +-.00115 .0014 .001 -.196116135138184 -.98058067569092 0 16 340 25 342 ?68 34
3 337 338 0 0 1 30 341 104 0 323 338 344 0 +-.00125 9e-4 -.001 .1643989873053575
 -.986393923832144 0 16 323 88 345 ?346 347 319 341 0 0 1 30 344 103 0 347 341 3
48 0 +-.0011 0 -.001 1 0 0 16 347 84 349 ?62 350 323 344 0 0 1 30 348 102 0 350
 344 351 0 +.0011 0 -.001 .1643989873053575 .986393923832144 0 16 350 80 352 ?35
3 354 347 348 0 0 1 30 351 101 0 354 348 355 0 +.00125 9e-4 -.001 -.196116135138
184 .98058067569092 0 16 354 76 356 ?56 357 350 351 0 0 1 30 355 100 0 357 351 3
58 0 +.00115 .0014 -.001 -1 0 0 16 357 72 359 ?53 329 354 355 0 0 1 30 358 99 0
 329 355 360 0 +-.00115 .0014 -.001 -.196116135138184 -.98058067569092 0 16 329
 68 361 ?362 324 357 358 0 0 1 30 360 135 0 363 358 364 0 +-.00125 9e-4 .001 0 0
 -1 16 363 111 365 ?366 367 368 360 343 368 1 30 364 136 0 367 360 369 0 +-.0011
5 .0014 .001 0 0 -1 16 367 112 370 ?371 372 363 364 0 0 1 30 369 137 0 372 364 3
73 0 +.00115 .0014 .001 0 0 -1 16 372 113 374 ?375 376 367 369 0 0 1 30 373 138
 0 377 369 378 0 +.00125 9e-4 .001 0 0 -1 16 377 114 379 ?380 381 382 373 376 38
2 1 30 378 139 0 381 373 383 0 +.0011 0 .001 0 0 -1 16 381 115 384 ?385 386 377
 378 0 0 1 30 383 140 0 386 378 387 0 +-.0011 0 .001 0 0 -1 16 386 116 388 ?389
 390 381 383 0 0 1 30 387 234 0 390 383 391 0 +.00125 9e-4 -2e-4 -.1961161351381
84 .98058067569092 0 16 390 232 392 ?393 394 386 387 0 0 1 30 391 238 0 394 387
 395 0 +.00122 .00105 .001 0 0 1 16 394 236 396 ?397 398 390 391 0 0 1 30 395 24
1 0 398 391 399 0 +.00125 9e-4 2e-4 -.196116135138184 .98058067569092 0 16 398 2
39 400 ?39 34 394 395 0 0 1 30 399 506 0 34 395 19 0 +-.00115 .0014 -2e-4 -.1961
16135138184 -.98058067569092 0 16 34 504 401 ?33 24 398 399 0 0 1 30 19 510 0 24
 399 7 0 +-.00122 .00105 .001 0 0 1 16 24 508 402 ?25 10 34 19 0 0 1 81 2 402 11
23 190 24 0 0 251 216 0 0 80 255 2 190 403 404 9000 0 0 0 0 3 6 0 0 0 FFFFFFTFFF
FFFF9 1 81 2 251 1122 190 249 0 0 277 402 0 0 81 2 216 1124 190 214 0 0 402 206
 0 0 81 2 206 1125 190 204 0 0 216 270 0 0 81 2 270 1126 190 268 0 0 206 336 0 0
 81 2 336 1127 190 334 0 0 270 405 0 0 81 2 405 1128 190 343 0 0 336 309 0 0 16
 343 501 405 ?49 368 340 360 368 363 1 81 2 309 1129 190 307 0 0 405 317 0 0 81
 2 317 1130 190 315 0 0 309 191 0 0 81 2 191 1131 190 332 0 0 317 187 0 0 17 49
 0 406 346 123 47 32 343 0 362 +16 368 498 407 ?123 363 343 360 363 343 1 81 2 4
07 1089 190 368 0 0 255 247 0 0 17 123 0 406 49 366 105 408 368 0 32 +15 406 127
 0 346 16 0 17 366 0 406 123 409 31 410 363 0 408 +17 408 0 411 145 412 31 123 3
68 0 182 -17 32 0 27 28 362 105 49 343 0 33 -15 27 117 0 25 413 0 17 362 0 27 32
 371 47 414 329 0 415 +17 33 0 416 127 166 105 28 34 0 412 +15 416 622 0 166 417
 0 17 127 0 416 232 33 125 412 184 0 237 +17 166 0 416 33 168 26 161 167 0 0 +17
 412 0 411 408 237 105 127 184 0 0 -15 411 616 0 408 418 0 17 237 0 411 412 145
 125 419 211 0 420 +17 145 0 411 237 408 124 182 208 0 419 +17 419 0 421 207 420
 124 237 211 0 422 -17 420 0 421 419 131 125 232 229 0 0 -15 421 650 0 420 423 0
 17 131 0 421 420 207 129 148 238 0 424 +17 232 0 416 228 127 129 420 229 0 0 +1
7 228 0 416 224 232 132 424 225 0 0 +17 224 0 416 220 228 135 425 221 0 0 +17 42
4 0 426 148 134 129 228 225 0 232 -15 426 646 0 424 427 0 17 148 0 426 203 424 1
46 131 238 0 428 -17 134 0 426 424 203 132 151 241 0 425 +17 203 0 426 134 148 1
49 428 200 0 0 +17 151 0 429 199 425 149 134 241 0 430 -17 425 0 429 151 137 132
 224 221 0 228 -15 429 642 0 425 431 0 17 137 0 429 425 199 135 154 244 0 432 +1
7 199 0 429 137 151 152 430 194 0 0 +17 154 0 433 181 432 152 137 244 0 179 -17
 432 0 433 154 140 135 220 217 0 224 -15 433 638 0 432 434 0 17 140 0 433 432 18
1 138 157 174 0 170 +17 220 0 416 168 224 138 432 217 0 0 +17 168 0 416 166 220
 141 170 214 0 0 +17 170 0 169 157 143 138 168 214 0 220 -17 181 0 433 140 154 1
55 179 188 0 0 +17 179 0 176 430 177 152 181 188 0 199 -17 430 0 176 428 179 149
 199 194 0 203 -17 428 0 176 422 430 146 203 200 0 207 -17 422 0 176 182 428 124
 207 204 0 0 -17 207 0 421 131 419 146 422 204 0 0 +17 182 0 176 30 422 31 145 2
08 0 0 -14 255 434 635 435 ?431 186 433 5 436 +0 0 431 186 21 81 1 435 1241 437
 434 438 0 0 439 440 14 431 639 439 ?427 434 429 5 441 +0 0 427 434 21 14 186 63
1 442 ?434 417 169 5 443 +0 0 434 417 21 50 436 666 0 434 441 443 0 +-.0029 .001
55 2e-4 0 1 0 0 0 1 13 21 48 0 0 0 0 0 0 9 16 14 16 128 444 ?445 0 406 5 6 -0 0
 445 0 21 81 1 444 1244 437 16 446 0 442 447 448 14 445 126 447 ?449 16 450 5 18
 -0 0 449 16 21 81 1 447 1245 437 445 451 0 444 452 453 14 449 124 452 ?454 445
 455 5 456 -0 0 454 445 21 15 450 125 0 62 445 0 50 18 133 0 445 456 6 0 +-.0011
 0 .001 0 1 0 0 0 1 50 456 132 0 449 457 18 0 +.0011 0 .001 -.986393923832144 .1
643989873053575 0 -.1643989873053575 -.986393923832144 0 50 457 131 0 454 458 45
6 0 +.00125 9e-4 .001 -.98058067569092 -.196116135138184 0 .196116135138184 -.98
058067569092 0 14 454 122 459 ?460 449 461 5 457 -0 0 460 449 21 50 458 130 0 46
0 462 457 0 +.00115 .0014 .001 0 -1 0 0 0 -1 14 460 120 463 ?413 454 464 5 458 -
0 0 413 454 21 50 462 129 0 413 465 458 0 +-.00115 .0014 .001 .98058067569092 -.
196116135138184 0 .196116135138184 .98058067569092 0 14 413 118 466 ?467 460 27
 5 462 -0 0 467 460 21 50 465 98 0 468 469 462 0 +0 0 -.001 0 0 1 1 0 0 14 468 6
6 470 ?471 467 472 5 465 -0 0 471 467 21 50 469 3 0 467 473 465 0 +0 0 .001 0 0
 1 1 0 0 14 467 1 474 ?468 413 475 5 469 +0 0 468 413 21 51 255 473 210 0 471 47
6 469 0 --1e-4 .0014 0 0 -1 0 95e-5 0 0 -1 14 471 200 477 ?478 468 479 5 473 -0
 0 478 468 21 53 255 476 211 0 478 480 473 0 --1e-4 .00175 0 95e-5 0 -1 0 -1 0 0
 14 478 204 481 ?482 471 483 5 476 -0 0 482 471 21 50 480 392 0 482 484 476 0 +.
0011 9e-4 2e-4 0 1 0 0 0 1 14 482 337 485 ?486 478 487 5 480 -0 0 486 478 21 50
 484 393 0 488 489 480 0 +.001525 9e-4 2e-4 -.624695047554424 .78086880944303 0
 -.78086880944303 -.624695047554424 0 14 488 359 490 ?491 492 493 5 484 -0 0 491
 492 21 50 489 394 0 491 494 484 0 +.00215 .0014 2e-4 0 1 0 0 0 1 14 491 363 495
 ?496 488 497 5 489 -0 0 496 488 21 50 494 395 0 496 498 489 0 +.0029 .0014 2e-4
 -1 0 0 0 0 1 14 496 367 499 ?500 491 501 5 494 -0 0 500 491 21 50 498 396 0 500
 502 494 0 +.0029 .00155 2e-4 0 -1 0 0 0 -1 14 500 371 503 ?504 496 505 5 498 -0
 0 504 496 21 50 502 397 0 504 506 498 0 +.00209738284109627 .00155 2e-4 .624695
047554425 -.78086880944303 0 .78086880944303 .624695047554425 0 14 504 375 507 ?
164 500 508 5 502 -0 0 164 500 21 50 506 398 0 486 509 502 0 +.00147238284109627
 .00105 2e-4 0 -1 0 0 0 -1 14 486 341 510 ?511 482 512 5 506 -0 0 511 482 21 50
 509 399 0 492 513 506 0 +0 0 -2e-4 0 0 1 1 0 0 14 492 348 514 ?488 511 515 5 50
9 -0 0 488 511 21 50 513 400 0 511 516 509 0 +0 0 2e-4 0 0 1 1 0 0 14 511 345 51
7 ?492 486 518 5 513 +0 0 492 486 21 50 516 664 0 164 443 513 0 +-.0014723828410
9627 .00105 2e-4 0 1 0 0 0 1 14 164 609 519 ?418 504 159 5 516 +0 0 418 504 21 5
0 443 665 0 186 436 516 0 +-.00209738284109627 .00155 2e-4 .624695047554425 .780
86880944303 0 -.78086880944303 .624695047554425 0 81 1 519 1263 437 164 520 0 51
7 521 522 14 418 613 521 ?178 164 411 5 523 +0 0 178 164 21 81 1 521 1264 437 41
8 524 0 519 525 526 14 178 617 525 ?417 418 176 5 527 +0 0 417 418 21 50 523 670
 0 418 528 529 0 +-.0011 9e-4 2e-4 0 -1 0 0 0 -1 50 528 671 0 417 527 523 0 +0 0
 -2e-4 0 0 1 -1 0 0 50 529 669 0 423 523 530 0 +-.001525 9e-4 2e-4 -.62469504755
4424 -.78086880944303 0 .78086880944303 -.624695047554424 0 14 423 647 531 ?0 42
7 421 5 529 +0 0 0 427 21 50 530 668 0 427 529 441 0 +-.00215 .0014 2e-4 0 -1 0
 0 0 -1 14 427 643 532 ?423 431 426 5 530 +0 0 423 431 21 50 441 667 0 431 530 4
36 0 +-.0029 .0014 2e-4 -1 0 0 0 0 1 81 1 532 1267 437 427 533 0 531 534 535 80
 1 437 536 537 9000 1 1 1 1 1 1 1 1 0 FFFFTFTFFFFFFF1 81 1 533 1181 538 427 539
 532 540 541 542 81 1 531 1266 437 423 541 0 525 532 543 81 1 534 1268 437 417 5
44 0 532 0 545 82 255 1 535 -444202854 14 417 620 534 ?186 178 416 5 528 -0 0 18
6 178 21 81 1 544 1177 538 417 546 534 547 548 549 82 1 545 -435421030 80 1 538
 0 550 8001 0 0 0 0 3 5 0 0 0 FFFFTFTFFFFFFF2 81 2 546 976 551 417 0 544 552 553
 0 0 81 1 547 1176 538 178 552 525 524 544 554 81 1 548 1178 538 186 553 442 544
 438 555 83 255 3 549 1 1 1 81 2 553 978 551 186 0 548 546 556 0 0 81 1 442 1243
 437 186 548 0 439 444 557 81 1 438 1179 538 434 556 435 548 540 558 83 3 555 1
 1 1 81 2 556 980 551 434 0 438 553 559 0 0 81 1 540 1180 538 431 559 439 438 53
3 560 83 3 558 1 1 1 81 2 559 982 551 431 0 540 556 539 0 0 81 1 439 1242 437 43
1 540 0 435 442 561 83 3 560 1 1 1 82 1 561 -444071782 80 2 551 562 563 9000 0 0
 0 0 3 6 0 0 0 FFFFTFFFFFFFFF9 1 81 2 539 984 551 427 0 533 559 564 0 0 81 2 564
 986 551 423 0 541 539 0 0 0 81 1 541 1182 538 423 564 531 533 0 565 83 3 565 1
 1 1 79 255 14 563 FACE_ID_2_200182 1 557 -443809638 81 2 552 974 551 178 0 547
 566 546 0 0 81 1 525 1265 437 178 547 0 521 531 567 81 1 524 1175 538 418 566 5
21 520 547 568 83 3 554 1 1 1 81 2 566 972 551 418 0 524 569 552 0 0 81 1 520 11
74 538 164 569 519 570 524 571 83 3 568 1 1 1 81 2 569 970 551 164 0 520 572 566
 0 0 81 1 570 1173 538 504 572 507 573 520 574 83 3 571 1 1 1 81 2 572 968 551 5
04 0 570 575 569 0 0 81 1 507 1259 437 504 570 0 503 510 576 81 1 573 1172 538 5
00 575 503 577 570 578 83 3 574 1 1 1 81 2 575 966 551 500 0 573 579 572 0 0 81
 1 503 1258 437 500 573 0 499 507 580 81 1 577 1171 538 496 579 499 581 573 582
 83 3 578 1 1 1 81 2 579 964 551 496 0 577 583 575 0 0 81 1 499 1257 437 496 577
 0 495 503 584 81 1 581 1170 538 491 583 495 585 577 586 83 3 582 1 1 1 81 2 583
 962 551 491 0 581 587 579 0 0 81 1 495 1256 437 491 581 0 490 499 588 81 1 585
 1169 538 488 587 490 589 581 590 83 3 586 1 1 1 81 2 587 960 551 488 0 585 591
 583 0 0 81 1 490 1255 437 488 585 0 485 495 592 81 1 589 1168 538 492 591 514 5
93 585 594 83 3 590 1 1 1 81 2 591 958 551 492 0 589 595 587 0 0 81 1 514 1261 4
37 492 589 0 510 517 596 81 1 593 1167 538 511 595 517 597 589 598 83 3 594 1 1
 1 81 2 595 956 551 511 0 593 599 591 0 0 81 1 517 1262 437 511 593 0 514 519 60
0 81 1 597 1166 538 486 599 510 601 593 602 83 3 598 1 1 1 81 2 599 954 551 486
 0 597 603 595 0 0 81 1 510 1260 437 486 597 0 507 514 604 81 1 601 1165 538 482
 603 485 605 597 606 83 3 602 1 1 1 81 2 603 952 551 482 0 601 607 599 0 0 81 1
 485 1254 437 482 601 0 481 490 608 81 1 605 1164 538 478 607 481 609 601 610 83
 3 606 1 1 1 81 2 607 950 551 478 0 605 611 603 0 0 81 1 481 1253 437 478 605 0
 477 485 612 81 1 609 1163 538 471 611 477 613 605 614 83 3 610 1 1 1 81 2 611 9
48 551 471 0 609 615 607 0 0 81 1 477 1252 437 471 609 0 474 481 616 81 1 613 11
62 538 468 615 470 617 609 618 83 3 614 1 1 1 81 2 615 946 551 468 0 613 619 611
 0 0 81 1 470 1250 437 468 613 0 466 474 620 81 1 617 1161 538 467 619 474 621 6
13 622 83 3 618 1 1 1 81 2 619 944 551 467 0 617 623 615 0 0 81 1 474 1251 437 4
67 617 0 470 477 624 81 1 621 1160 538 413 623 466 625 617 626 83 3 622 1 1 1 81
 2 623 942 551 413 0 621 627 619 0 0 81 1 466 1249 437 413 621 0 463 470 628 81
 1 625 1159 538 460 627 463 629 621 630 83 3 626 1 1 1 81 2 627 940 551 460 0 62
5 631 623 0 0 81 1 463 1248 437 460 625 0 459 466 632 81 1 629 1158 538 454 631
 459 633 625 634 83 3 630 1 1 1 81 2 631 938 551 454 0 629 635 627 0 0 81 1 459
 1247 437 454 629 0 452 463 636 81 1 633 1157 538 449 635 452 451 629 637 83 3 6
34 1 1 1 81 2 635 936 551 449 0 633 638 631 0 0 81 1 452 1246 437 449 633 0 447
 459 639 81 1 451 1156 538 445 638 447 446 633 640 83 3 637 1 1 1 81 2 638 934 5
51 445 0 451 641 635 0 0 81 1 446 1155 538 16 641 444 0 451 642 83 3 640 1 1 1 8
1 2 641 932 551 16 0 446 0 638 0 0 83 3 642 1 1 1 82 1 639 1329660056 82 1 636 1
329397912 82 1 632 1329135764 82 1 628 1328873626 82 1 624 1319567505 82 1 620 1
327562897 82 1 616 -838664044 82 1 612 -839253868 82 1 608 -626786152 82 1 604 -
627310440 82 1 600 -627703656 82 1 596 -629014376 82 1 592 -637337448 82 1 588 -
637599592 82 1 584 -637861736 82 1 580 -638123880 82 1 576 -638386024 82 1 567 -
434110310 79 15 550 SDL/TYSA_COLOUR82 1 543 -444333926 83 3 542 1 1 1 79 14 537
 SWEntUnchanged50 527 672 0 178 0 528 0 +0 0 2e-4 0 0 1 -1 0 0 82 1 526 -4336515
58 82 1 522 -433192806 15 518 347 0 643 511 0 17 643 0 518 121 271 43 39 398 0 6
44 -17 121 0 518 119 643 89 644 249 0 645 +17 271 0 518 643 107 35 646 268 0 0 +
17 39 0 461 84 380 35 643 398 0 397 +17 644 0 487 647 645 43 121 249 0 0 -15 487
 340 0 644 482 0 17 647 0 487 104 644 40 45 382 0 648 +17 645 0 487 644 104 89 3
14 311 0 649 -17 104 0 487 645 647 102 648 173 0 314 +17 314 0 493 101 649 102 6
45 311 0 650 +17 649 0 493 314 651 89 119 252 0 0 -15 493 362 0 101 488 0 17 651
 0 493 649 101 117 310 307 0 652 -17 119 0 518 116 121 117 649 252 0 651 +17 116
 0 518 113 119 114 652 256 0 653 +17 113 0 518 110 116 111 654 259 0 655 +17 652
 0 497 310 653 117 116 256 0 0 -17 653 0 497 652 98 114 306 303 0 654 -15 497 36
6 0 98 491 0 17 98 0 497 653 310 96 656 278 0 306 +17 306 0 501 95 654 96 653 30
3 0 657 +17 654 0 501 306 655 114 113 259 0 0 -15 501 370 0 95 496 0 17 655 0 50
1 654 95 111 302 299 0 658 -17 95 0 501 655 306 93 657 281 0 302 +17 302 0 505 9
2 658 93 655 299 0 659 +17 658 0 505 302 660 111 110 262 0 0 -15 505 374 0 92 50
0 0 17 660 0 505 658 92 108 298 295 0 661 -17 110 0 518 107 113 108 658 262 0 66
0 +17 107 0 518 271 110 85 661 265 0 662 +17 661 0 508 298 662 108 107 265 0 0 -
17 662 0 508 661 88 85 294 272 0 646 -15 508 378 0 88 504 0 17 88 0 508 662 298
 86 663 286 0 294 +17 294 0 512 291 646 86 662 272 0 664 +17 646 0 512 294 397 8
5 271 268 0 0 -15 512 344 0 291 486 0 17 397 0 512 646 291 35 84 394 0 271 +17 2
91 0 512 397 294 66 664 253 0 0 +17 84 0 461 42 39 66 397 394 0 393 -15 461 121
 0 380 454 0 17 42 0 461 59 84 40 393 390 0 665 -17 393 0 515 664 648 66 42 390
 0 291 +15 515 350 0 648 492 0 17 664 0 515 663 393 86 291 253 0 0 -17 648 0 515
 393 650 40 104 173 0 0 -17 650 0 515 648 656 102 101 275 0 0 -17 656 0 515 650
 657 99 98 278 0 0 -17 101 0 493 651 314 99 650 275 0 310 +17 310 0 497 98 652 9
9 651 307 0 656 +17 657 0 515 656 659 96 95 281 0 0 -17 659 0 515 657 663 93 92
 283 0 0 -17 663 0 515 659 664 90 88 286 0 0 -17 92 0 505 660 302 90 659 283 0 2
98 +17 298 0 508 88 661 90 660 295 0 663 +17 59 0 461 56 42 57 665 376 0 353 +17
 665 0 455 45 353 40 59 376 0 647 -15 455 123 0 353 449 0 17 45 0 455 666 665 43
 647 382 0 380 -17 353 0 455 665 385 57 667 350 0 668 +16 376 229 669 ?59 382 37
2 373 382 377 1 81 2 669 1115 190 376 0 0 670 193 0 0 16 382 226 670 ?647 377 37
6 373 377 376 1 81 2 670 1114 190 382 0 0 359 669 0 0 81 2 359 1113 190 357 0 0
 396 670 0 0 81 2 396 1112 190 394 0 0 370 359 0 0 81 2 370 1111 190 367 0 0 264
 396 0 0 81 2 264 1110 190 262 0 0 183 370 0 0 81 2 183 1109 190 165 0 0 321 264
 0 0 81 2 321 1108 190 319 0 0 401 183 0 0 81 2 401 1107 190 34 0 0 210 321 0 0
 81 2 210 1106 190 208 0 0 234 401 0 0 81 2 234 1105 190 184 0 0 219 210 0 0 81
 2 219 1104 190 217 0 0 326 234 0 0 81 2 326 1103 190 324 0 0 349 219 0 0 81 2 3
49 1102 190 347 0 0 285 326 0 0 81 2 285 1101 190 283 0 0 213 349 0 0 81 2 213 1
100 190 167 0 0 202 285 0 0 81 2 202 1099 190 200 0 0 290 213 0 0 81 2 290 1098
 190 253 0 0 288 202 0 0 81 2 288 1097 190 286 0 0 305 290 0 0 81 2 305 1096 190
 303 0 0 301 288 0 0 81 2 301 1095 190 299 0 0 227 305 0 0 81 2 227 1094 190 225
 0 0 345 301 0 0 81 2 345 1093 190 323 0 0 392 227 0 0 81 2 392 1092 190 390 0 0
 274 345 0 0 81 2 274 1091 190 173 0 0 247 392 0 0 81 2 247 1090 190 174 0 0 407
 274 0 0 81 2 193 1116 190 188 0 0 669 297 0 0 81 2 297 1117 190 295 0 0 193 267
 0 0 81 2 267 1118 190 265 0 0 297 22 0 0 81 2 22 1119 190 10 0 0 267 384 0 0 81
 2 384 1120 190 381 0 0 22 277 0 0 81 2 277 1121 190 275 0 0 384 251 0 0 17 385
 0 455 353 671 60 672 381 0 667 +17 667 0 472 65 668 60 353 350 0 0 -17 668 0 47
2 667 673 57 56 354 0 0 -15 472 67 0 415 468 0 17 673 0 472 668 414 54 53 357 0
 0 -17 56 0 461 674 59 54 668 354 0 375 +17 674 0 461 675 56 72 375 372 0 676 -1
7 375 0 677 53 676 54 674 372 0 673 +15 677 119 0 53 460 0 17 53 0 677 678 375 5
1 673 357 0 371 +17 676 0 677 375 678 72 71 337 0 0 -17 678 0 677 676 53 69 371
 367 0 679 -17 71 0 475 68 74 69 676 337 0 678 +15 475 4 0 327 467 0 17 68 0 475
 327 71 46 679 340 0 410 +17 74 0 475 71 77 72 675 334 0 674 +17 77 0 475 74 80
 75 671 332 0 666 +17 675 0 461 380 674 75 74 334 0 0 -17 380 0 461 39 675 43 66
6 377 0 643 +17 666 0 455 671 45 75 380 377 0 675 -17 671 0 455 385 666 78 77 33
2 0 0 -17 80 0 475 77 327 78 82 328 0 672 +17 327 0 475 80 68 50 409 324 0 680 +
17 82 0 450 389 672 50 80 328 0 327 -17 672 0 450 82 62 78 385 381 0 671 -17 62
 0 450 672 389 60 65 347 0 385 +17 389 0 450 62 82 63 680 386 0 346 +17 65 0 472
 415 667 63 62 347 0 389 -17 415 0 472 414 65 47 346 323 0 0 -17 414 0 472 673 4
15 51 362 329 0 0 -17 346 0 406 680 49 63 415 323 0 0 +17 680 0 406 409 346 50 3
89 386 0 0 -17 409 0 406 366 680 46 327 324 0 0 -17 679 0 27 371 410 69 68 340 0
 0 -17 410 0 27 679 23 46 366 363 0 409 -17 23 0 27 410 25 31 30 10 0 366 +17 37
1 0 27 362 679 51 678 367 0 414 +15 483 206 0 681 478 0 17 681 0 483 681 681 0 3
18 315 0 0 -17 318 0 682 318 318 0 681 315 0 0 +15 682 203 0 318 471 0 15 479 20
2 0 683 471 682 17 683 0 479 683 683 0 322 319 0 0 -17 322 0 464 322 322 0 683 3
19 0 0 +15 464 190 0 322 460 677 82 1 453 1329922193 82 1 448 1330184346 82 1 44
0 -443940710 81 2 255 1088 190 252 0 0 231 407 0 0 81 2 231 1087 190 229 0 0 223
 255 0 0 81 2 223 1086 190 221 0 0 243 231 0 0 81 2 243 1085 190 241 0 0 0 223 0
 0 79 19 404 EDGE_PERM_ID_2_200381 2 400 1141 190 398 0 0 258 246 0 0 81 2 258 1
140 190 256 0 0 198 400 0 0 81 2 246 1142 190 244 0 0 400 293 0 0 81 2 293 1143
 190 272 0 0 246 374 0 0 81 2 374 1144 190 372 0 0 293 331 0 0 81 2 331 1145 190
 328 0 0 374 236 0 0 81 2 236 1146 190 211 0 0 331 172 0 0 81 2 172 1147 190 162
 0 0 236 342 0 0 81 2 342 1148 190 340 0 0 172 388 0 0 81 2 388 1149 190 386 0 0
 342 240 0 0 81 2 240 1150 190 238 0 0 388 280 0 0 81 2 280 1151 190 278 0 0 240
 361 0 0 81 2 361 1152 190 329 0 0 280 352 0 0 81 2 352 1153 190 350 0 0 361 365
 0 0 81 2 365 1154 190 363 0 0 352 0 0 0 81 2 198 1139 190 194 0 0 356 258 0 0 8
1 2 356 1138 190 354 0 0 339 198 0 0 81 2 339 1137 190 337 0 0 313 356 0 0 81 2
 313 1136 190 311 0 0 379 339 0 0 81 2 379 1135 190 377 0 0 261 313 0 0 81 2 261
 1134 190 259 0 0 192 379 0 0 81 2 192 1133 190 281 0 0 187 261 0 0 17 29 0 159
 161 160 26 25 24 0 166 -19 17 142 0 1 0 9 5 S0 74 4 CI16 index_map_offset0 0 1
 dCCZ20 15 11 0 0 534 684 685 686 687 688 13 564 365 541 2 0 0 0 0 0 0 0 0 0 81
 2 684 744 689 1 0 685 0 0 0 690 81 2 685 746 691 1 684 686 0 0 0 692 81 1 686 7
67 693 1 685 687 0 0 694 81 2 687 797 695 1 686 688 0 0 696 0 81 2 688 924 697 1
 687 13 0 0 0 698 81 2 13 927 699 1 688 2 0 0 0 0 80 2 699 700 701 9000 0 0 0 0
 3 5 0 0 0 FFTFFFFFFFFFFF9 1 79 16 701 BODY_RECIPE_200180 2 697 702 703 9000 0 0
 0 0 3 5 0 0 0 FFTFFFFFFFFFFF9 1 82 1 698 1 79 24 703 BODY_IN_LIGHTWEIGHT_PERM80
 2 695 704 705 8004 0 0 0 0 3 5 0 0 0 FFTFFFFFFFFFFF2 3 83 1 696 78e2 79 16 705
 SDL/TYSA_DENSITY80 1 693 706 707 9000 1 1 1 1 1 1 1 1 0 FFTFFFFFFFFFFF1 82 1 69
4 413349 79 10 707 BODY_MATCH80 2 691 708 709 9000 0 0 0 0 3 5 0 0 0 FFTFFFFFFFF
FFF9 1 82 1 692 100 79 30 709 LAST_BODY_MODIFYING_FEATURE_ID80 2 689 710 711 900
0 0 0 0 0 3 5 0 0 0 FFTFFFFFFFFFFF9 1 82 1 690 117 79 19 711 ENT_TIME_STAMP_2001
80 2 12 190 712 9000 0 0 0 0 3 5 0 0 0 FFTFFFFFFFFFFF9 1 82 1 14 106 79 12 712 A
TOM_ID_20011 0 
