**ABCDEFGHIJKLMNOPQRSTUVWXYZabcdefghijklmnopqrstuvwxyz**************************
**PARASOLID !"#$%&'()*+,-./:;<=>?@[\]^_`{|}~0123456789**************************
**PART1;
MC=AMD64;
MC_MODEL=AMD64 Family 23 Model 96 Stepping 1, AuthenticAMD;
MC_ID=unknown;
OS=Windows_NT;
OS_RELEASE=unknown;
FRU=Parasolid Version 31.1, build 290,  3- 9-2020;
APPL=SOLIDWORKS 2020-2020196;
SITE=;
USER=unknown;
FORMAT=text;
GUISE=transmit;
KEY= варцевый резонатор SMD 32,768KHz;
FILE= варцевый резонатор SMD 32,768KHz.x_t;
DATE=Tue May 31 16:47:02 2022;
**PART2;
SCH=SCH_3101290_31100;
USFLD_SIZE=0;
**PART3;
**END_OF_HEADER*****************************************************************
T51 : TRANSMIT FILE created by modeller version 310129023 SCH_3101290_31100_1300
6222 0 12 34 CCCCCCI4 mesh1006 0 I8 polyline1008 0 CCCCCCCDI5 owner1040 0 CCCCCC
I13 boundary_mesh1006 0 I17 boundary_polyline1008 0 CCCA16 index_map_offset0 0 1
 dA9 index_map82 0 A17 node_id_index_map82 0 A20 schema_embedding_map82 0 A5 chi
ld12 0 A14 lowest_node_id0 0 1 dA16 mesh_offset_data206 0 Z1 1883 2 3 0 0 0 0 0
 0 1e3 1e-8 0 4 0 1 0 1 1 5 6 7 8 0 0 9 10 11 0 0 0 0 0 0 0 81 255 2 2 1843 12 1
 13 0 0 0 0 14 70 11 CI9 list_type0 0 1 uI10 notransmit0 0 1 lCCCDCCDI12 finger_
index0 0 1 dI12 finger_block1012 0 CZ3 0 4 T1 0 0 10 20 1 15 15 13 255 5 120 0 1
 0 16 0 0 17 0 50 255 6 1467 18 19 20 0 0 +-.0038 1e-4 0 -.986393923832144 -.164
3989873053545 0 0 0 1 30 255 7 1421 0 10 21 0 0 +-.004 .001300000000000024 .0018
 0 0 1 29 255 8 1403 0 11 22 0 -.0038 1e-4 -.0018 19 8 CCCCCCCA5 owner12 0 Z9 40
 0 1 17 0 23 V0 16 255 10 1419 0 ?24 0 25 7 0 0 1 18 255 11 1401 0 26 0 27 8 ?1
 17 255 26 0 28 29 30 11 31 32 0 33 -18 27 1398 0 31 11 34 22 ?1 17 31 0 35 36 3
7 27 26 32 0 38 +18 34 1390 0 39 27 40 41 ?1 29 22 1400 0 27 41 8 -.004 .0013000
00000000024 -.0018 29 41 1392 0 34 42 22 .004 .001300000000000024 -.0018 29 42 1
379 0 40 43 41 -.0038 1e-4 .0018 18 40 1377 0 44 34 45 42 ?1 29 43 1376 0 45 46
 42 -.004 .001300000000000024 .0018 18 45 1374 0 24 40 47 43 ?1 29 46 1373 0 47
 48 43 .004 .001300000000000024 .0018 18 47 1371 0 49 45 50 46 ?1 29 48 1365 0 5
0 51 46 .0038 1e-4 .0018 18 50 1363 0 52 47 53 48 ?1 29 51 1362 0 53 54 48 .0038
 1e-4 -.0018 18 53 1360 0 55 50 56 51 ?1 29 54 1271 0 56 57 51 .004 .00149999999
9999982 .0018 18 56 1269 0 58 53 59 54 ?1 29 57 1263 0 59 60 54 .004 .0014999999
99999982 -.0018 18 59 1261 0 61 56 62 57 ?1 29 60 1250 0 62 63 57 -.004 .0014999
99999999982 -.0018 18 62 1248 0 64 59 65 60 ?1 29 63 1247 0 65 66 60 -.004 .0014
99999999999982 .0018 18 65 1245 0 67 62 68 63 ?1 29 66 1234 0 68 69 63 -.004 .00
17 -.00176 18 68 1232 0 70 65 71 66 ?1 29 69 1231 0 71 72 66 -.004 .0017 .00176
 18 71 1229 0 73 68 74 69 ?1 29 72 1222 0 74 75 69 .0038 .0025 -.0016 18 74 1220
 0 76 71 77 72 ?1 29 75 1218 0 77 78 72 .0038 .0025 .0016 18 77 1216 0 79 74 80
 75 ?1 29 78 1215 0 80 81 75 -.0032 .0025 -.0016 18 80 1213 0 82 77 83 78 ?1 29
 81 1212 0 83 84 78 -.0032 .0025 .0016 18 83 1210 0 85 80 86 81 ?1 29 84 993 0 8
6 87 81 -.0025 1e-4 -.0018 18 86 991 0 88 83 89 84 ?1 29 87 851 0 89 90 84 .0025
 1e-4 -9e-4 18 89 849 0 91 86 92 87 ?1 29 90 848 0 92 93 87 .003 1e-4 -9e-4 18 9
2 846 0 94 89 95 90 ?1 29 93 834 0 95 96 90 .0025 .0012 -.0018 18 95 832 0 97 92
 98 93 ?1 29 96 831 0 98 99 93 .003 1e-4 -.0018 18 98 829 0 100 95 101 96 ?1 29
 99 828 0 101 102 96 .0025 1e-4 -.0018 18 101 826 0 103 98 104 99 ?1 29 102 674
 0 104 105 99 .0025 1e-4 9e-4 18 104 672 0 106 101 107 102 ?1 29 105 511 0 107 1
08 102 -.003 1e-4 9e-4 18 107 509 0 109 104 110 105 ?1 29 108 189 0 110 111 105
 -.0021 1e-4 -.0018 18 110 187 0 112 107 113 108 ?1 29 111 177 0 113 114 108 .00
21 112055182121983e-32 -.0018 18 113 175 0 115 110 116 111 ?1 29 114 453 0 116 1
17 111 .0021 1e-4 -.0018 18 116 348 0 118 113 119 114 ?1 29 117 454 0 119 120 11
4 -.0021 -3857637417314165e-34 -.0018 18 119 341 0 121 116 122 117 ?1 29 120 463
 0 123 124 117 -.0021 -3857637417314165e-34 .0018 18 123 335 0 125 126 127 120 ?
1 29 124 464 0 127 128 120 .0021 3857637417314165e-34 .0018 18 127 349 0 129 123
 130 124 ?1 29 128 466 0 122 131 124 -.0021 1e-4 .0018 18 122 333 0 132 119 126
 128 ?1 29 131 467 0 126 133 128 .0021 1e-4 .0018 18 126 332 0 134 122 123 131 ?
1 29 133 648 0 130 135 131 -.003 1e-4 .0018 18 130 580 0 136 127 137 133 ?1 29 1
35 649 0 137 138 133 -.003 .0012 .0018 18 137 585 0 139 130 140 135 ?1 29 138 65
0 0 140 141 135 -.0025 1e-4 .0018 18 140 578 0 142 137 143 138 ?1 29 141 651 0 1
43 144 138 -.0025 .0012 .0018 18 143 575 0 145 140 146 141 ?1 29 144 652 0 146 1
47 141 -.0025 1e-4 9e-4 18 146 579 0 148 143 149 144 ?1 29 147 654 0 150 151 144
 -.003 0 9e-4 18 150 582 0 152 153 154 147 ?1 29 151 655 0 154 155 147 -.0025 0
 9e-4 18 154 584 0 156 150 157 151 ?1 29 155 656 0 157 158 151 -.0025 0 .0019 18
 157 583 0 159 154 160 155 ?1 29 158 657 0 160 161 155 -.003 0 .0019 18 160 588
 0 162 157 163 158 ?1 29 161 660 0 149 164 158 -.0025 .0012 .0019 18 149 587 0 1
65 146 153 161 ?1 29 164 661 0 153 166 161 -.003 .0012 .0019 18 153 586 0 167 14
9 150 164 ?1 29 166 811 0 163 168 164 .0025 1e-4 .0018 18 163 743 0 169 160 170
 166 ?1 29 168 812 0 170 171 166 .0025 .0012 .0018 18 170 748 0 172 163 173 168
 ?1 29 171 813 0 173 174 168 .003 1e-4 .0018 18 173 741 0 175 170 176 171 ?1 29
 174 814 0 176 177 171 .003 .0012 .0018 18 176 738 0 178 173 179 174 ?1 29 177 8
15 0 179 180 174 .003 1e-4 9e-4 18 179 742 0 181 176 182 177 ?1 29 180 817 0 183
 184 177 .0025 0 9e-4 18 183 745 0 185 186 187 180 ?1 29 184 818 0 187 188 180 .
003 0 9e-4 18 187 747 0 189 183 190 184 ?1 29 188 819 0 190 191 184 .003 0 .0019
 18 190 746 0 192 187 193 188 ?1 29 191 820 0 193 194 188 .0025 0 .0019 18 193 7
51 0 195 190 196 191 ?1 29 194 823 0 182 197 191 .003 .0012 .0019 18 182 750 0 1
98 179 186 194 ?1 29 197 824 0 186 199 194 .0025 .0012 .0019 18 186 749 0 200 18
2 183 197 ?1 29 199 977 0 196 201 197 .003 .0012 -.0018 18 196 902 0 202 193 203
 199 ?1 29 201 979 0 204 205 199 .003 0 -.0019 18 204 910 0 206 207 208 201 ?1 2
9 205 980 0 208 209 201 .003 0 -9e-4 18 208 909 0 210 204 211 205 ?1 29 209 981
 0 211 212 205 .0025 0 -9e-4 18 211 908 0 213 208 214 209 ?1 29 212 982 0 214 21
5 209 .0025 0 -.0019 18 214 913 0 216 211 217 212 ?1 29 215 983 0 203 218 212 .0
03 .0012 -.0019 18 203 903 0 219 196 207 215 ?1 29 218 986 0 207 220 215 .0025 .
0012 -.0019 18 207 906 0 221 203 204 218 ?1 29 220 1135 0 217 222 218 -.003 1e-4
 -.0018 18 217 1069 0 223 214 224 220 ?1 29 222 1136 0 224 225 220 -.003 .0012 -
.0018 18 224 1072 0 226 217 227 222 ?1 29 225 1137 0 227 228 222 -.003 1e-4 -9e-
4 18 227 1070 0 229 224 230 225 ?1 29 228 1139 0 230 231 225 -.0025 1e-4 -9e-4 1
8 230 1065 0 232 227 233 228 ?1 29 231 1140 0 233 234 228 -.0025 .0012 -.0018 18
 233 1062 0 235 230 236 231 ?1 29 234 1141 0 237 238 231 -.0025 0 -.0019 18 237
 1068 0 239 240 241 234 ?1 29 238 1142 0 241 242 234 -.0025 0 -9e-4 18 241 1067
 0 243 237 244 238 ?1 29 242 1143 0 244 245 238 -.003 0 -9e-4 18 244 1071 0 246
 241 247 242 ?1 29 245 1144 0 247 248 242 -.003 0 -.0019 18 247 1075 0 249 244 0
 245 ?1 29 248 1145 0 236 250 245 -.0025 .0012 -.0019 18 236 1063 0 251 233 240
 248 ?1 29 250 1148 0 240 0 248 -.003 .0012 -.0019 18 240 1064 0 252 236 237 250
 ?1 17 252 0 253 254 226 240 255 256 0 257 -15 255 253 1082 0 258 259 0 17 254 0
 253 260 252 247 261 262 0 263 +17 226 0 253 252 258 224 264 265 0 255 +17 255 0
 266 235 257 224 252 256 0 267 +16 256 1020 0 ?255 268 269 270 0 0 1 17 257 0 26
6 255 251 240 271 269 0 261 +15 266 1078 0 255 272 0 17 251 0 266 257 235 236 27
3 268 0 274 +17 271 0 275 276 261 236 257 269 0 0 -16 269 1027 0 ?257 256 277 27
8 0 0 1 17 261 0 275 271 263 240 254 262 0 0 -15 275 1094 0 263 279 0 17 263 0 2
75 261 276 247 280 281 0 0 +16 262 1031 0 ?254 282 283 284 0 0 1 16 282 1037 0 ?
88 265 262 285 0 0 1 16 283 1047 0 ?246 262 286 287 0 0 1 30 284 1123 0 262 287
 285 0 +-.003 .0012 -.0019 0 -1 0 30 287 1124 0 283 288 284 0 +-.003 .0012 -9e-4
 0 -1 0 30 285 1122 0 282 284 289 0 +-.0025 0 -.0018 0 -1 0 30 289 1121 0 265 28
5 290 0 +-.003 0 -.0018 0 1 0 16 265 1030 0 ?226 291 282 289 0 0 1 30 290 972 0
 292 289 293 0 +.0025 .0012 -.0019 -1 0 0 16 292 870 0 ?294 295 296 290 0 0 1 30
 293 971 0 295 290 297 0 +.0025 .0012 -.0019 -433680868994202e-30 0 1 16 295 863
 0 ?298 299 292 293 0 0 1 30 297 969 0 299 293 300 0 +.003 .0012 -.0019 86736173
7988404e-30 0 -1 16 299 867 0 ?219 301 295 297 0 0 1 30 300 968 0 291 297 302 0
 +.0025 0 -.0019 -1 0 0 16 291 873 0 ?303 304 265 300 0 0 1 30 302 967 0 304 300
 305 0 +.0025 0 -.0019 -433680868994202e-30 0 1 16 304 879 0 ?306 307 291 302 0
 0 1 30 305 966 0 307 302 308 0 +.0025 0 -9e-4 1 0 2168404344971015e-31 16 307 8
83 0 ?309 296 304 305 0 0 1 30 308 965 0 296 305 310 0 +.003 0 -.0019 8673617379
88404e-30 0 -1 16 296 887 0 ?206 292 307 308 0 0 1 30 310 964 0 301 308 311 0 +.
003 .0012 -.0019 0 -1 0 16 301 876 0 ?312 313 299 310 0 0 1 30 311 963 0 313 310
 314 0 +.003 .0012 -9e-4 0 -1 0 16 313 886 0 ?210 315 301 311 0 0 1 30 314 962 0
 315 311 316 0 +.0025 .0012 -9e-4 0 -1 0 16 315 882 0 ?213 317 313 314 0 0 1 30
 316 961 0 317 314 318 0 +.0025 .0012 -.0019 0 -1 0 16 317 878 0 ?319 320 315 31
6 0 0 1 30 318 960 0 320 316 321 0 +.003 1e-4 260208521396521e-32 86736173798840
4e-30 1593317664195575e-46 -1 16 320 862 0 ?100 322 317 318 0 0 1 30 321 959 0 3
22 318 323 0 +.0025 1e-4 1084202172485504e-33 -433680868994202e-30 -796658832097
788e-46 1 16 322 860 0 ?91 324 320 321 0 0 1 30 323 810 0 325 321 326 0 +.0025 .
0012 .0019 433680868994202e-30 0 1 16 325 729 0 ?200 327 328 323 0 0 1 30 326 80
9 0 327 323 329 0 +.0025 .0012 .0019 1 0 0 16 327 732 0 ?198 330 325 326 0 0 1 3
0 329 808 0 330 326 331 0 +.003 .0012 .0019 -867361737988404e-30 0 -1 16 330 735
 0 ?332 333 327 329 0 0 1 30 331 806 0 324 329 334 0 +.0025 0 .0019 433680868994
202e-30 0 1 16 324 714 0 ?335 336 322 331 0 0 1 30 334 805 0 336 331 337 0 +.002
5 0 .0019 1 0 0 16 336 717 0 ?192 338 324 334 0 0 1 30 337 804 0 338 334 339 0 +
.003 0 .0019 -867361737988404e-30 0 -1 16 338 722 0 ?340 328 336 337 0 0 1 30 33
9 803 0 328 337 341 0 +.0025 0 9e-4 -1 0 2168404344971015e-31 16 328 726 0 ?342
 325 338 339 0 0 1 30 341 802 0 333 339 343 0 +.0025 .0012 9e-4 0 -1 0 16 333 71
3 0 ?185 344 330 341 0 0 1 30 343 801 0 344 341 345 0 +.003 .0012 9e-4 0 -1 0 16
 344 725 0 ?189 346 333 343 0 0 1 30 345 800 0 346 343 347 0 +.003 .0012 .0019 0
 -1 0 16 346 721 0 ?348 349 344 345 0 0 1 30 347 799 0 349 345 350 0 +.0025 .001
2 .0019 0 -1 0 16 349 720 0 ?351 352 346 347 0 0 1 30 350 798 0 352 347 353 0 +.
003 0 .0018 0 -1 0 16 352 709 0 ?354 355 349 350 0 0 1 30 353 797 0 355 350 356
 0 +.0025 0 .0018 0 1 0 16 355 707 0 ?357 358 352 353 0 0 1 30 356 647 0 359 353
 360 0 +-.003 .0012 .0019 0 0 1 16 359 566 0 ?167 361 362 356 0 0 1 30 360 646 0
 361 356 363 0 +-.003 .0012 .0019 1 0 0 16 361 569 0 ?165 364 359 360 0 0 1 30 3
63 645 0 364 360 365 0 +-.0025 .0012 .0019 -433680868994202e-30 0 -1 16 364 572
 0 ?366 367 361 363 0 0 1 30 365 643 0 358 363 368 0 +-.003 0 .0019 0 0 1 16 358
 551 0 ?369 370 355 365 0 0 1 30 368 642 0 370 365 371 0 +-.003 0 .0019 1 0 0 16
 370 554 0 ?159 372 358 368 0 0 1 30 371 641 0 372 368 373 0 +-.0025 0 .0019 -43
3680868994202e-30 0 -1 16 372 559 0 ?374 362 370 371 0 0 1 30 373 640 0 362 371
 375 0 +-.003 0 9e-4 -1 0 2168404344971015e-31 16 362 563 0 ?376 359 372 373 0 0
 1 30 375 639 0 367 373 377 0 +-.003 .0012 9e-4 0 -1 0 16 367 550 0 ?152 378 364
 375 0 0 1 30 377 638 0 378 375 379 0 +-.0025 .0012 9e-4 0 -1 0 16 378 562 0 ?15
6 380 367 377 0 0 1 30 379 637 0 380 377 381 0 +-.0025 .0012 .0019 0 -1 0 16 380
 558 0 ?382 383 378 379 0 0 1 30 381 636 0 383 379 384 0 +-.003 .0012 .0019 0 -1
 0 16 383 557 0 ?385 386 380 381 0 0 1 30 384 635 0 386 381 387 0 +-.0025 0 .001
8 0 -1 0 16 386 546 0 ?388 389 383 384 0 0 1 30 387 634 0 389 384 390 0 +-.003 0
 .0018 0 1 0 16 389 544 0 ?391 392 386 387 0 0 1 30 390 444 0 393 387 394 0 +-.0
021 1e-4 .0018 -120466908053945e-30 -1337451350268914e-47 -1 16 393 277 0 ?395 3
96 397 390 0 0 1 30 394 442 0 396 390 398 0 +.0021 1e-4 .0018 -120466908053945e-
30 -1337451350268914e-47 1 16 396 304 0 ?399 400 393 394 0 0 1 30 398 440 0 392
 394 401 0 +-.0021 -3857637417314165e-34 .0018 -120466908053945e-30 -13374513502
68914e-47 -1 16 392 310 0 ?402 397 389 398 0 0 1 30 401 438 0 397 398 403 0 +.00
21 3857637417314165e-34 .0018 -120466908053945e-30 -1337451350268914e-47 1 16 39
7 318 0 ?404 393 392 401 0 0 1 30 403 436 0 405 401 406 0 +-.0021 1e-4 .0018 183
697019872103e-30 -1 0 16 405 313 0 ?407 408 409 403 0 0 1 30 406 435 0 409 403 4
10 0 +.0021 1e-4 .0018 183697019872103e-30 -1 0 16 409 317 0 ?129 405 411 406 0
 0 1 30 410 434 0 411 406 412 0 +.0021 1e-4 -.0018 183697019872103e-30 -1 0 16 4
11 321 0 ?413 409 400 410 0 0 1 30 412 433 0 400 410 414 0 +-.0021 1e-4 -.0018 1
83697019872103e-30 -1 0 16 400 325 0 ?121 411 396 412 0 0 1 30 414 415 0 415 412
 416 0 +-183697019872103e-34 1e-4 .0018 1 183697019872103e-30 0 16 415 307 0 ?41
7 418 408 414 419 418 1 30 416 7 0 420 414 421 0 +-.004 .0017 .0018 0 -1 0 16 42
0 1246 0 ?422 423 424 416 0 0 1 30 421 11 0 423 416 425 0 +-.004 0 .0018 1 18369
7019872103e-30 0 16 423 203 0 ?426 427 420 421 0 0 1 30 425 15 0 427 421 428 0 +
.004 1469576158976824e-33 .0018 0 1 0 16 427 1372 0 ?58 429 423 425 0 0 1 30 428
 89 0 430 425 431 0 +-.004 .0017 -.0018 0 -1 0 16 430 1249 0 ?38 432 419 428 0 0
 1 30 431 88 0 432 428 433 0 +-.004 0 -.0018 1 183697019872103e-30 0 16 432 173
 0 ?434 424 430 431 0 0 1 30 433 87 0 424 431 435 0 +.004 1469576158976824e-33 -
.0018 0 1 0 16 424 1391 0 ?61 420 432 433 0 0 1 30 435 115 0 429 433 436 0 +-.00
4 .0017 .0018 0 0 -1 16 429 1230 0 ?437 438 427 435 0 0 1 30 436 116 0 438 435 4
39 0 +-.0032 .0025 .0018 0 0 -1 16 438 1211 0 ?440 441 429 436 0 0 1 30 439 184
 0 442 436 443 0 +-183697019872103e-34 1e-4 -.0018 1 183697019872103e-30 0 16 44
2 182 0 ?444 445 441 439 446 441 1 30 443 512 0 447 439 448 0 +4064079639003095e
-34 1e-4 9e-4 -1 -183697019872103e-30 2168404344971015e-31 16 447 510 0 ?449 450
 446 443 0 0 1 30 448 514 0 450 443 451 0 +-.0025 1e-4 1084202172485504e-33 -433
680868994202e-30 -796658832097788e-46 -1 16 450 513 0 ?452 453 447 448 0 0 1 30
 451 517 0 453 448 454 0 +-.003 1e-4 0 0 0 1 16 453 515 0 ?455 456 450 451 0 0 1
 30 454 526 0 456 451 457 0 +0 .0012 .0018 1 0 0 16 456 524 0 ?458 459 453 454 0
 0 1 30 457 675 0 459 454 460 0 +4064079639003095e-34 1e-4 9e-4 -1 -183697019872
103e-30 2168404344971015e-31 16 459 673 0 ?461 462 456 457 0 0 1 30 460 677 0 46
2 457 463 0 +.003 1e-4 -260208521396521e-32 -867361737988404e-30 -15933176641955
75e-46 -1 16 462 676 0 ?464 465 459 460 0 0 1 30 463 680 0 465 460 466 0 +.0025
 1e-4 -1084202172485504e-33 433680868994202e-30 796658832097788e-46 1 16 465 678
 0 ?467 468 462 463 0 0 1 30 466 689 0 468 463 469 0 +0 .0012 .0018 1 0 0 16 468
 687 0 ?470 471 465 466 0 0 1 30 469 838 0 471 466 472 0 +0 .0012 -.0018 1 0 0 1
6 471 836 0 ?473 474 468 469 0 0 1 30 472 840 0 474 469 475 0 +.003 0 -.0018 0 -
1 0 16 474 839 0 ?476 477 471 472 0 0 1 30 475 843 0 477 472 478 0 +.0025 0 -.00
18 0 1 0 16 477 841 0 ?479 480 474 475 0 0 1 30 478 852 0 480 475 481 0 +4064079
639003095e-34 1e-4 -9e-4 1 183697019872103e-30 2168404344971015e-31 16 480 850 0
 ?94 482 477 478 0 0 1 30 481 997 0 482 478 483 0 +-.0025 1e-4 -1084202172485504
e-33 433680868994202e-30 796658832097788e-46 -1 16 482 995 0 ?484 485 480 481 0
 0 1 30 483 1001 0 485 481 486 0 +4064079639003095e-34 1e-4 -9e-4 1 183697019872
103e-30 2168404344971015e-31 16 485 999 0 ?487 488 482 483 0 0 1 30 486 1004 0 4
88 483 489 0 +-.003 1e-4 0 0 0 1 16 488 1002 0 ?490 491 485 486 0 0 1 30 489 101
3 0 491 486 492 0 +0 .0012 -.0018 1 0 0 16 491 1011 0 ?235 493 488 489 0 0 1 30
 492 1219 0 493 489 494 0 +.004 .0025 .0016 1 602334540269725e-31 0 16 493 1217
 0 ?79 495 491 492 0 0 1 30 494 1223 0 495 492 496 0 +.0038 .0025 .0018 0 0 -1 1
6 495 1221 0 ?76 497 493 494 0 0 1 30 496 1226 0 497 494 498 0 +.004 .0025 -.001
6 -1 -602334540269725e-31 0 16 497 1224 0 ?499 500 495 496 0 0 1 30 498 1237 0 5
00 496 501 0 +-.002141176470588235 .00355882352941176 .001388235294117652 .70014
0042014006 .700140042014004 -.1400280084027986 16 500 1235 0 ?85 502 497 498 0 0
 1 30 501 1242 0 502 498 503 0 -.0003294117647058965 .00602941176470589 -.000894
117647058834 .700140042014006 .700140042014004 .1400280084027986 16 502 1240 0 ?
70 504 500 501 0 0 1 30 503 1253 0 504 501 505 0 +-.004 .001499999999999982 .001
8 0 .980580675690921 -.196116135138181 16 504 1251 0 ?73 506 502 503 0 0 1 30 50
5 1258 0 506 503 507 0 --.004 .0025 -.0016 0 .980580675690921 .196116135138181 1
6 506 1256 0 ?64 508 504 505 0 0 1 30 507 1266 0 508 505 509 0 +-903501810404576
e-34 .001499999999999982 -.0018 1 602334540269725e-31 0 16 508 1264 0 ?510 511 5
06 507 0 0 1 30 509 1274 0 511 507 512 0 +.004 .001499999999999982 .0018 0 0 1 1
6 511 1272 0 ?513 514 508 509 0 0 1 30 512 1279 0 514 509 515 0 +-.0032 .0014999
99999999982 .0018 -1 -602334540269725e-31 0 16 514 1277 0 ?67 516 511 512 0 0 1
 30 515 1329 0 517 512 518 0 -.00367407407407408 .00312962962962962 -.0014740740
74074078 -.1924500897298725 .962250448649377 .1924500897298725 16 517 1308 0 ?51
9 520 0 515 0 0 1 30 518 1328 0 520 515 521 0 +.00385185185185186 .0022407407407
40715 .001651851851851855 .1924500897298725 -.962250448649377 .1924500897298725
 16 520 1305 0 ?522 281 517 518 0 0 1 30 521 1368 0 516 518 523 0 +.0038 1e-4 .0
018 0 0 1 16 516 1366 0 ?524 525 514 521 0 0 1 30 523 1382 0 525 521 526 0 +-.00
3681081081081085 -.000613513513513504 .0018 .1643989873053545 -.986393923832144
 0 16 525 1380 0 ?44 527 516 523 0 0 1 30 526 1387 0 527 523 528 0 +.00368108108
1081085 -.000613513513513502 .0018 .164398987305354 .986393923832144 0 16 527 13
85 0 ?49 529 525 526 0 0 1 30 528 1395 0 529 526 530 0 +.004 .001300000000000024
 -.0018 0 0 -1 16 529 1393 0 ?39 32 527 528 0 0 1 30 530 1406 0 32 528 531 0 +-.
0038 1e-4 -.0018 -.1643989873053545 .986393923832144 0 16 32 1404 0 ?31 532 529
 530 0 0 1 30 531 1411 0 532 530 21 0 +.0038 1e-4 -.0018 -.164398987305354 -.986
393923832144 0 16 532 1409 0 ?55 25 32 531 0 0 1 30 21 1416 0 25 531 7 0 +-.0038
 1e-4 -.0018 0 0 -1 16 25 1414 0 ?33 10 532 21 0 0 1 17 33 0 533 223 534 11 29 2
5 0 37 +15 533 356 0 534 535 0 17 223 0 533 490 33 217 37 446 0 258 +17 534 0 53
3 33 455 40 136 419 0 29 -17 29 0 28 536 26 40 33 25 0 0 -17 37 0 35 31 264 11 2
23 446 0 0 -15 35 1016 0 537 16 0 17 264 0 35 37 267 217 226 265 0 0 -16 446 140
2 0 ?223 447 445 439 445 442 1 16 445 992 0 ?112 446 442 439 441 446 1 17 112 0
 533 538 484 110 539 445 0 395 +16 441 830 0 ?540 442 438 439 442 445 1 17 540 0
 541 524 100 53 542 441 0 543 +15 541 382 0 540 544 0 17 524 0 541 545 540 50 54
3 516 0 546 +17 100 0 541 540 94 98 547 320 0 542 +17 542 0 35 202 55 98 540 441
 0 476 -17 543 0 548 549 52 53 524 516 0 0 -15 548 1434 0 549 550 0 17 549 0 548
 551 543 34 55 532 0 0 -17 52 0 548 543 551 50 49 527 0 524 -17 551 0 548 52 549
 47 39 529 0 0 -17 49 0 552 58 546 47 52 527 0 553 +15 552 684 0 546 554 0 17 58
 0 552 67 49 56 553 427 0 513 +17 546 0 552 49 354 50 545 408 0 0 +17 553 0 555
 39 513 47 58 427 0 551 -15 555 232 0 553 556 0 17 39 0 555 61 553 34 551 529 0
 537 +17 513 0 555 553 61 56 557 511 0 558 +17 61 0 555 513 39 59 537 424 0 510
 +17 557 0 559 560 522 59 513 511 0 519 -17 558 0 561 562 563 56 67 514 0 522 -1
5 561 1293 0 563 564 0 17 562 0 561 565 558 77 522 520 0 566 -17 563 0 561 558 5
67 65 73 504 0 0 -17 67 0 552 422 58 65 558 514 0 568 +17 522 0 559 557 566 56 5
62 520 0 0 +15 559 1295 0 522 569 0 17 566 0 559 522 560 77 76 495 0 0 -17 560 0
 559 566 557 74 519 517 0 570 -17 76 0 571 499 79 74 566 495 0 560 +15 571 102 0
 76 572 0 17 499 0 571 573 76 80 570 497 0 440 +17 79 0 571 76 573 77 565 493 0
 562 +17 573 0 571 79 499 83 440 438 0 565 -17 565 0 561 567 562 83 79 493 0 0 -
17 567 0 561 563 565 71 85 500 0 0 -17 85 0 574 440 575 83 567 500 0 573 +15 574
 100 0 440 576 0 17 440 0 574 70 85 80 573 438 0 0 +17 575 0 574 85 70 71 437 42
9 0 567 -17 70 0 574 575 440 68 82 502 0 437 +17 437 0 577 64 73 68 575 429 0 57
8 +15 577 246 0 38 579 0 17 64 0 577 38 437 62 578 506 0 36 +17 73 0 577 437 568
 71 563 504 0 575 +17 578 0 580 82 581 68 64 506 0 0 -15 580 1297 0 519 582 0 17
 82 0 580 570 578 80 70 502 0 499 -17 581 0 580 578 519 62 510 508 0 0 -17 519 0
 580 581 570 59 560 517 0 0 +17 510 0 35 537 36 59 581 508 0 557 +17 537 0 35 55
 510 34 61 424 0 549 -17 36 0 35 510 31 62 38 430 0 581 -17 38 0 577 24 64 27 36
 430 0 30 +17 24 0 577 568 38 45 30 10 0 422 +17 30 0 28 26 536 27 24 10 0 0 -15
 28 1456 0 536 19 0 17 536 0 28 30 29 45 44 525 0 0 -17 44 0 552 136 422 40 536
 525 0 534 +17 136 0 552 391 44 130 534 419 0 583 +17 422 0 552 44 67 45 568 420
 0 536 +17 568 0 577 73 24 65 422 420 0 563 -17 391 0 552 458 136 137 583 389 0
 0 +16 419 1378 0 ?136 430 418 414 408 415 1 17 583 0 584 585 586 130 391 389 0
 455 -15 584 607 0 583 587 0 17 585 0 584 152 583 107 455 453 0 449 -17 586 0 58
4 583 588 137 167 359 0 391 -17 455 0 533 534 449 130 585 453 0 0 +17 449 0 533
 455 452 107 148 447 0 0 +17 452 0 533 449 589 146 142 450 0 0 +17 148 0 590 156
 109 146 449 447 0 591 -15 590 619 0 148 592 0 17 156 0 590 376 148 154 591 378
 0 374 +17 109 0 590 148 376 107 152 367 0 585 -17 591 0 593 142 374 146 156 378
 0 452 -15 593 615 0 145 594 0 17 142 0 593 145 591 140 452 450 0 388 -17 374 0
 593 591 382 154 595 372 0 596 +17 382 0 593 374 597 157 598 380 0 595 +17 595 0
 599 162 596 157 374 372 0 0 -17 596 0 599 595 600 154 376 362 0 0 -15 599 625 0
 600 601 0 17 600 0 599 596 162 150 369 358 0 0 -17 376 0 590 109 156 150 596 36
2 0 600 +17 162 0 599 600 595 160 159 370 0 385 -17 369 0 584 588 152 160 600 35
8 0 0 +17 588 0 584 586 369 153 385 383 0 0 -17 152 0 584 369 585 150 109 367 0
 376 +17 385 0 602 159 603 160 588 383 0 369 +15 602 611 0 159 604 0 17 159 0 60
2 598 385 157 162 370 0 382 +17 603 0 602 385 598 153 165 361 0 588 -17 598 0 60
2 603 159 149 382 380 0 597 -17 165 0 605 366 167 149 603 361 0 598 +15 605 622
 0 139 606 0 17 366 0 605 139 165 143 597 364 0 458 +17 167 0 605 165 139 153 58
6 359 0 603 +17 139 0 605 167 366 137 458 456 0 586 -17 458 0 552 388 391 143 13
9 456 0 0 +17 388 0 552 132 458 140 145 386 0 589 +17 132 0 552 407 388 122 589
 418 0 607 +17 145 0 593 597 142 143 388 386 0 366 -17 589 0 533 452 538 140 132
 418 0 0 -17 538 0 533 589 112 122 395 393 0 0 -16 418 504 0 ?132 419 415 414 41
5 408 1 16 408 667 0 ?546 415 405 414 418 419 1 17 395 0 608 121 607 110 538 393
 0 609 +15 608 389 0 125 610 0 17 121 0 608 125 395 119 609 400 0 402 +17 607 0
 608 395 125 122 407 405 0 538 -17 609 0 35 539 611 110 121 400 0 0 -17 539 0 35
 612 609 86 112 445 0 0 -17 611 0 35 609 413 119 434 432 0 0 -17 413 0 35 611 61
3 113 614 411 0 434 +17 434 0 615 404 402 113 611 432 0 0 +15 615 241 0 402 616
 0 17 404 0 615 617 434 127 115 397 0 426 +17 402 0 615 434 617 119 125 392 0 61
1 +17 617 0 615 402 404 123 426 423 0 0 -17 125 0 608 607 121 123 402 392 0 407
 -17 407 0 552 426 132 123 607 405 0 617 +17 426 0 552 618 407 127 617 423 0 0 +
17 618 0 552 417 426 126 129 409 0 0 -17 417 0 552 357 618 163 134 415 0 0 +17 1
29 0 619 115 399 127 618 409 0 404 +15 619 397 0 115 620 0 17 115 0 619 614 129
 113 404 397 0 413 -17 399 0 619 129 614 126 118 396 0 618 +17 614 0 619 399 115
 116 413 411 0 613 -17 118 0 541 444 134 116 399 396 0 614 -17 444 0 541 91 118
 101 613 442 0 621 +17 134 0 541 118 467 126 417 415 0 399 -17 467 0 541 134 461
 163 622 465 0 417 +17 461 0 541 467 464 104 181 459 0 0 +17 622 0 623 185 169 1
04 467 465 0 461 -15 623 770 0 169 624 0 17 185 0 623 335 622 183 106 333 0 342
 +17 169 0 623 622 625 163 357 355 0 467 -17 625 0 623 169 626 170 200 325 0 357
 -17 357 0 552 470 417 170 169 355 0 0 +17 470 0 552 354 357 176 172 468 0 0 +17
 354 0 552 546 470 173 178 352 0 545 +17 172 0 627 200 332 170 470 468 0 625 -15
 627 785 0 172 628 0 17 200 0 627 198 172 186 625 325 0 629 +17 332 0 627 172 19
8 176 630 330 0 470 +17 198 0 627 332 200 182 629 327 0 631 +17 630 0 632 348 17
8 182 332 330 0 0 -15 632 778 0 178 633 0 17 348 0 632 340 630 190 631 346 0 634
 +17 178 0 632 630 175 176 354 352 0 332 -17 175 0 632 178 635 173 464 462 0 354
 -17 635 0 632 175 340 179 189 344 0 464 -17 464 0 541 461 545 179 175 462 0 0 +
17 545 0 541 464 524 173 546 408 0 0 -17 340 0 632 635 348 187 634 338 0 636 +17
 189 0 637 342 181 187 635 344 0 340 +15 637 782 0 181 638 0 17 342 0 637 106 18
9 183 636 328 0 639 +17 181 0 637 189 106 179 461 459 0 635 -17 106 0 637 181 34
2 104 185 333 0 622 -17 636 0 640 634 639 187 342 328 0 0 -17 639 0 640 636 195
 183 335 324 0 0 -15 640 788 0 639 641 0 17 195 0 640 639 634 193 192 336 0 351
 -17 335 0 623 626 185 193 639 324 0 0 +17 626 0 623 625 335 186 351 349 0 0 -17
 351 0 642 192 629 193 626 349 0 335 +15 642 774 0 192 643 0 17 192 0 642 631 35
1 190 195 336 0 348 +17 629 0 642 351 631 186 198 327 0 626 -17 631 0 642 629 19
2 182 348 346 0 630 -14 255 643 771 644 ?633 624 642 5 645 -0 0 633 624 23 81 1
 644 1844 646 643 647 0 0 648 649 14 633 775 648 ?638 643 632 5 650 -0 0 638 643
 23 14 624 767 651 ?643 601 623 5 652 -0 0 643 601 23 50 645 792 0 643 650 652 0
 +.0025 .0012 .0019 0 0 -1 -1 0 0 13 23 41 0 0 0 0 0 0 9 16 14 16 1017 653 ?535
 0 35 5 654 -0 0 535 0 23 81 1 653 1847 646 16 655 0 651 656 657 14 535 1005 656
 ?544 16 533 5 658 +544 544 544 16 23 50 654 84 0 16 659 660 0 +0 0 -.0018 0 0 1
 1 0 0 50 659 3 0 554 658 654 0 +0 0 .0018 0 0 1 1 0 0 50 660 110 0 576 654 661
 0 +-.0032 .0025 .0018 .707106781186546 -.707106781186549 0 .707106781186549 .70
7106781186546 0 14 576 101 662 ?620 572 574 5 660 -0 0 620 572 23 50 661 111 0 5
72 660 663 0 +.004 .0025 .0018 602334540269725e-31 -1 0 1 602334540269725e-31 0
 14 572 103 664 ?576 556 571 5 661 -0 0 576 556 23 50 663 112 0 556 661 665 0 +.
004 1469576158976824e-33 .0018 -1 0 0 0 0 1 14 556 233 666 ?572 616 555 5 663 -0
 0 572 616 23 50 665 113 0 616 663 667 0 +-.004 0 .0018 -183697019872103e-30 1 0
 -1 -183697019872103e-30 0 14 616 243 668 ?556 579 615 5 665 -0 0 556 579 23 50
 667 114 0 579 665 669 0 +-.004 .0017 .0018 1 0 0 0 0 -1 14 579 247 670 ?616 554
 577 5 667 -0 0 616 554 23 50 669 1326 671 582 667 672 0 -.004 .0025 -.0016 1181
275220979314e-32 -.196116135138181 .980580675690921 -1 -602334540269725e-31 0 81
 2 671 1327 673 669 0 0 674 675 676 677 14 582 1296 678 ?550 569 580 5 669 +0 0
 550 569 23 50 672 1324 674 569 669 679 0 -.0038 .0025 .0018 -.980580675690921 -
.196116135138181 0 0 0 -1 81 2 674 1325 673 672 0 0 680 671 681 682 14 569 1294
 683 ?582 564 559 5 672 +0 0 582 564 23 50 679 1322 680 564 672 20 0 +-903501810
404576e-34 .001499999999999982 .0018 -1181275220979314e-32 .196116135138181 .980
580675690921 1 602334540269725e-31 0 81 2 680 1323 673 679 0 0 0 674 684 685 14
 564 1292 686 ?569 687 561 5 679 +0 0 569 687 23 50 20 1445 675 550 679 6 0 +.00
38 1e-4 0 .986393923832144 -.164398987305354 0 0 0 -1 81 2 675 1446 673 20 0 0 6
71 18 688 689 14 550 1433 690 ?19 582 548 5 20 +0 0 19 582 23 81 1 690 1857 646
 550 691 0 686 692 693 14 19 1455 692 ?0 550 28 5 6 +0 0 0 550 23 81 1 692 1858
 646 19 694 0 690 695 696 80 255 1 646 697 698 9000 1 1 1 1 1 1 1 1 0 FFFFTFTFFF
FFFF1 81 1 694 1761 699 19 0 692 691 0 700 81 1 695 1859 646 554 701 0 692 702 7
03 82 255 1 696 1583874247 14 554 693 695 ?579 544 552 5 659 +0 0 579 544 23 81
 1 701 1725 699 554 0 695 704 705 706 81 1 702 1860 646 544 704 0 695 707 708 82
 1 703 -278331193 14 544 855 702 ?554 535 541 5 658 +535 535 554 535 23 81 1 704
 1724 699 544 0 702 709 701 710 81 1 707 1861 646 687 711 0 702 712 713 82 1 708
 -270991161 14 687 1110 707 ?564 714 715 5 716 +0 0 564 714 23 81 1 711 1756 699
 687 0 707 717 718 719 81 1 712 1862 646 714 717 0 707 720 721 82 1 713 -2996304
03 14 714 1099 712 ?687 279 722 5 723 -0 0 687 279 23 81 1 717 1755 699 714 0 71
2 724 711 725 81 1 720 1863 646 279 724 0 712 726 727 82 1 721 -298450755 14 279
 1091 720 ?714 728 275 5 729 -0 0 714 728 23 81 1 724 1754 699 279 0 720 730 717
 731 81 1 726 1864 646 728 730 0 720 732 733 82 1 727 -297926467 14 728 1087 726
 ?279 259 734 5 735 -0 0 279 259 23 81 1 730 1753 699 728 0 726 736 724 737 81 1
 732 1865 646 259 736 0 726 738 739 82 1 733 -266862403 14 259 1079 732 ?728 272
 253 5 740 -0 0 728 272 23 81 1 736 1752 699 259 0 732 741 730 742 81 1 738 1866
 646 272 741 0 732 743 744 82 1 739 -264765251 14 272 1076 738 ?259 745 266 5 74
6 -0 0 259 745 23 81 1 741 1751 699 272 0 738 747 736 748 81 1 743 1867 646 745
 747 0 738 749 750 82 1 744 -263126851 14 745 948 743 ?272 751 752 5 753 +0 0 27
2 751 23 81 1 747 1750 699 745 0 743 754 741 755 81 1 749 1868 646 751 754 0 743
 756 757 82 1 750 -311295811 14 751 941 749 ?745 758 759 5 760 -0 0 745 758 23 8
1 1 754 1749 699 751 0 749 761 747 762 81 1 756 1869 646 758 761 0 749 763 764 8
2 1 757 -310378307 14 758 937 756 ?751 765 766 5 767 -0 0 751 765 23 81 1 761 17
48 699 758 0 756 768 754 769 81 1 763 1870 646 765 768 0 756 770 771 82 1 764 -3
10116163 14 765 933 763 ?758 772 773 5 774 -0 0 758 772 23 81 1 768 1747 699 765
 0 763 775 761 776 81 1 770 1871 646 772 775 0 763 777 778 82 1 771 -309854019 1
4 772 929 770 ?765 779 780 5 781 -0 0 765 779 23 81 1 775 1746 699 772 0 770 782
 768 783 81 1 777 1872 646 779 782 0 770 784 785 82 1 778 -309591875 14 779 926
 777 ?772 641 786 5 787 -0 0 772 641 23 81 1 782 1745 699 779 0 777 788 775 789
 81 1 784 1873 646 641 788 0 777 790 791 82 1 785 -274464579 14 641 786 784 ?779
 628 640 5 792 +0 0 779 628 23 81 1 788 1744 699 641 0 784 793 782 794 81 1 790
 1874 646 628 793 0 784 795 796 82 1 791 -322961219 14 628 783 790 ?641 638 627
 5 797 -0 0 641 638 23 81 1 793 1743 699 628 0 790 798 788 799 81 1 795 1875 646
 638 798 0 790 800 801 82 1 796 -328597315 14 638 779 795 ?628 633 637 5 802 -0
 0 628 633 23 81 1 798 1742 699 638 0 795 803 793 804 81 1 800 1876 646 601 805
 0 795 806 807 82 1 801 -322043715 14 601 623 800 ?624 606 599 5 808 +0 0 624 60
6 23 81 1 805 1738 699 601 0 800 809 810 811 81 1 806 1877 646 606 809 0 800 812
 813 82 1 807 -334692163 14 606 620 806 ?601 592 605 5 814 -0 0 601 592 23 81 1
 809 1737 699 606 0 806 815 805 816 81 1 812 1878 646 592 815 0 806 817 818 82 1
 813 -340328259 14 592 616 812 ?606 594 590 5 819 -0 0 606 594 23 81 1 815 1736
 699 592 0 812 820 809 821 81 1 817 1879 646 594 820 0 812 822 823 82 1 818 -333
774659 14 594 612 817 ?592 604 593 5 824 -0 0 592 604 23 81 1 820 1735 699 594 0
 817 825 815 826 81 1 822 1880 646 604 825 0 817 827 828 82 1 823 -333512515 14
 604 608 822 ?594 587 602 5 829 -0 0 594 587 23 81 1 825 1734 699 604 0 822 830
 820 831 81 1 827 1881 646 587 830 0 822 832 833 82 1 828 -333250371 14 587 604
 827 ?604 610 584 5 834 -0 0 604 610 23 81 1 830 1733 699 587 0 827 835 825 836
 81 1 832 1882 646 610 835 0 827 837 838 82 1 833 -332988227 14 610 386 832 ?587
 620 608 5 839 +0 0 587 620 23 81 1 835 1732 699 610 0 832 840 830 841 81 1 837
 1883 646 620 840 0 832 0 842 82 1 838 -413335364 14 620 394 837 ?610 576 619 5
 843 +0 0 610 576 23 81 1 840 1731 699 620 0 837 844 835 845 82 1 842 -413597508
 80 1 699 0 846 8001 0 0 0 0 3 5 0 0 0 FFFFTFTFFFFFFF2 81 1 844 1730 699 576 0 6
62 847 840 848 83 255 3 845 .203921568627451 .203921568627451 .203921568627451 8
1 1 662 1849 646 576 844 0 656 664 849 81 1 847 1729 699 572 0 664 850 844 851 8
3 3 848 .203921568627451 .203921568627451 .203921568627451 81 1 664 1850 646 572
 847 0 662 666 852 81 1 850 1728 699 556 0 666 853 847 854 83 3 851 .20392156862
7451 .203921568627451 .203921568627451 81 1 666 1851 646 556 850 0 664 668 855 8
1 1 853 1727 699 616 0 668 705 850 856 83 3 854 .203921568627451 .20392156862745
1 .203921568627451 81 1 668 1852 646 616 853 0 666 670 857 81 1 705 1726 699 579
 0 670 701 853 858 83 3 856 .203921568627451 .203921568627451 .203921568627451 8
1 1 670 1853 646 579 705 0 668 678 859 83 3 858 .203921568627451 .20392156862745
1 .203921568627451 81 1 678 1854 646 582 860 0 670 683 861 82 1 859 -380895033 8
1 1 860 1759 699 582 0 678 862 691 863 81 1 683 1855 646 569 862 0 678 686 864 8
2 1 861 660078785 81 1 862 1758 699 569 0 683 718 860 865 81 1 686 1856 646 564
 718 0 683 690 866 82 1 864 661913793 81 1 718 1757 699 564 0 686 711 862 867 82
 1 866 663224513 83 3 867 .203921568627451 .203921568627451 .203921568627451 83
 3 865 .203921568627451 .203921568627451 .203921568627451 81 1 691 1760 699 550
 0 690 860 694 868 83 3 863 .203921568627451 .203921568627451 .203921568627451 8
3 3 868 .203921568627451 .203921568627451 .203921568627451 82 1 857 -381288260 8
2 1 855 -382205753 82 1 852 -444006207 81 1 656 1848 646 535 709 0 653 662 869 8
2 1 849 -444268351 81 1 709 1723 699 535 0 656 655 704 870 82 1 869 -268435257 8
1 1 655 1722 699 16 0 653 0 709 871 83 3 870 .203921568627451 .203921568627451 .
203921568627451 83 3 871 .203921568627451 .203921568627451 .203921568627451 79 2
55 15 846 SDL/TYSA_COLOUR50 843 412 0 620 834 839 0 +.0021 1e-4 .0018 1 18369701
9872103e-30 120466908053945e-30 -183697019872103e-30 1 0 50 834 628 0 587 829 84
3 0 +-.003 .0012 .0019 1 0 0 0 0 -1 50 839 410 0 610 843 658 0 +-.0021 1e-4 .001
8 -1 -183697019872103e-30 120466908053945e-30 183697019872103e-30 -1 0 50 658 40
9 0 544 839 659 0 +2112515728529185e-34 1e-4 0 183697019872103e-30 -1 0 1 183697
019872103e-30 0 50 829 629 0 604 824 834 0 +-.003 .0012 .0019 0 0 -1 -1 0 0 50 8
24 630 0 594 819 829 0 +-.0025 .0012 .0019 -1 0 433680868994202e-30 433680868994
202e-30 0 1 50 819 631 0 592 808 824 0 +-.003 .0012 9e-4 2168404344971015e-31 0
 1 1 0 -2168404344971015e-31 50 808 632 0 601 814 819 0 +0 0 0 0 -1 0 0 0 -1 50
 814 633 0 606 652 808 0 +0 .0012 0 0 -1 0 0 0 -1 50 652 791 0 624 645 814 0 +.0
025 .0012 .0019 1 0 -433680868994202e-30 -433680868994202e-30 0 -1 83 3 841 .203
921568627451 .203921568627451 .203921568627451 83 3 836 1 1 1 83 3 831 1 1 1 83
 3 826 1 1 1 83 3 821 1 1 1 83 3 816 1 1 1 81 1 810 1739 699 624 0 651 805 647 8
72 83 3 811 1 1 1 81 1 651 1846 646 624 810 0 648 653 873 81 1 647 1740 699 643
 0 644 810 803 874 83 3 872 1 1 1 81 1 803 1741 699 633 0 648 647 798 875 83 3 8
74 1 1 1 81 1 648 1845 646 633 803 0 644 651 876 83 3 875 1 1 1 82 1 876 -321781
571 82 1 873 -321257283 83 3 804 1 1 1 50 802 794 0 638 792 650 0 +.0025 .0012 9
e-4 2168404344971015e-31 0 1 1 0 -2168404344971015e-31 50 792 795 0 641 797 802
 0 +0 0 0 0 -1 0 0 0 -1 50 650 793 0 633 802 645 0 +.003 .0012 .0019 -1 0 867361
737988404e-30 867361737988404e-30 0 1 50 797 796 0 628 781 792 0 +0 .0012 0 0 -1
 0 0 0 -1 50 781 953 0 772 774 797 0 +.0025 .0012 -.0019 0 0 1 1 0 0 50 774 954
 0 765 767 781 0 +.0025 .0012 -.0019 1 0 433680868994202e-30 433680868994202e-30
 0 -1 50 767 955 0 758 760 774 0 +.0025 .0012 -9e-4 2168404344971015e-31 0 -1 -1
 0 -2168404344971015e-31 50 760 956 0 751 753 767 0 +.003 .0012 -.0019 -1 0 -867
361737988404e-30 -867361737988404e-30 0 1 50 753 957 0 745 787 760 0 +0 0 0 0 -1
 0 0 0 -1 50 787 958 0 779 729 753 0 +0 .0012 0 0 -1 0 0 0 -1 50 729 1115 0 279
 740 787 0 +-.003 .0012 -.0019 0 0 1 1 0 0 50 740 1116 0 259 723 729 0 +-.003 .0
012 -.0019 1 0 0 0 0 -1 50 723 1117 0 714 735 740 0 +-.003 .0012 -9e-4 216840434
4971015e-31 0 -1 -1 0 -2168404344971015e-31 50 735 1118 0 728 716 723 0 +-.0025
 .0012 -.0019 -1 0 -433680868994202e-30 -433680868994202e-30 0 1 50 716 1119 0 6
87 746 735 0 +0 0 0 0 -1 0 0 0 -1 50 746 1120 0 272 0 716 0 +0 .0012 0 0 -1 0 0
 0 -1 83 3 799 1 1 1 83 3 794 1 1 1 83 3 789 1 1 1 15 786 928 0 298 779 0 17 298
 0 786 473 294 95 221 295 0 0 +17 473 0 786 219 298 196 97 471 0 877 +17 294 0 7
86 298 219 207 878 292 0 879 +17 221 0 773 319 479 207 298 295 0 294 -15 773 936
 0 621 765 0 17 319 0 773 306 221 214 879 317 0 303 +17 479 0 773 221 621 95 103
 477 0 298 +17 621 0 773 479 880 101 91 322 0 0 -17 103 0 35 613 97 101 479 477
 0 444 -17 613 0 35 413 103 116 444 442 0 0 -17 97 0 35 103 202 95 473 471 0 479
 -17 202 0 35 97 542 196 476 474 0 473 -17 476 0 759 547 877 98 202 474 0 0 +15
 759 944 0 547 751 0 17 547 0 759 210 476 92 100 320 0 881 -17 877 0 759 476 882
 196 219 299 0 0 -17 882 0 759 877 206 203 312 301 0 878 -17 219 0 786 294 473 2
03 877 299 0 882 +17 206 0 759 882 210 204 883 296 0 312 +17 312 0 780 303 878 2
04 882 301 0 884 +17 878 0 780 312 879 203 294 292 0 0 -15 780 932 0 303 772 0 1
7 879 0 780 878 303 207 319 317 0 0 -17 303 0 780 879 312 214 884 291 0 0 +17 88
4 0 752 883 216 204 303 291 0 0 -15 752 950 0 884 745 0 17 883 0 752 885 884 208
 206 296 0 0 -17 216 0 752 884 885 214 306 304 0 319 -17 885 0 752 216 883 211 3
09 307 0 0 -17 306 0 773 880 319 211 216 304 0 885 +17 880 0 773 621 306 89 213
 315 0 0 -17 213 0 766 309 886 211 880 315 0 306 +15 766 940 0 886 758 0 17 309
 0 766 881 213 208 885 307 0 883 +17 886 0 766 213 881 89 94 480 0 880 -17 881 0
 766 886 309 92 210 313 0 0 -17 94 0 541 100 91 92 886 480 0 547 +17 91 0 541 94
 444 89 621 322 0 886 +17 210 0 759 206 547 208 881 313 0 309 +83 3 783 1 1 1 83
 3 776 1 1 1 83 3 769 1 1 1 83 3 762 1 1 1 83 3 755 1 1 1 83 3 748 1 1 1 83 3 74
2 1 1 1 83 3 737 1 1 1 15 734 1090 0 273 728 0 17 273 0 734 88 274 233 251 268 0
 612 -17 88 0 734 232 273 86 612 282 0 484 +17 274 0 734 273 239 236 276 887 0 2
71 -16 268 1024 0 ?251 887 256 888 0 0 1 17 612 0 35 267 539 233 88 282 0 0 -17
 267 0 35 264 612 224 235 491 0 0 -17 235 0 266 251 255 233 267 491 0 273 +16 88
7 1045 0 ?276 286 268 889 0 0 1 30 888 1131 0 268 270 890 0 +-.0025 .0012 -.0019
 433680868994202e-30 0 -1 30 270 1133 0 256 278 888 0 +-.003 .0012 -.0019 0 0 1
 30 890 1130 0 281 888 891 0 +-.003 0 -.0019 -1 0 0 16 281 1042 0 ?263 892 520 8
90 0 0 1 30 891 1129 0 892 890 893 0 +-.003 0 -.0019 0 0 1 16 892 1032 0 ?260 89
4 281 891 0 0 1 30 893 1128 0 894 891 895 0 +-.003 0 -9e-4 1 0 2168404344971015e
-31 16 894 1048 0 ?896 277 892 893 0 0 1 30 895 1127 0 277 893 889 0 +-.0025 0 -
.0019 433680868994202e-30 0 -1 16 277 1039 0 ?239 269 894 895 0 0 1 30 889 1126
 0 887 895 288 0 +-.0025 .0012 -.0019 0 -1 0 30 288 1125 0 286 889 287 0 +-.0025
 .0012 -9e-4 0 -1 0 16 286 1038 0 ?243 283 887 288 0 0 1 17 243 0 734 239 232 24
1 897 286 0 896 +17 239 0 734 274 243 237 898 277 0 276 +17 232 0 734 243 88 230
 484 482 0 897 -17 897 0 722 229 896 230 243 286 0 487 -17 896 0 722 897 246 241
 899 894 0 898 +15 722 1102 0 229 714 0 17 246 0 722 896 229 244 900 283 0 260 +
17 899 0 715 249 898 244 896 894 0 0 -17 898 0 715 899 280 241 239 277 0 0 -15 7
15 1112 0 280 687 0 17 280 0 715 898 249 237 263 281 0 0 -17 249 0 715 280 899 2
47 260 892 0 254 -17 260 0 253 900 254 244 249 892 0 899 +17 900 0 253 258 260 2
27 246 283 0 490 -17 258 0 253 226 900 217 490 488 0 264 -17 490 0 533 487 223 2
27 258 488 0 0 +17 487 0 533 484 490 230 229 485 0 0 +17 484 0 533 112 487 86 23
2 482 0 539 +17 229 0 722 246 897 227 487 485 0 900 -17 276 0 275 263 271 237 27
4 887 0 280 +30 278 1134 0 269 0 270 0 +-.003 .0012 -.0019 -1 0 0 83 3 731 1 1 1
 83 3 725 1 1 1 83 3 719 1 1 1 83 3 710 .203921568627451 .203921568627451 .20392
1568627451 83 3 706 .203921568627451 .203921568627451 .203921568627451 83 3 700
 .203921568627451 .203921568627451 .203921568627451 79 14 698 SWEntUnchanged82 1
 693 1581777095 80 2 673 901 902 8044 0 0 0 0 3 5 0 0 0 FFFFTFFFTTFFFF3 2 81 2 1
8 1468 673 6 0 0 675 0 903 904 84 255 6 688 BACAAB83 4 689 0 .001216552506059668
 .001200000000000024 2e-4 84 6 903 BACAAB83 4 904 0 .00121655250605967 .00120000
0000000026 2e-4 79 17 902 SDL/TYSA_BLEND_ID84 6 684 BACAAB83 4 685 -236255044178
64e-33 .001019803902718572 2e-4 .001000000000000016 84 6 681 BACAAB83 4 682 0 .0
01019803902718572 .001000000000000016 2e-4 84 6 676 BACAAB83 4 677 -472510088420
389e-34 .001019803902718572 .001000000000000016 2e-4 82 1 657 -263520057 82 1 64
9 -321519427 17 634 0 640 195 636 190 340 338 0 0 -17 597 0 593 382 145 149 366
 364 0 0 -17 55 0 35 542 537 53 549 532 0 540 +17 570 0 580 519 82 74 499 497 0
 0 -19 17 121 0 1 0 9 5 S0 74 4 CI16 index_map_offset0 0 1 dCCZ20 15 10 0 0 837
 905 906 18 907 908 909 13 694 2 0 0 0 0 0 0 0 0 0 0 81 2 905 1150 910 1 0 906 0
 0 0 911 81 2 906 1176 912 1 905 907 0 0 0 913 81 2 907 1357 914 1 906 908 0 0 0
 0 81 1 908 1486 915 1 907 909 0 0 916 81 2 909 1528 917 1 908 13 0 0 918 0 81 2
 13 1721 919 1 909 2 0 0 0 920 80 2 919 921 922 9000 0 0 0 0 3 5 0 0 0 FFTFFFFFF
FFFFF9 1 82 1 920 1 79 24 922 BODY_IN_LIGHTWEIGHT_PERM80 2 917 923 924 8004 0 0
 0 0 3 5 0 0 0 FFTFFFFFFFFFFF2 3 83 1 918 78e2 79 16 924 SDL/TYSA_DENSITY80 1 91
5 925 926 9000 1 1 1 1 1 1 1 1 0 FFTFFFFFFFFFFF1 82 1 916 58634 79 10 926 BODY_M
ATCH80 2 914 927 928 9000 0 0 0 0 3 5 0 0 0 FFTFFFFFFFFFFF9 1 79 16 928 BODY_REC
IPE_200180 2 912 929 930 9000 0 0 0 0 3 5 0 0 0 FFTFFFFFFFFFFF9 1 82 1 913 109 7
9 30 930 LAST_BODY_MODIFYING_FEATURE_ID80 2 910 931 932 9000 0 0 0 0 3 5 0 0 0 F
FTFFFFFFFFFFF9 1 82 1 911 157 79 19 932 ENT_TIME_STAMP_200180 2 12 933 934 9000
 0 0 0 0 3 5 0 0 0 FFTFFFFFFFFFFF9 1 82 1 14 105 79 12 934 ATOM_ID_20011 0 
